Glyphs Sapperlot.glyphspackage
{
glyphname = space;
layers = (
{
layerId = "8706937B-409E-4048-AB1C-4F6C90F3053E";
name = "Regular Front";
width = 200;
},
{
background = {
shapes = (
{
closed = 1;
nodes = (
(253,700,o),
(190,623,o),
(190,538,c),
(190,437,l),
(190,98,l),
(124,98,l),
(124,10,l),
(267,10,l),
(267,276,l),
(425,276,l),
(425,10,l),
(563,10,l),
(563,98,l),
(504,98,l),
(503,558,l),
(503,588,o),
(491,615,o),
(473,637,c),
(438,676,o),
(389,700,o),
(344,700,c)
);
},
{
closed = 1;
nodes = (
(395,614,o),
(425,577,o),
(425,541,c),
(425,363,l),
(263,363,l),
(263,542,l),
(263,577,o),
(297,614,o),
(347,614,c)
);
}
);
};
layerId = "C85A4985-4A4B-40F2-9F5D-E307D783C1A5";
name = "Regular InsideLight";
width = 200;
},
{
layerId = "2AF69027-8699-4DA7-9B20-F07C10F82EEB";
name = "Regular InsideShadow";
width = 200;
},
{
layerId = "251EB316-0412-4A3C-A569-0EEB43C6D9CE";
name = "Regular Shadow";
width = 200;
}
);
unicode = 32;
}
{
glyphname = exclam;
layers = (
{
layerId = "251EB316-0412-4A3C-A569-0EEB43C6D9CE";
name = "Regular Shadow";
shapes = (
{
closed = 1;
nodes = (
(35,455,l),
(35,-26,l),
(117,-26,l),
(82,0,l),
(82,107,l),
(192,107,l),
(230,74,l),
(282,118,l),
(175,118,l),
(82,199,l),
(82,500,l)
);
},
{
closed = 1;
nodes = (
(35,-134,l),
(35,-216,l),
(166,-216,l),
(282,-70,l),
(179,-70,l),
(123,-30,l)
);
}
);
width = 267;
},
{
layerId = "2AF69027-8699-4DA7-9B20-F07C10F82EEB";
name = "Regular InsideShadow";
shapes = (
{
closed = 1;
nodes = (
(82,0,l),
(179,-70,l),
(282,-70,l),
(192,0,l)
);
},
{
closed = 1;
nodes = (
(82,199,l),
(175,118,l),
(282,118,l),
(192,199,l)
);
}
);
width = 267;
},
{
layerId = "C85A4985-4A4B-40F2-9F5D-E307D783C1A5";
name = "Regular InsideLight";
shapes = (
{
closed = 1;
nodes = (
(192,199,l),
(282,118,l),
(282,587,l),
(192,700,l)
);
},
{
closed = 1;
nodes = (
(192,0,l),
(282,-70,l),
(282,29,l),
(192,107,l)
);
}
);
width = 267;
},
{
layerId = "8706937B-409E-4048-AB1C-4F6C90F3053E";
name = "Regular Front";
shapes = (
{
closed = 1;
nodes = (
(82,700,l),
(82,199,l),
(192,199,l),
(192,700,l)
);
},
{
closed = 1;
nodes = (
(82,107,l),
(82,0,l),
(192,0,l),
(192,107,l)
);
}
);
width = 267;
}
);
unicode = 33;
}
{
glyphname = numbersign;
layers = (
{
layerId = "8706937B-409E-4048-AB1C-4F6C90F3053E";
name = "Regular Front";
shapes = (
{
closed = 1;
nodes = (
(392,700,l),
(392,0,l),
(496,0,l),
(496,700,l)
);
},
{
closed = 1;
nodes = (
(184,700,l),
(184,0,l),
(288,0,l),
(288,700,l)
);
},
{
closed = 1;
nodes = (
(35,509,l),
(35,403,l),
(645,403,l),
(645,509,l)
);
},
{
closed = 1;
nodes = (
(35,297,l),
(35,191,l),
(645,191,l),
(645,297,l)
);
}
);
width = 700;
},
{
layerId = "C85A4985-4A4B-40F2-9F5D-E307D783C1A5";
name = "Regular InsideLight";
shapes = (
{
closed = 1;
nodes = (
(496,509,l),
(594,509,l),
(594,587,l),
(496,700,l)
);
},
{
closed = 1;
nodes = (
(645,403,l),
(735,312,l),
(735,413,l),
(645,509,l)
);
},
{
closed = 1;
nodes = (
(496,0,l),
(594,-70,l),
(594,-41,l),
(496,191,l)
);
},
{
closed = 1;
nodes = (
(645,191,l),
(735,100,l),
(735,201,l),
(645,297,l)
);
},
{
closed = 1;
nodes = (
(496,297,l),
(541,297,l),
(496,403,l)
);
},
{
closed = 1;
nodes = (
(288,297,l),
(333,297,l),
(288,403,l)
);
},
{
closed = 1;
nodes = (
(288,700,l),
(288,509,l),
(367,509,l),
(367,541,l),
(386,514,l),
(386,587,l)
);
},
{
closed = 1;
nodes = (
(288,191,l),
(288,0,l),
(367,-56,l),
(367,4,l)
);
}
);
width = 700;
},
{
layerId = "2AF69027-8699-4DA7-9B20-F07C10F82EEB";
name = "Regular InsideShadow";
shapes = (
{
closed = 1;
nodes = (
(392,0,l),
(499,-70,l),
(594,-70,l),
(496,0,l)
);
},
{
closed = 1;
nodes = (
(35,191,l),
(134,100,l),
(184,100,l),
(184,191,l)
);
},
{
closed = 1;
nodes = (
(496,191,l),
(594,100,l),
(735,100,l),
(645,191,l)
);
},
{
closed = 1;
nodes = (
(594,-41,l),
(594,100,l),
(496,191,l)
);
},
{
closed = 1;
nodes = (
(35,403,l),
(134,312,l),
(184,312,l),
(184,403,l)
);
},
{
closed = 1;
nodes = (
(496,403,l),
(594,312,l),
(735,312,l),
(645,403,l)
);
},
{
closed = 1;
nodes = (
(184,0,l),
(291,-70,l),
(386,-70,l),
(288,0,l)
);
},
{
closed = 1;
nodes = (
(386,-41,l),
(386,100,l),
(288,191,l)
);
},
{
closed = 1;
nodes = (
(288,191,l),
(386,100,l),
(392,100,l),
(392,191,l)
);
},
{
closed = 1;
nodes = (
(541,297,l),
(594,297,l),
(594,312,l),
(496,403,l)
);
},
{
closed = 1;
nodes = (
(333,297,l),
(386,297,l),
(386,312,l),
(288,403,l)
);
},
{
closed = 1;
nodes = (
(288,403,l),
(386,312,l),
(392,312,l),
(392,403,l)
);
},
{
closed = 1;
nodes = (
(367,509,l),
(386,509,l),
(386,514,l),
(367,541,l)
);
},
{
closed = 1;
nodes = (
(367,-59,l),
(386,-70,l),
(386,-31,l),
(367,8,l)
);
}
);
width = 700;
},
{
layerId = "251EB316-0412-4A3C-A569-0EEB43C6D9CE";
name = "Regular Shadow";
shapes = (
{
closed = 1;
nodes = (
(386,100,l),
(386,-70,l),
(347,-107,l),
(347,-216,l),
(441,-216,l),
(594,-70,l),
(499,-70,l),
(392,0,l),
(392,100,l)
);
},
{
closed = 1;
nodes = (
(-15,62,l),
(-15,-41,l),
(184,-41,l),
(184,100,l),
(134,100,l),
(80,150,l)
);
},
{
closed = 1;
nodes = (
(594,-41,l),
(735,100,l),
(594,100,l)
);
},
{
closed = 1;
nodes = (
(139,-34,l),
(139,-216,l),
(233,-216,l),
(386,-70,l),
(291,-70,l),
(184,0,l),
(184,-34,l)
);
},
{
closed = 1;
nodes = (
(594,297,l),
(645,297,l),
(681,258,l),
(735,312,l),
(594,312,l)
);
},
{
closed = 1;
nodes = (
(386,297,l),
(392,297,l),
(392,312,l),
(386,312,l)
);
},
{
closed = 1;
nodes = (
(-15,274,l),
(-15,171,l),
(57,171,l),
(35,191,l),
(35,297,l),
(184,297,l),
(184,312,l),
(134,312,l),
(80,362,l)
);
},
{
closed = 1;
nodes = (
(171,509,l),
(184,509,l),
(184,523,l)
);
},
{
closed = 1;
nodes = (
(386,514,l),
(392,522,l),
(392,509,l),
(386,509,l)
);
}
);
width = 700;
}
);
unicode = 35;
}
{
glyphname = ampersand;
layers = (
{
anchors = (
{
name = ogonek;
pos = (569,-41);
},
{
name = top;
pos = (335,660);
}
);
layerId = "8706937B-409E-4048-AB1C-4F6C90F3053E";
name = "Regular Front";
shapes = (
{
closed = 1;
nodes = (
(399,104,l),
(373,95,o),
(345,87,o),
(319,87,cs),
(244,87,o),
(198,153,o),
(198,217,cs),
(198,267,o),
(231,303,o),
(280,322,c)
);
},
{
closed = 1;
nodes = (
(295,567,o),
(315,573,o),
(334,573,cs),
(385,573,o),
(421,528,o),
(421,485,cs),
(421,453,o),
(399,423,o),
(355,401,c),
(275,555,l)
);
},
{
closed = 1;
nodes = (
(462,630,o),
(424,656,o),
(382,667,cs),
(366,671,o),
(350,673,o),
(334,673,cs),
(272,673,o),
(206,643,o),
(152,576,c),
(238,413,l),
(203,399,o),
(174,380,o),
(150,358,cs),
(112,322,o),
(91,277,o),
(91,227,cs),
(91,175,o),
(111,118,o),
(149,74,cs),
(189,27,o),
(248,-6,o),
(324,-6,cs),
(363,-6,o),
(404,2,o),
(440,14,c),
(496,-80,l),
(584,-34,l),
(518,88,l),
(552,104,o),
(582,130,o),
(607,163,cs),
(629,193,o),
(644,224,o),
(653,261,c),
(707,261,l),
(707,347,l),
(561,347,l),
(561,299,l),
(561,282,o),
(550,250,o),
(517,212,cs),
(504,197,o),
(487,184,o),
(472,176,c),
(402,313,l),
(454,340,o),
(491,379,o),
(509,423,cs),
(517,443,o),
(521,463,o),
(521,485,cs),
(521,520,o),
(509,559,o),
(487,592,cs)
);
}
);
width = 806;
},
{
anchors = (
{
name = ogonek;
pos = (569,-41);
},
{
name = top;
pos = (335,660);
}
);
layerId = "C85A4985-4A4B-40F2-9F5D-E307D783C1A5";
name = "Regular InsideLight";
shapes = (
{
closed = 1;
nodes = (
(583,-33,l),
(675,-106,l),
(609,13,l),
(518,88,l)
);
},
{
closed = 1;
nodes = (
(707,261,l),
(798,189,l),
(798,269,l),
(707,347,l)
);
},
{
closed = 1;
nodes = (
(472,176,l),
(487,184,o),
(504,197,o),
(517,212,c),
(503,240,l),
(402,313,l)
);
},
{
closed = 1;
nodes = (
(631,412,o),
(612,489,o),
(563,552,cs),
(529,595,o),
(464,645,o),
(382,667,c),
(424,656,o),
(462,630,o),
(487,592,cs),
(509,559,o),
(521,520,o),
(521,485,cs),
(521,462,o),
(517,443,o),
(509,423,c),
(600,347,l)
);
},
{
closed = 1;
nodes = (
(221,176,o),
(269,116,o),
(319,87,c),
(244,87,o),
(198,153,o),
(198,217,c)
);
},
{
closed = 1;
nodes = (
(355,401,l),
(368,407,o),
(379,415,o),
(388,422,c),
(275,555,l)
);
},
{
closed = 1;
nodes = (
(503,240,l),
(517,212,l),
(402,313,l)
);
},
{
closed = 1;
nodes = (
(582,130,o),
(552,104,o),
(518,88,c),
(609,13,l),
(644,30,o),
(673,55,o),
(701,91,c),
(607,163,l)
);
}
);
width = 806;
},
{
anchors = (
{
name = ogonek;
pos = (569,-41);
},
{
name = top;
pos = (335,660);
}
);
layerId = "2AF69027-8699-4DA7-9B20-F07C10F82EEB";
name = "Regular InsideShadow";
shapes = (
{
closed = 1;
nodes = (
(496,-80,l),
(583,-152,l),
(675,-106,l),
(584,-34,l)
);
},
{
closed = 1;
nodes = (
(388,422,l),
(377,449,l),
(420,472,l),
(424,493,o),
(418,514,o),
(404,536,cs),
(377,575,o),
(326,586,o),
(275,555,c)
);
},
{
closed = 1;
nodes = (
(653,261,l),
(740,189,l),
(798,189,l),
(707,261,l)
);
},
{
closed = 1;
nodes = (
(503,240,l),
(526,256,o),
(544,274,o),
(561,299,c),
(561,347,l),
(600,347,l),
(509,423,l),
(491,379,o),
(454,340,o),
(402,313,c)
);
},
{
closed = 1;
nodes = (
(231,303,o),
(198,267,o),
(198,217,c),
(221,176,o),
(269,116,o),
(319,87,c),
(279,146,o),
(299,196,o),
(335,222,c),
(280,322,l)
);
},
{
closed = 1;
nodes = (
(193,3,o),
(331,-82,o),
(404,-83,cs),
(431,-83,o),
(459,-78,o),
(489,-67,c),
(440,14,l),
(404,2,o),
(363,-6,o),
(324,-6,cs),
(248,-6,o),
(189,27,o),
(149,74,c)
);
},
{
closed = 1;
nodes = (
(503,240,l),
(517,212,l),
(402,313,l)
);
},
{
closed = 1;
nodes = (
(644,224,o),
(629,193,o),
(607,163,c),
(701,91,l),
(724,125,o),
(735,157,o),
(740,189,c),
(653,261,l)
);
}
);
width = 806;
},
{
anchors = (
{
name = ogonek;
pos = (569,-41);
},
{
name = top;
pos = (335,660);
}
);
layerId = "251EB316-0412-4A3C-A569-0EEB43C6D9CE";
name = "Regular Shadow";
shapes = (
{
closed = 1;
nodes = (
(416,451,o),
(407,438,o),
(388,422,c),
(377,449,l),
(420,472,l)
);
},
{
closed = 1;
nodes = (
(148,452,o),
(169,469,o),
(199,487,c),
(238,413,l),
(203,399,o),
(174,380,o),
(150,358,c),
(119,417,l)
);
},
{
closed = 1;
nodes = (
(583,-152,l),
(496,-80,l),
(489,-67,l),
(459,-78,o),
(431,-83,o),
(404,-83,cs),
(331,-82,o),
(193,3,o),
(149,74,c),
(111,118,o),
(91,175,o),
(91,227,c),
(50,154,o),
(38,111,o),
(38,0,c),
(39,-107,o),
(124,-230,o),
(270,-230,cs),
(309,-230,o),
(350,-222,o),
(386,-210,c),
(442,-304,l),
(530,-258,l),
(675,-106,l)
);
},
{
closed = 1;
nodes = (
(701,91,l),
(724,125,o),
(735,157,o),
(740,189,c),
(798,189,l)
);
},
{
closed = 1;
nodes = (
(399,104,l),
(373,95,o),
(345,87,o),
(319,87,c),
(279,146,o),
(299,196,o),
(335,222,c)
);
},
{
closed = 1;
nodes = (
(517,212,l),
(550,250,o),
(561,282,o),
(561,299,c),
(544,274,o),
(526,256,o),
(503,240,c)
);
}
);
width = 806;
}
);
unicode = 38;
}
{
glyphname = asterisk;
layers = (
{
layerId = "8706937B-409E-4048-AB1C-4F6C90F3053E";
name = "Regular Front";
shapes = (
{
closed = 1;
nodes = (
(288,700,l),
(288,0,l),
(392,0,l),
(392,700,l)
);
},
{
closed = 1;
nodes = (
(35,403,l),
(35,297,l),
(645,297,l),
(645,403,l)
);
},
{
closed = 1;
nodes = (
(55,556,l),
(550,61,l),
(624,135,l),
(129,630,l)
);
},
{
closed = 1;
nodes = (
(55,135,l),
(129,61,l),
(624,556,l),
(550,630,l)
);
}
);
width = 700;
},
{
layerId = "C85A4985-4A4B-40F2-9F5D-E307D783C1A5";
name = "Regular InsideLight";
shapes = (
{
closed = 1;
nodes = (
(392,472,l),
(490,569,l),
(490,587,l),
(392,700,l)
);
},
{
closed = 1;
nodes = (
(645,297,l),
(735,206,l),
(735,307,l),
(650,398,l),
(645,403,l)
);
},
{
closed = 1;
nodes = (
(392,0,l),
(490,-70,l),
(490,-35,l),
(392,219,l)
);
},
{
closed = 1;
nodes = (
(550,61,l),
(640,-30,l),
(714,39,l),
(624,135,l)
);
}
);
width = 700;
},
{
layerId = "2AF69027-8699-4DA7-9B20-F07C10F82EEB";
name = "Regular InsideShadow";
shapes = (
{
closed = 1;
nodes = (
(288,0,l),
(395,-70,l),
(490,-70,l),
(392,0,l)
);
},
{
closed = 1;
nodes = (
(35,297,l),
(130,210,l),
(217,297,l)
);
},
{
closed = 1;
nodes = (
(462,297,l),
(553,206,l),
(735,206,l),
(645,297,l)
);
},
{
closed = 1;
nodes = (
(490,-35,l),
(490,121,l),
(392,219,l)
);
},
{
closed = 1;
nodes = (
(471,403,l),
(645,403,l),
(650,398,l),
(714,460,l),
(624,556,l)
);
},
{
closed = 1;
nodes = (
(288,220,l),
(288,49,l),
(227,-9,l),
(129,61,l)
);
}
);
width = 700;
},
{
layerId = "251EB316-0412-4A3C-A569-0EEB43C6D9CE";
name = "Regular Shadow";
shapes = (
{
closed = 1;
nodes = (
(227,-9,l),
(227,-216,l),
(337,-216,l),
(490,-70,l),
(395,-70,l),
(288,0,l),
(288,49,l)
);
},
{
closed = 1;
nodes = (
(-15,168,l),
(-15,65,l),
(125,65,l),
(55,135,l),
(130,210,l),
(80,256,l)
);
},
{
closed = 1;
nodes = (
(642,116,l),
(735,206,l),
(553,206,l)
);
},
{
closed = 1;
nodes = (
(268,491,l),
(288,471,l),
(288,509,l)
);
},
{
closed = 1;
nodes = (
(490,-70,l),
(443,-114,l),
(495,-171,l),
(640,-30,l),
(490,121,l)
);
},
{
closed = 1;
nodes = (
(55,135,l),
(10,0,l),
(10,-126,l),
(104,-126,l),
(227,-9,l),
(129,61,l)
);
}
);
width = 700;
}
);
unicode = 42;
}
{
glyphname = plus;
layers = (
{
layerId = "8706937B-409E-4048-AB1C-4F6C90F3053E";
name = "Regular Front";
shapes = (
{
closed = 1;
nodes = (
(326,405,l),
(249,405,l),
(249,493,l),
(145,493,l),
(145,405,l),
(65,405,l),
(65,299,l),
(145,299,l),
(145,208,l),
(249,208,l),
(249,299,l),
(326,299,l)
);
}
);
width = 406;
},
{
layerId = "C85A4985-4A4B-40F2-9F5D-E307D783C1A5";
name = "Regular InsideLight";
shapes = (
{
closed = 1;
nodes = (
(326,299,l),
(416,208,l),
(416,308,l),
(326,405,l)
);
},
{
closed = 1;
nodes = (
(249,405,l),
(326,405,l),
(249,493,l)
);
},
{
closed = 1;
nodes = (
(249,208,l),
(339,120,l),
(339,138,l),
(249,299,l)
);
}
);
width = 406;
},
{
layerId = "2AF69027-8699-4DA7-9B20-F07C10F82EEB";
name = "Regular InsideShadow";
shapes = (
{
closed = 1;
nodes = (
(249,299,l),
(339,208,l),
(416,208,l),
(326,299,l)
);
},
{
closed = 1;
nodes = (
(145,208,l),
(244,120,l),
(339,120,l),
(249,208,l)
);
},
{
closed = 1;
nodes = (
(339,138,l),
(339,208,l),
(249,299,l)
);
},
{
closed = 1;
nodes = (
(65,299,l),
(145,238,l),
(145,299,l)
);
}
);
width = 406;
},
{
layerId = "251EB316-0412-4A3C-A569-0EEB43C6D9CE";
name = "Regular Shadow";
shapes = (
{
closed = 1;
nodes = (
(339,138,l),
(416,208,l),
(339,208,l)
);
},
{
closed = 1;
nodes = (
(244,120,l),
(145,208,l),
(145,238,l),
(92,279,l),
(92,223,l),
(35,170,l),
(35,67,l),
(92,67,l),
(92,-25,l),
(186,-25,l),
(339,120,l)
);
}
);
width = 406;
}
);
unicode = 43;
}
{
glyphname = comma;
layers = (
{
layerId = "251EB316-0412-4A3C-A569-0EEB43C6D9CE";
name = "Regular Shadow";
shapes = (
{
closed = 1;
nodes = (
(35,-234,l),
(35,-317,l),
(165,-317,l),
(275,-172,l),
(168,-172,l),
(118,-139,l)
);
}
);
width = 260;
},
{
layerId = "2AF69027-8699-4DA7-9B20-F07C10F82EEB";
name = "Regular InsideShadow";
shapes = (
{
closed = 1;
nodes = (
(61,-101,l),
(168,-172,l),
(275,-172,l),
(191,-101,l)
);
}
);
width = 260;
},
{
layerId = "C85A4985-4A4B-40F2-9F5D-E307D783C1A5";
name = "Regular InsideLight";
shapes = (
{
closed = 1;
nodes = (
(191,-101,l),
(275,-172,l),
(275,29,l),
(191,108,l)
);
}
);
width = 260;
},
{
layerId = "8706937B-409E-4048-AB1C-4F6C90F3053E";
name = "Regular Front";
shapes = (
{
closed = 1;
nodes = (
(61,107,l),
(61,-101,l),
(191,-101,l),
(191,108,l)
);
}
);
width = 260;
}
);
unicode = 44;
}
{
glyphname = hyphen;
layers = (
{
layerId = "8706937B-409E-4048-AB1C-4F6C90F3053E";
name = "Regular Front";
shapes = (
{
closed = 1;
nodes = (
(80,405,l),
(80,299,l),
(301,299,l),
(301,405,l)
);
}
);
width = 381;
},
{
layerId = "C85A4985-4A4B-40F2-9F5D-E307D783C1A5";
name = "Regular InsideLight";
shapes = (
{
closed = 1;
nodes = (
(301,299,l),
(391,208,l),
(391,309,l),
(301,405,l)
);
}
);
width = 381;
},
{
layerId = "2AF69027-8699-4DA7-9B20-F07C10F82EEB";
name = "Regular InsideShadow";
shapes = (
{
closed = 1;
nodes = (
(80,299,l),
(179,208,l),
(391,208,l),
(301,299,l)
);
}
);
width = 381;
},
{
layerId = "251EB316-0412-4A3C-A569-0EEB43C6D9CE";
name = "Regular Shadow";
shapes = (
{
closed = 1;
nodes = (
(30,170,l),
(30,67,l),
(246,67,l),
(391,208,l),
(179,208,l),
(125,258,l)
);
}
);
width = 381;
}
);
unicode = 45;
}
{
glyphname = period;
layers = (
{
layerId = "251EB316-0412-4A3C-A569-0EEB43C6D9CE";
name = "Regular Shadow";
shapes = (
{
closed = 1;
nodes = (
(35,-133,l),
(35,-216,l),
(165,-216,l),
(275,-70,l),
(168,-70,l),
(118,-38,l)
);
}
);
width = 260;
},
{
layerId = "2AF69027-8699-4DA7-9B20-F07C10F82EEB";
name = "Regular InsideShadow";
shapes = (
{
closed = 1;
nodes = (
(61,0,l),
(168,-70,l),
(275,-70,l),
(191,0,l)
);
}
);
width = 260;
},
{
layerId = "C85A4985-4A4B-40F2-9F5D-E307D783C1A5";
name = "Regular InsideLight";
shapes = (
{
closed = 1;
nodes = (
(191,0,l),
(275,-70,l),
(275,30,l),
(191,107,l)
);
}
);
width = 260;
},
{
layerId = "8706937B-409E-4048-AB1C-4F6C90F3053E";
name = "Regular Front";
shapes = (
{
closed = 1;
nodes = (
(61,107,l),
(61,0,l),
(191,0,l),
(191,107,l)
);
}
);
width = 260;
}
);
unicode = 46;
}
{
glyphname = slash;
layers = (
{
layerId = "8706937B-409E-4048-AB1C-4F6C90F3053E";
name = "Regular Front";
shapes = (
{
closed = 1;
nodes = (
(280,700,l),
(80,0,l),
(184,0,l),
(383,700,l)
);
}
);
width = 447;
},
{
layerId = "C85A4985-4A4B-40F2-9F5D-E307D783C1A5";
name = "Regular InsideLight";
shapes = (
{
closed = 1;
nodes = (
(184,0,l),
(282,-70,l),
(482,587,l),
(383,700,l)
);
}
);
width = 447;
},
{
layerId = "2AF69027-8699-4DA7-9B20-F07C10F82EEB";
name = "Regular InsideShadow";
shapes = (
{
closed = 1;
nodes = (
(80,0,l),
(187,-70,l),
(282,-70,l),
(184,0,l)
);
}
);
width = 447;
},
{
layerId = "251EB316-0412-4A3C-A569-0EEB43C6D9CE";
name = "Regular Shadow";
shapes = (
{
closed = 1;
nodes = (
(114,-22,l),
(35,-216,l),
(129,-216,l),
(282,-70,l),
(187,-70,l)
);
}
);
width = 447;
}
);
unicode = 47;
}
{
glyphname = one;
layers = (
{
anchors = (
{
name = ogonek;
pos = (423,-1);
},
{
name = top;
pos = (189,700);
}
);
layerId = "8706937B-409E-4048-AB1C-4F6C90F3053E";
name = "Regular Front";
shapes = (
{
closed = 1;
nodes = (
(23,597,l),
(65,500,l),
(139,536,l),
(139,107,l),
(71,107,l),
(71,0,l),
(311,0,l),
(311,107,l),
(243,107,l),
(242,700,l)
);
}
);
width = 371;
},
{
anchors = (
{
name = ogonek;
pos = (423,-1);
},
{
name = top;
pos = (189,700);
}
);
layerId = "C85A4985-4A4B-40F2-9F5D-E307D783C1A5";
name = "Regular InsideLight";
shapes = (
{
closed = 1;
nodes = (
(243,107,l),
(311,107,l),
(340,79,l),
(341,587,l),
(242,700,l)
);
},
{
closed = 1;
nodes = (
(311,0,l),
(395,-70,l),
(395,29,l),
(311,107,l)
);
}
);
width = 371;
},
{
anchors = (
{
name = ogonek;
pos = (423,-1);
},
{
name = top;
pos = (189,700);
}
);
layerId = "2AF69027-8699-4DA7-9B20-F07C10F82EEB";
name = "Regular InsideShadow";
shapes = (
{
closed = 1;
nodes = (
(71,0,l),
(178,-70,l),
(395,-70,l),
(311,0,l)
);
},
{
closed = 1;
nodes = (
(65,500,l),
(139,428,l),
(139,536,l)
);
}
);
width = 371;
},
{
anchors = (
{
name = ogonek;
pos = (423,-1);
},
{
name = top;
pos = (189,700);
}
);
background = {
shapes = (
{
closed = 1;
nodes = (
(98,-83,l),
(45,-134,l),
(45,-216,l),
(285,-216,l),
(395,-70,l),
(178,-70,l),
(98,-17,l)
);
},
{
closed = 1;
nodes = (
(112,442,l),
(-17,381,l),
(25,274,l),
(99,310,l),
(99,-109,l),
(31,-109,l),
(31,-216,l),
(271,-216,l),
(271,-109,l),
(203,-109,l),
(202,398,l),
(139,418,l)
);
}
);
};
layerId = "251EB316-0412-4A3C-A569-0EEB43C6D9CE";
name = "Regular Shadow";
shapes = (
{
closed = 1;
nodes = (
(99,-41,l),
(41,-109,l),
(41,-216,l),
(285,-216,l),
(395,-70,l),
(178,-70,l),
(99,-18,l)
);
},
{
closed = 1;
nodes = (
(139,107,l),
(139,428,l),
(99,467,l),
(-7,381,l),
(35,284,l),
(99,313,l),
(99,107,l)
);
}
);
width = 371;
}
);
unicode = 49;
}
{
glyphname = two;
layers = (
{
anchors = (
{
name = ogonek;
pos = (483,-1);
},
{
name = top;
pos = (249,700);
}
);
layerId = "8706937B-409E-4048-AB1C-4F6C90F3053E";
name = "Regular Front";
shapes = (
{
closed = 1;
nodes = (
(148,706,o),
(83,625,o),
(83,537,cs),
(83,403,l),
(186,403,l),
(186,543,ls),
(186,573,o),
(204,602,o),
(245,602,cs),
(282,602,o),
(306,574,o),
(306,540,cs),
(306,467,l),
(194,335,l),
(83,202,l),
(83,0,l),
(416,0,l),
(416,241,l),
(310,241,l),
(310,107,l),
(186,107,l),
(186,176,l),
(415,438,l),
(415,557,l),
(415,583,o),
(405,607,o),
(391,628,cs),
(359,674,o),
(300,706,o),
(248,706,cs)
);
}
);
width = 484;
},
{
anchors = (
{
name = ogonek;
pos = (483,-1);
},
{
name = top;
pos = (249,700);
}
);
layerId = "C85A4985-4A4B-40F2-9F5D-E307D783C1A5";
name = "Regular InsideLight";
shapes = (
{
closed = 1;
nodes = (
(405,607,o),
(415,583,o),
(415,557,c),
(415,438,l),
(499,361,l),
(499,436,ls),
(499,471,o),
(488,501,o),
(467,529,cs),
(438,567,o),
(420,591,o),
(391,628,c)
);
},
{
closed = 1;
nodes = (
(186,107,l),
(281,107,l),
(186,176,l)
);
},
{
closed = 1;
nodes = (
(416,0,l),
(499,-70,l),
(499,163,l),
(416,241,l)
);
},
{
closed = 1;
nodes = (
(186,403,l),
(219,364,l),
(249,399,l),
(186,543,l)
);
}
);
width = 484;
},
{
anchors = (
{
name = ogonek;
pos = (483,-1);
},
{
name = top;
pos = (249,700);
}
);
layerId = "2AF69027-8699-4DA7-9B20-F07C10F82EEB";
name = "Regular InsideShadow";
shapes = (
{
closed = 1;
nodes = (
(186,176,l),
(281,107,l),
(310,143,l),
(310,241,l),
(395,241,l),
(499,361,l),
(415,438,l)
);
},
{
closed = 1;
nodes = (
(83,0,l),
(173,-70,l),
(499,-70,l),
(416,0,l)
);
},
{
closed = 1;
nodes = (
(83,403,l),
(149,335,l),
(194,335,l),
(219,364,l),
(186,403,l)
);
},
{
closed = 1;
nodes = (
(204,602,o),
(186,573,o),
(186,543,c),
(249,399,l),
(283,440,l),
(283,443,ls),
(283,467,o),
(292,487,o),
(306,500,c),
(306,540,ls),
(306,574,o),
(282,602,o),
(245,602,cs)
);
}
);
width = 484;
},
{
anchors = (
{
name = ogonek;
pos = (483,-1);
},
{
name = top;
pos = (249,700);
}
);
layerId = "251EB316-0412-4A3C-A569-0EEB43C6D9CE";
name = "Regular Shadow";
shapes = (
{
closed = 1;
nodes = (
(35,-7,l),
(35,-216,l),
(349,-216,l),
(499,-70,l),
(173,-70,l),
(83,0,l),
(83,43,l)
);
},
{
closed = 1;
nodes = (
(51,412,o),
(35,364,o),
(35,319,cs),
(35,183,l),
(83,183,l),
(83,203,l),
(194,335,l),
(149,335,l),
(83,404,l),
(83,444,l)
);
},
{
closed = 1;
nodes = (
(281,107,l),
(310,107,l),
(310,143,l)
);
},
{
closed = 1;
nodes = (
(292,487,o),
(283,467,o),
(283,443,cs),
(283,440,l),
(306,467,l),
(306,500,l)
);
}
);
width = 484;
}
);
unicode = 50;
}
{
glyphname = three;
layers = (
{
anchors = (
{
name = ogonek;
pos = (485,-1);
},
{
name = top;
pos = (251,700);
}
);
layerId = "8706937B-409E-4048-AB1C-4F6C90F3053E";
name = "Regular Front";
shapes = (
{
closed = 1;
nodes = (
(83,700,l),
(83,468,l),
(186,468,l),
(186,598,l),
(306,598,l),
(164,406,l),
(164,299,l),
(306,299,l),
(306,172,ls),
(306,149,o),
(296,128,o),
(283,114,c),
(276,107,o),
(265,101,o),
(255,101,cs),
(251,101,ls),
(207,101,o),
(186,132,o),
(186,166,cs),
(186,241,l),
(83,241,l),
(83,160,ls),
(83,114,o),
(108,59,o),
(153,25,cs),
(180,5,o),
(212,-8,o),
(251,-8,cs),
(318,-8,o),
(414,39,o),
(414,155,c),
(414,397,l),
(275,397,l),
(414,593,l),
(414,700,l)
);
}
);
width = 494;
},
{
anchors = (
{
name = ogonek;
pos = (485,-1);
},
{
name = top;
pos = (251,700);
}
);
layerId = "C85A4985-4A4B-40F2-9F5D-E307D783C1A5";
name = "Regular InsideLight";
shapes = (
{
closed = 1;
nodes = (
(414,155,l),
(499,78,l),
(499,315,l),
(414,397,l)
);
},
{
closed = 1;
nodes = (
(186,166,ls),
(186,132,o),
(207,101,o),
(251,101,cs),
(255,101,l),
(255,169,l),
(186,241,l)
);
},
{
closed = 1;
nodes = (
(186,468,l),
(199,454,l),
(235,502,l),
(186,598,l)
);
},
{
closed = 1;
nodes = (
(414,593,l),
(499,510,l),
(499,602,l),
(414,700,l)
);
}
);
width = 494;
},
{
anchors = (
{
name = ogonek;
pos = (485,-1);
},
{
name = top;
pos = (251,700);
}
);
layerId = "2AF69027-8699-4DA7-9B20-F07C10F82EEB";
name = "Regular InsideShadow";
shapes = (
{
closed = 1;
nodes = (
(414,39,o),
(318,-8,o),
(251,-8,cs),
(212,-8,o),
(180,5,o),
(153,25,c),
(156,22,o),
(242,-42,o),
(266,-56,cs),
(287,-67,o),
(307,-77,o),
(347,-77,cs),
(368,-77,o),
(417,-70,o),
(461,-30,cs),
(475,-18,o),
(499,16,o),
(499,78,c),
(414,155,l)
);
},
{
closed = 1;
nodes = (
(255,101,l),
(265,101,o),
(276,107,o),
(283,114,c),
(283,139,l),
(255,169,l)
);
},
{
closed = 1;
nodes = (
(164,299,l),
(263,213,l),
(306,213,l),
(306,299,l)
);
},
{
closed = 1;
nodes = (
(83,468,l),
(164,386,l),
(164,406,l),
(199,454,l),
(186,468,l)
);
},
{
closed = 1;
nodes = (
(186,598,l),
(186,597,o),
(219,534,o),
(235,502,c),
(306,598,l)
);
},
{
closed = 1;
nodes = (
(275,397,l),
(414,397,l),
(499,510,l),
(414,593,l)
);
}
);
width = 494;
},
{
anchors = (
{
name = ogonek;
pos = (485,-1);
},
{
name = top;
pos = (251,700);
}
);
layerId = "251EB316-0412-4A3C-A569-0EEB43C6D9CE";
name = "Regular Shadow";
shapes = (
{
closed = 1;
nodes = (
(35,84,l),
(35,-56,ls),
(35,-147,o),
(95,-220,o),
(198,-220,cs),
(242,-220,o),
(280,-204,o),
(313,-173,cs),
(461,-30,l),
(417,-70,o),
(368,-77,o),
(347,-77,cs),
(307,-77,o),
(287,-67,o),
(266,-56,c),
(242,-42,o),
(156,22,o),
(153,25,c),
(108,59,o),
(83,114,o),
(83,160,c)
);
},
{
closed = 1;
nodes = (
(35,414,l),
(35,224,l),
(83,224,l),
(83,241,l),
(186,241,l),
(255,169,l),
(283,139,l),
(283,114,l),
(296,128,o),
(306,149,o),
(306,172,cs),
(306,213,l),
(263,213,l),
(164,299,l),
(164,386,l),
(83,469,l),
(83,492,l)
);
}
);
width = 494;
}
);
unicode = 51;
}
{
glyphname = four;
layers = (
{
anchors = (
{
name = ogonek;
pos = (493,-1);
},
{
name = top;
pos = (259,700);
}
);
layerId = "8706937B-409E-4048-AB1C-4F6C90F3053E";
name = "Regular Front";
shapes = (
{
closed = 1;
nodes = (
(198,700,l),
(35,324,l),
(35,205,l),
(220,205,l),
(220,107,l),
(152,107,l),
(152,0,l),
(392,0,l),
(392,107,l),
(323,107,l),
(323,205,l),
(443,205,l),
(443,314,l),
(323,314,l),
(323,441,l),
(252,441,l),
(220,370,l),
(220,314,l),
(131,314,l),
(311,700,l)
);
}
);
width = 510;
},
{
anchors = (
{
name = ogonek;
pos = (493,-1);
},
{
name = top;
pos = (259,700);
}
);
layerId = "C85A4985-4A4B-40F2-9F5D-E307D783C1A5";
name = "Regular InsideLight";
shapes = (
{
closed = 1;
nodes = (
(323,107,l),
(392,107,l),
(451,52,l),
(451,70,l),
(323,205,l)
);
},
{
closed = 1;
nodes = (
(392,0,l),
(476,-70,l),
(476,29,l),
(392,107,l)
);
},
{
closed = 1;
nodes = (
(443,205,l),
(517,137,l),
(517,231,l),
(443,314,l)
);
},
{
closed = 1;
nodes = (
(323,314,l),
(422,314,l),
(422,346,l),
(323,441,l)
);
}
);
width = 510;
},
{
anchors = (
{
name = ogonek;
pos = (493,-1);
},
{
name = top;
pos = (259,700);
}
);
layerId = "2AF69027-8699-4DA7-9B20-F07C10F82EEB";
name = "Regular InsideShadow";
shapes = (
{
closed = 1;
nodes = (
(131,314,l),
(220,314,l),
(220,370,l),
(252,441,l),
(287,441,l),
(379,624,l),
(311,700,l)
);
},
{
closed = 1;
nodes = (
(152,0,l),
(239,-70,l),
(476,-70,l),
(392,0,l)
);
},
{
closed = 1;
nodes = (
(35,205,l),
(104,136,l),
(220,136,l),
(220,205,l)
);
},
{
closed = 1;
nodes = (
(451,70,l),
(451,137,l),
(323,205,l)
);
},
{
closed = 1;
nodes = (
(323,205,l),
(451,137,l),
(517,137,l),
(443,205,l)
);
}
);
width = 510;
},
{
anchors = (
{
name = ogonek;
pos = (493,-1);
},
{
name = top;
pos = (259,700);
}
);
layerId = "251EB316-0412-4A3C-A569-0EEB43C6D9CE";
metricRight = "=";
name = "Regular Shadow";
shapes = (
{
closed = 1;
nodes = (
(179,-83,l),
(126,-134,l),
(126,-216,l),
(366,-216,l),
(476,-70,l),
(239,-70,l),
(179,-22,l)
);
},
{
closed = 1;
nodes = (
(35,146,l),
(35,27,l),
(152,27,l),
(152,107,l),
(220,107,l),
(220,136,l),
(104,136,l),
(66,174,l)
);
},
{
closed = 1;
nodes = (
(451,137,l),
(451,70,l),
(517,137,l)
);
}
);
width = 510;
}
);
metricRight = "";
unicode = 52;
}
{
glyphname = five;
layers = (
{
anchors = (
{
name = ogonek;
pos = (483,-1);
},
{
name = top;
pos = (249,700);
}
);
layerId = "8706937B-409E-4048-AB1C-4F6C90F3053E";
name = "Regular Front";
shapes = (
{
closed = 1;
nodes = (
(83,700,l),
(83,468,l),
(84,280,l),
(84,275,l),
(187,275,l),
(187,286,ls),
(187,317,o),
(205,345,o),
(246,345,cs),
(279,345,o),
(306,314,o),
(306,286,c),
(306,172,ls),
(306,153,o),
(305,131,o),
(283,114,c),
(276,107,o),
(265,101,o),
(255,101,cs),
(251,101,ls),
(207,101,o),
(186,132,o),
(186,166,cs),
(186,221,l),
(83,221,l),
(83,160,ls),
(83,114,o),
(108,59,o),
(153,25,cs),
(180,5,o),
(212,-8,o),
(251,-8,cs),
(318,-8,o),
(416,38,o),
(416,154,cs),
(416,296,l),
(416,323,o),
(406,354,o),
(391,375,cs),
(361,417,o),
(326,439,o),
(285,446,cs),
(276,447,o),
(267,448,o),
(257,448,cs),
(229,448,o),
(206,444,o),
(186,437,c),
(186,598,l),
(306,598,l),
(306,484,l),
(414,484,l),
(414,700,l)
);
}
);
width = 464;
},
{
anchors = (
{
name = ogonek;
pos = (483,-1);
},
{
name = top;
pos = (249,700);
}
);
layerId = "C85A4985-4A4B-40F2-9F5D-E307D783C1A5";
name = "Regular InsideLight";
shapes = (
{
closed = 1;
nodes = (
(405,354,o),
(416,323,o),
(416,296,c),
(416,155,l),
(499,78,l),
(499,183,ls),
(499,218,o),
(488,248,o),
(467,276,cs),
(438,314,o),
(420,338,o),
(391,375,c)
);
},
{
closed = 1;
nodes = (
(186,166,ls),
(186,132,o),
(207,101,o),
(251,101,cs),
(255,101,l),
(255,149,l),
(186,221,l)
);
},
{
closed = 1;
nodes = (
(186,437,l),
(206,444,o),
(228,448,o),
(257,448,c),
(186,598,l)
);
},
{
closed = 1;
nodes = (
(414,484,l),
(499,401,l),
(499,602,l),
(414,700,l)
);
}
);
width = 464;
},
{
anchors = (
{
name = ogonek;
pos = (483,-1);
},
{
name = top;
pos = (249,700);
}
);
layerId = "2AF69027-8699-4DA7-9B20-F07C10F82EEB";
name = "Regular InsideShadow";
shapes = (
{
closed = 1;
nodes = (
(416,39,o),
(318,-8,o),
(251,-8,cs),
(212,-8,o),
(180,5,o),
(153,25,c),
(156,22,o),
(242,-42,o),
(266,-56,cs),
(287,-67,o),
(307,-77,o),
(347,-77,cs),
(368,-77,o),
(417,-70,o),
(461,-30,cs),
(475,-18,o),
(499,16,o),
(499,78,c),
(416,155,l)
);
},
{
closed = 1;
nodes = (
(255,101,l),
(265,101,o),
(276,107,o),
(283,114,c),
(283,120,l),
(255,149,l)
);
},
{
closed = 1;
nodes = (
(84,275,l),
(146,221,l),
(186,221,l),
(225,180,l),
(283,180,l),
(187,275,l)
);
},
{
closed = 1;
nodes = (
(205,345,o),
(187,317,o),
(187,286,c),
(187,275,l),
(283,180,l),
(283,199,o),
(293,214,o),
(306,225,c),
(306,283,ls),
(306,314,o),
(281,345,o),
(246,345,cs)
);
},
{
closed = 1;
nodes = (
(257,448,l),
(267,448,o),
(276,447,o),
(285,446,c),
(285,493,l),
(186,598,l)
);
},
{
closed = 1;
nodes = (
(186,598,l),
(285,493,l),
(306,493,l),
(306,598,l)
);
},
{
closed = 1;
nodes = (
(306,484,l),
(400,401,l),
(499,401,l),
(414,484,l)
);
}
);
width = 464;
},
{
anchors = (
{
name = ogonek;
pos = (483,-1);
},
{
name = top;
pos = (249,700);
}
);
layerId = "251EB316-0412-4A3C-A569-0EEB43C6D9CE";
name = "Regular Shadow";
shapes = (
{
closed = 1;
nodes = (
(35,38,l),
(35,-56,ls),
(35,-147,o),
(95,-220,o),
(198,-220,cs),
(242,-220,o),
(280,-204,o),
(313,-173,cs),
(461,-30,l),
(417,-70,o),
(368,-77,o),
(347,-77,cs),
(307,-77,o),
(287,-67,o),
(266,-56,c),
(242,-42,o),
(156,22,o),
(153,25,c),
(109,57,o),
(83,114,o),
(83,160,cs)
);
},
{
closed = 1;
nodes = (
(293,214,o),
(283,201,o),
(283,180,c),
(225,180,l),
(283,120,l),
(283,114,l),
(305,131,o),
(306,153,o),
(306,172,cs),
(306,225,l)
);
},
{
closed = 1;
nodes = (
(35,414,l),
(35,204,l),
(83,204,l),
(83,221,l),
(146,221,l),
(84,275,l),
(83,492,l)
);
},
{
closed = 1;
nodes = (
(285,493,l),
(285,446,l),
(326,439,o),
(361,417,o),
(391,375,cs),
(397,367,o),
(420,337,o),
(430,324,c),
(499,401,l),
(400,401,l),
(306,484,l),
(306,493,l)
);
}
);
width = 464;
}
);
unicode = 53;
}
{
glyphname = six;
layers = (
{
anchors = (
{
name = ogonek;
pos = (483,-1);
},
{
name = top;
pos = (249,700);
}
);
layerId = "8706937B-409E-4048-AB1C-4F6C90F3053E";
name = "Regular Front";
shapes = (
{
closed = 1;
nodes = (
(168,707,o),
(78,640,o),
(77,558,c),
(77,156,l),
(77,94,o),
(106,55,o),
(140,26,cs),
(170,0,o),
(202,-7,o),
(241,-7,cs),
(308,-7,o),
(409,64,o),
(409,155,cs),
(409,278,ls),
(409,310,o),
(400,341,o),
(384,367,cs),
(363,404,o),
(329,433,o),
(283,443,cs),
(265,447,o),
(240,447,o),
(229,445,cs),
(214,443,o),
(200,440,o),
(186,434,c),
(186,544,ls),
(186,578,o),
(209,603,o),
(246,603,cs),
(283,603,o),
(306,574,o),
(306,540,cs),
(306,469,l),
(409,469,l),
(409,538,ls),
(409,567,o),
(401,597,o),
(387,622,cs),
(361,672,o),
(311,707,o),
(244,707,cs)
);
},
{
closed = 1;
nodes = (
(282,342,o),
(306,314,o),
(306,280,cs),
(306,172,ls),
(306,153,o),
(305,129,o),
(283,112,c),
(276,107,o),
(265,101,o),
(255,101,cs),
(251,101,ls),
(207,101,o),
(186,132,o),
(186,166,cs),
(186,283,ls),
(186,313,o),
(204,342,o),
(245,342,cs)
);
}
);
width = 500;
},
{
anchors = (
{
name = ogonek;
pos = (483,-1);
},
{
name = top;
pos = (249,700);
}
);
layerId = "C85A4985-4A4B-40F2-9F5D-E307D783C1A5";
name = "Regular InsideLight";
shapes = (
{
closed = 1;
nodes = (
(398,346,o),
(409,310,o),
(409,278,cs),
(409,155,l),
(493,78,l),
(493,176,ls),
(493,211,o),
(482,241,o),
(461,269,cs),
(435,303,o),
(409,334,o),
(384,367,c)
);
},
{
closed = 1;
nodes = (
(186,166,ls),
(186,132,o),
(207,101,o),
(251,101,cs),
(255,101,l),
(255,126,l),
(186,283,l)
);
},
{
closed = 1;
nodes = (
(186,434,l),
(200,440,o),
(214,443,o),
(229,445,c),
(186,543,l)
);
},
{
closed = 1;
nodes = (
(401,597,o),
(409,567,o),
(409,538,cs),
(409,469,l),
(494,392,l),
(494,431,ls),
(495,466,o),
(482,495,o),
(462,524,cs),
(436,563,o),
(416,590,o),
(387,622,c)
);
}
);
width = 500;
},
{
anchors = (
{
name = ogonek;
pos = (483,-1);
},
{
name = top;
pos = (249,700);
}
);
layerId = "2AF69027-8699-4DA7-9B20-F07C10F82EEB";
name = "Regular InsideShadow";
shapes = (
{
closed = 1;
nodes = (
(409,64,o),
(308,-7,o),
(241,-7,cs),
(202,-7,o),
(169,1,o),
(140,26,c),
(161,8,o),
(204,-25,o),
(260,-56,cs),
(281,-68,o),
(301,-77,o),
(341,-77,cs),
(362,-77,o),
(411,-70,o),
(455,-30,cs),
(469,-18,o),
(493,16,o),
(493,78,c),
(409,155,l)
);
},
{
closed = 1;
nodes = (
(204,342,o),
(186,313,o),
(186,283,c),
(255,126,l),
(255,101,l),
(265,101,o),
(276,107,o),
(283,112,c),
(283,177,ls),
(283,196,o),
(293,211,o),
(306,222,c),
(306,280,ls),
(306,314,o),
(282,342,o),
(245,342,cs)
);
},
{
closed = 1;
nodes = (
(209,603,o),
(186,578,o),
(186,543,c),
(229,445,l),
(240,447,o),
(265,447,o),
(283,443,c),
(283,465,ls),
(283,481,o),
(293,496,o),
(306,500,c),
(306,540,ls),
(306,574,o),
(283,603,o),
(246,603,cs)
);
},
{
closed = 1;
nodes = (
(306,469,l),
(397,392,l),
(494,392,l),
(409,469,l)
);
}
);
width = 500;
},
{
anchors = (
{
name = ogonek;
pos = (483,-1);
},
{
name = top;
pos = (249,700);
}
);
layerId = "251EB316-0412-4A3C-A569-0EEB43C6D9CE";
name = "Regular Shadow";
shapes = (
{
closed = 1;
nodes = (
(50,407,o),
(35,366,o),
(35,324,cs),
(35,-56,ls),
(35,-147,o),
(95,-220,o),
(198,-220,cs),
(242,-220,o),
(281,-205,o),
(313,-173,cs),
(455,-30,l),
(411,-70,o),
(362,-77,o),
(341,-77,cs),
(301,-77,o),
(281,-67,o),
(260,-56,c),
(204,-25,o),
(161,8,o),
(140,26,cs),
(106,55,o),
(77,94,o),
(77,156,cs),
(77,438,l)
);
},
{
closed = 1;
nodes = (
(293,211,o),
(283,196,o),
(283,177,cs),
(283,112,l),
(305,129,o),
(306,153,o),
(306,172,cs),
(306,222,l)
);
},
{
closed = 1;
nodes = (
(293,496,o),
(283,481,o),
(283,465,cs),
(283,443,l),
(329,433,o),
(363,404,o),
(384,367,c),
(430,306,l),
(494,392,l),
(397,392,l),
(306,469,l),
(306,500,l)
);
}
);
width = 500;
}
);
unicode = 54;
}
{
glyphname = seven;
layers = (
{
anchors = (
{
name = ogonek;
pos = (503,-1);
},
{
name = top;
pos = (269,700);
}
);
layerId = "8706937B-409E-4048-AB1C-4F6C90F3053E";
name = "Regular Front";
shapes = (
{
closed = 1;
nodes = (
(87,700,l),
(87,469,l),
(192,469,l),
(192,598,l),
(362,598,l),
(169,215,l),
(169,0,l),
(280,0,l),
(280,197,l),
(484,598,l),
(484,700,l)
);
}
);
width = 548;
},
{
anchors = (
{
name = ogonek;
pos = (503,-1);
},
{
name = top;
pos = (269,700);
}
);
layerId = "C85A4985-4A4B-40F2-9F5D-E307D783C1A5";
name = "Regular InsideLight";
shapes = (
{
closed = 1;
nodes = (
(280,0,l),
(364,-70,l),
(364,119,l),
(280,197,l)
);
},
{
closed = 1;
nodes = (
(192,469,l),
(264,403,l),
(264,431,l),
(192,598,l)
);
},
{
closed = 1;
nodes = (
(484,598,l),
(583,493,l),
(583,587,l),
(484,700,l)
);
}
);
width = 548;
},
{
anchors = (
{
name = ogonek;
pos = (503,-1);
},
{
name = top;
pos = (269,700);
}
);
layerId = "2AF69027-8699-4DA7-9B20-F07C10F82EEB";
name = "Regular InsideShadow";
shapes = (
{
closed = 1;
nodes = (
(280,197,l),
(364,119,l),
(583,493,l),
(484,598,l)
);
},
{
closed = 1;
nodes = (
(169,0,l),
(256,-70,l),
(364,-70,l),
(280,0,l)
);
},
{
closed = 1;
nodes = (
(87,469,l),
(186,370,l),
(248,370,l),
(264,403,l),
(192,469,l)
);
},
{
closed = 1;
nodes = (
(264,431,l),
(264,403,l),
(276,426,l),
(276,493,l),
(192,598,l)
);
},
{
closed = 1;
nodes = (
(192,598,l),
(276,493,l),
(309,493,l),
(362,598,l)
);
}
);
width = 548;
},
{
anchors = (
{
name = ogonek;
pos = (503,-1);
},
{
name = top;
pos = (269,700);
}
);
layerId = "251EB316-0412-4A3C-A569-0EEB43C6D9CE";
name = "Regular Shadow";
shapes = (
{
closed = 1;
nodes = (
(117,-11,l),
(117,-216,l),
(219,-216,l),
(364,-70,l),
(256,-70,l),
(169,0,l),
(169,79,l)
);
},
{
closed = 1;
nodes = (
(35,474,l),
(35,243,l),
(183,243,l),
(248,370,l),
(186,370,l),
(87,469,l),
(87,526,l)
);
},
{
closed = 1;
nodes = (
(276,493,l),
(276,426,l),
(309,493,l)
);
}
);
width = 548;
}
);
unicode = 55;
}
{
glyphname = eight;
layers = (
{
anchors = (
{
name = ogonek;
pos = (483,-1);
},
{
name = top;
pos = (249,700);
}
);
layerId = "8706937B-409E-4048-AB1C-4F6C90F3053E";
name = "Regular Front";
shapes = (
{
closed = 1;
nodes = (
(148,706,o),
(83,625,o),
(83,537,cs),
(83,414,l),
(167,340,l),
(83,264,l),
(83,160,ls),
(83,114,o),
(108,59,o),
(153,25,cs),
(180,5,o),
(212,-8,o),
(251,-8,cs),
(318,-8,o),
(416,39,o),
(416,155,c),
(416,261,l),
(327,344,l),
(415,425,l),
(414,557,l),
(414,639,o),
(324,706,o),
(248,706,cs)
);
},
{
closed = 1;
nodes = (
(306,245,l),
(306,172,ls),
(306,153,o),
(305,131,o),
(283,114,c),
(276,107,o),
(265,101,o),
(255,101,cs),
(251,101,ls),
(207,101,o),
(186,132,o),
(186,166,cs),
(186,243,l),
(248,299,l)
);
},
{
closed = 1;
nodes = (
(282,602,o),
(306,574,o),
(306,540,cs),
(306,447,l),
(249,400,l),
(186,448,l),
(186,543,ls),
(186,573,o),
(204,602,o),
(245,602,cs)
);
}
);
width = 484;
},
{
anchors = (
{
name = ogonek;
pos = (483,-1);
},
{
name = top;
pos = (249,700);
}
);
layerId = "C85A4985-4A4B-40F2-9F5D-E307D783C1A5";
name = "Regular InsideLight";
shapes = (
{
closed = 1;
nodes = (
(402,617,o),
(414,588,o),
(414,557,c),
(415,425,l),
(498,348,l),
(499,436,ls),
(499,471,o),
(488,501,o),
(467,529,cs),
(438,567,o),
(411,603,o),
(382,640,c)
);
},
{
closed = 1;
nodes = (
(186,166,ls),
(186,132,o),
(207,101,o),
(251,101,cs),
(255,101,l),
(186,243,l)
);
},
{
closed = 1;
nodes = (
(416,155,l),
(499,78,l),
(499,197,l),
(416,259,l)
);
},
{
closed = 1;
nodes = (
(416,259,l),
(499,197,l),
(410,282,l),
(327,344,l)
);
},
{
closed = 1;
nodes = (
(186,447,l),
(249,400,l),
(255,405,l),
(186,543,l)
);
},
{
closed = 1;
nodes = (
(382,640,l),
(382,641,o),
(381,641,o),
(381,641,c)
);
}
);
width = 484;
},
{
anchors = (
{
name = ogonek;
pos = (483,-1);
},
{
name = top;
pos = (249,700);
}
);
layerId = "2AF69027-8699-4DA7-9B20-F07C10F82EEB";
name = "Regular InsideShadow";
shapes = (
{
closed = 1;
nodes = (
(416,39,o),
(318,-8,o),
(251,-8,cs),
(212,-8,o),
(180,5,o),
(153,25,c),
(156,22,o),
(242,-42,o),
(266,-56,cs),
(287,-67,o),
(307,-77,o),
(347,-77,cs),
(368,-77,o),
(417,-70,o),
(461,-30,cs),
(475,-18,o),
(499,16,o),
(499,78,c),
(416,155,l)
);
},
{
closed = 1;
nodes = (
(255,182,l),
(255,101,l),
(265,101,o),
(276,107,o),
(283,114,c),
(283,205,l)
);
},
{
closed = 1;
nodes = (
(186,243,l),
(255,101,l),
(255,182,l),
(306,224,l),
(306,245,l),
(248,299,l)
);
},
{
closed = 1;
nodes = (
(204,602,o),
(186,573,o),
(186,543,c),
(255,405,l),
(283,428,l),
(283,437,l),
(283,456,o),
(293,471,o),
(306,482,c),
(306,540,ls),
(306,574,o),
(282,602,o),
(245,602,cs)
);
},
{
closed = 1;
nodes = (
(327,344,l),
(410,282,l),
(498,348,l),
(415,425,l)
);
}
);
width = 484;
},
{
anchors = (
{
name = ogonek;
pos = (483,-1);
},
{
name = top;
pos = (249,700);
}
);
layerId = "251EB316-0412-4A3C-A569-0EEB43C6D9CE";
name = "Regular Shadow";
shapes = (
{
closed = 1;
nodes = (
(35,49,l),
(35,-56,ls),
(35,-147,o),
(95,-220,o),
(198,-220,cs),
(242,-220,o),
(280,-204,o),
(313,-173,cs),
(461,-30,l),
(417,-70,o),
(368,-77,o),
(347,-77,cs),
(307,-77,o),
(287,-67,o),
(266,-56,cs),
(242,-42,o),
(156,22,o),
(153,25,cs),
(126,45,o),
(105,75,o),
(93,106,c)
);
},
{
closed = 1;
nodes = (
(53,389,o),
(35,364,o),
(35,319,cs),
(35,200,l),
(83,163,l),
(83,264,l),
(167,340,l),
(83,415,l)
);
},
{
closed = 1;
nodes = (
(283,205,l),
(283,114,l),
(305,131,o),
(306,153,o),
(306,172,cs),
(306,224,l)
);
},
{
closed = 1;
nodes = (
(293,471,o),
(283,456,o),
(283,437,cs),
(283,428,l),
(306,447,l),
(306,482,l)
);
},
{
closed = 1;
nodes = (
(410,282,l),
(422,271,l),
(498,348,l)
);
}
);
width = 484;
}
);
unicode = 56;
}
{
glyphname = nine;
layers = (
{
anchors = (
{
name = ogonek;
pos = (483,-1);
},
{
name = top;
pos = (249,700);
}
);
layerId = "8706937B-409E-4048-AB1C-4F6C90F3053E";
name = "Regular Front";
shapes = (
{
closed = 1;
nodes = (
(164,706,o),
(83,629,o),
(83,538,cs),
(83,419,ls),
(83,366,o),
(107,317,o),
(147,286,cs),
(195,249,o),
(252,244,o),
(306,264,c),
(306,148,ls),
(306,118,o),
(281,101,o),
(255,101,cs),
(214,101,o),
(186,136,o),
(186,166,cs),
(186,230,l),
(83,230,l),
(83,193,o),
(82,159,o),
(86,122,cs),
(91,74,o),
(120,46,o),
(156,19,cs),
(183,-1,o),
(212,-8,o),
(248,-8,cs),
(342,-8,o),
(414,65,o),
(415,155,c),
(415,543,l),
(415,577,o),
(407,606,o),
(393,628,cs),
(361,683,o),
(298,706,o),
(251,706,cs)
);
},
{
closed = 1;
nodes = (
(282,602,o),
(306,580,o),
(306,540,cs),
(306,415,ls),
(306,394,o),
(299,375,o),
(283,365,cs),
(275,360,o),
(262,356,o),
(255,356,cs),
(252,356,o),
(248,356,o),
(245,356,cs),
(204,356,o),
(186,385,o),
(186,415,cs),
(186,543,ls),
(186,577,o),
(206,602,o),
(245,602,cs)
);
}
);
width = 500;
},
{
anchors = (
{
name = ogonek;
pos = (483,-1);
},
{
name = top;
pos = (249,700);
}
);
layerId = "C85A4985-4A4B-40F2-9F5D-E307D783C1A5";
name = "Regular InsideLight";
shapes = (
{
closed = 1;
nodes = (
(407,606,o),
(415,577,o),
(415,543,cs),
(415,155,l),
(499,78,l),
(499,436,ls),
(499,471,o),
(485,498,o),
(467,529,cs),
(445,568,o),
(422,598,o),
(393,628,c)
);
},
{
closed = 1;
nodes = (
(186,166,ls),
(186,136,o),
(214,101,o),
(255,101,c),
(255,159,l),
(186,230,l)
);
},
{
closed = 1;
nodes = (
(186,415,ls),
(186,385,o),
(204,356,o),
(245,356,cs),
(248,356,o),
(252,356,o),
(255,356,c),
(255,386,l),
(186,543,l)
);
}
);
width = 500;
},
{
anchors = (
{
name = ogonek;
pos = (483,-1);
},
{
name = top;
pos = (249,700);
}
);
layerId = "2AF69027-8699-4DA7-9B20-F07C10F82EEB";
name = "Regular InsideShadow";
shapes = (
{
closed = 1;
nodes = (
(414,65,o),
(342,-8,o),
(248,-8,cs),
(212,-8,o),
(183,-1,o),
(156,19,c),
(183,-1,o),
(242,-42,o),
(266,-56,cs),
(287,-67,o),
(307,-77,o),
(347,-77,cs),
(368,-77,o),
(417,-70,o),
(461,-30,cs),
(475,-18,o),
(499,16,o),
(499,78,c),
(415,155,l)
);
},
{
closed = 1;
nodes = (
(150,283,o),
(238,217,o),
(260,204,cs),
(275,195,o),
(287,190,o),
(306,186,c),
(306,264,l),
(252,244,o),
(195,249,o),
(147,286,c)
);
},
{
closed = 1;
nodes = (
(206,602,o),
(186,577,o),
(186,543,c),
(255,386,l),
(255,356,l),
(262,356,o),
(275,360,o),
(283,365,c),
(283,437,ls),
(283,456,o),
(293,471,o),
(306,482,c),
(306,540,ls),
(306,580,o),
(282,602,o),
(245,602,cs)
);
}
);
width = 500;
},
{
anchors = (
{
name = ogonek;
pos = (483,-1);
},
{
name = top;
pos = (249,700);
}
);
layerId = "251EB316-0412-4A3C-A569-0EEB43C6D9CE";
name = "Regular Shadow";
shapes = (
{
closed = 1;
nodes = (
(35,18,l),
(35,-56,ls),
(35,-147,o),
(95,-220,o),
(198,-220,cs),
(242,-220,o),
(280,-204,o),
(313,-173,cs),
(461,-30,l),
(417,-70,o),
(368,-77,o),
(347,-77,cs),
(307,-77,o),
(287,-67,o),
(266,-56,c),
(242,-42,o),
(183,-1,o),
(156,19,cs),
(120,46,o),
(91,74,o),
(86,122,c)
);
},
{
closed = 1;
nodes = (
(53,414,o),
(35,369,o),
(35,324,cs),
(35,208,ls),
(35,175,o),
(65,129,o),
(86,122,c),
(82,159,o),
(83,193,o),
(83,230,c),
(186,230,l),
(255,159,l),
(255,101,l),
(281,101,o),
(306,118,o),
(306,148,cs),
(306,186,l),
(287,190,o),
(275,195,o),
(260,204,cs),
(238,217,o),
(150,283,o),
(147,286,c),
(107,317,o),
(83,366,o),
(83,419,c),
(83,445,l)
);
},
{
closed = 1;
nodes = (
(293,471,o),
(283,456,o),
(283,437,cs),
(283,365,l),
(299,375,o),
(306,394,o),
(306,415,cs),
(306,482,l)
);
}
);
width = 500;
}
);
unicode = 57;
}
{
glyphname = colon;
layers = (
{
layerId = "251EB316-0412-4A3C-A569-0EEB43C6D9CE";
name = "Regular Shadow";
shapes = (
{
closed = 1;
nodes = (
(35,117,l),
(35,34,l),
(61,34,l),
(61,107,l),
(191,108,l),
(209,91,l),
(275,169,l),
(168,169,l),
(114,210,l)
);
},
{
closed = 1;
nodes = (
(35,-133,l),
(35,-216,l),
(165,-216,l),
(275,-70,l),
(168,-70,l),
(119,-37,l)
);
}
);
width = 260;
},
{
layerId = "2AF69027-8699-4DA7-9B20-F07C10F82EEB";
name = "Regular InsideShadow";
shapes = (
{
closed = 1;
nodes = (
(61,250,l),
(168,169,l),
(275,169,l),
(191,250,l)
);
},
{
closed = 1;
nodes = (
(61,0,l),
(168,-70,l),
(275,-70,l),
(191,0,l)
);
}
);
width = 260;
},
{
layerId = "C85A4985-4A4B-40F2-9F5D-E307D783C1A5";
name = "Regular InsideLight";
shapes = (
{
closed = 1;
nodes = (
(191,250,l),
(275,169,l),
(275,270,l),
(191,358,l)
);
},
{
closed = 1;
nodes = (
(191,0,l),
(275,-70,l),
(275,32,l),
(191,108,l)
);
}
);
width = 260;
},
{
layerId = "8706937B-409E-4048-AB1C-4F6C90F3053E";
name = "Regular Front";
shapes = (
{
closed = 1;
nodes = (
(61,357,l),
(61,250,l),
(191,250,l),
(191,358,l)
);
},
{
closed = 1;
nodes = (
(61,107,l),
(61,0,l),
(191,0,l),
(191,108,l)
);
}
);
width = 260;
}
);
unicode = 58;
}
{
glyphname = semicolon;
layers = (
{
layerId = "251EB316-0412-4A3C-A569-0EEB43C6D9CE";
name = "Regular Shadow";
shapes = (
{
closed = 1;
nodes = (
(35,117,l),
(35,34,l),
(61,34,l),
(61,107,l),
(191,107,l),
(209,91,l),
(275,179,l),
(168,179,l),
(118,212,l)
);
},
{
closed = 1;
nodes = (
(35,-234,l),
(35,-317,l),
(165,-317,l),
(275,-172,l),
(168,-172,l),
(118,-139,l)
);
}
);
width = 260;
},
{
layerId = "2AF69027-8699-4DA7-9B20-F07C10F82EEB";
name = "Regular InsideShadow";
shapes = (
{
closed = 1;
nodes = (
(61,250,l),
(168,179,l),
(275,179,l),
(191,250,l)
);
},
{
closed = 1;
nodes = (
(61,-101,l),
(168,-172,l),
(275,-172,l),
(191,-101,l)
);
}
);
width = 260;
},
{
layerId = "C85A4985-4A4B-40F2-9F5D-E307D783C1A5";
name = "Regular InsideLight";
shapes = (
{
closed = 1;
nodes = (
(191,250,l),
(275,179,l),
(275,280,l),
(191,357,l)
);
},
{
closed = 1;
nodes = (
(191,-101,l),
(275,-172,l),
(275,29,l),
(191,107,l)
);
}
);
width = 260;
},
{
layerId = "8706937B-409E-4048-AB1C-4F6C90F3053E";
name = "Regular Front";
shapes = (
{
closed = 1;
nodes = (
(61,357,l),
(61,250,l),
(191,250,l),
(191,357,l)
);
},
{
closed = 1;
nodes = (
(61,107,l),
(61,-101,l),
(191,-101,l),
(191,107,l)
);
}
);
width = 260;
}
);
unicode = 59;
}
{
glyphname = equal;
layers = (
{
layerId = "8706937B-409E-4048-AB1C-4F6C90F3053E";
name = "Regular Front";
shapes = (
{
closed = 1;
nodes = (
(110,493,l),
(110,387,l),
(331,387,l),
(331,493,l)
);
},
{
closed = 1;
nodes = (
(110,320,l),
(110,214,l),
(331,214,l),
(331,320,l)
);
}
);
width = 406;
},
{
layerId = "C85A4985-4A4B-40F2-9F5D-E307D783C1A5";
name = "Regular InsideLight";
shapes = (
{
closed = 1;
nodes = (
(331,214,l),
(421,143,l),
(421,244,l),
(331,320,l)
);
},
{
closed = 1;
nodes = (
(331,387,l),
(421,295,l),
(421,396,l),
(331,493,l)
);
}
);
width = 406;
},
{
layerId = "2AF69027-8699-4DA7-9B20-F07C10F82EEB";
name = "Regular InsideShadow";
shapes = (
{
closed = 1;
nodes = (
(110,214,l),
(209,143,l),
(421,143,l),
(331,214,l)
);
},
{
closed = 1;
nodes = (
(110,387,l),
(181,320,l),
(331,320,l),
(360,295,l),
(421,295,l),
(331,387,l)
);
}
);
width = 406;
},
{
layerId = "251EB316-0412-4A3C-A569-0EEB43C6D9CE";
name = "Regular Shadow";
shapes = (
{
closed = 1;
nodes = (
(209,143,l),
(110,214,l),
(110,305,l),
(60,257,l),
(60,154,l),
(113,154,l),
(60,105,l),
(60,0,l),
(276,0,l),
(421,143,l)
);
},
{
closed = 1;
nodes = (
(393,267,l),
(421,295,l),
(360,295,l)
);
},
{
closed = 1;
nodes = (
(125,320,l),
(181,320,l),
(153,347,l)
);
}
);
width = 406;
}
);
unicode = 61;
}
{
glyphname = question;
layers = (
{
anchors = (
{
name = ogonek;
pos = (483,-1);
},
{
name = top;
pos = (249,700);
}
);
layerId = "251EB316-0412-4A3C-A569-0EEB43C6D9CE";
name = "Regular Shadow";
shapes = (
{
closed = 1;
nodes = (
(128,205,l),
(128,-24,l),
(204,-24,l),
(171,0,l),
(171,107,l),
(281,107,l),
(326,65,l),
(368,121,l),
(280,121,l),
(173,192,l),
(173,258,l)
);
},
{
closed = 1;
nodes = (
(125,-134,l),
(125,-216,l),
(255,-216,l),
(368,-70,l),
(268,-70,l),
(215,-31,l)
);
},
{
closed = 1;
nodes = (
(63,429,o),
(37,375,o),
(37,321,cs),
(37,267,l),
(173,267,l),
(173,298,l),
(173,332,o),
(183,360,o),
(209,388,c),
(178,388,l),
(105,460,l)
);
},
{
closed = 1;
nodes = (
(283,487,o),
(278,464,o),
(278,430,c),
(291,438,o),
(305,458,o),
(305,479,cs),
(305,501,l)
);
}
);
width = 480;
},
{
anchors = (
{
name = ogonek;
pos = (483,-1);
},
{
name = top;
pos = (249,700);
}
);
layerId = "2AF69027-8699-4DA7-9B20-F07C10F82EEB";
name = "Regular InsideShadow";
shapes = (
{
closed = 1;
nodes = (
(415,388,o),
(360,341,o),
(303,321,c),
(387,242,l),
(444,262,o),
(498,303,o),
(498,397,c),
(414,474,l)
);
},
{
closed = 1;
nodes = (
(171,0,l),
(268,-70,l),
(368,-70,l),
(281,0,l)
);
},
{
closed = 1;
nodes = (
(173,192,l),
(280,121,l),
(368,121,l),
(284,192,l)
);
},
{
closed = 1;
nodes = (
(82,483,l),
(178,388,l),
(209,388,l),
(220,398,o),
(234,408,o),
(246,413,c),
(185,483,l)
);
},
{
closed = 1;
nodes = (
(203,602,o),
(185,573,o),
(185,543,c),
(246,413,l),
(259,419,o),
(268,424,o),
(278,430,c),
(278,464,o),
(283,487,o),
(305,501,c),
(305,540,ls),
(305,574,o),
(281,602,o),
(244,602,cs)
);
}
);
width = 480;
},
{
anchors = (
{
name = ogonek;
pos = (483,-1);
},
{
name = top;
pos = (249,700);
}
);
layerId = "C85A4985-4A4B-40F2-9F5D-E307D783C1A5";
name = "Regular InsideLight";
shapes = (
{
closed = 1;
nodes = (
(401,617,o),
(414,588,o),
(414,557,c),
(414,474,l),
(498,397,l),
(498,436,ls),
(498,471,o),
(487,501,o),
(466,529,cs),
(437,566,o),
(410,603,o),
(381,640,c)
);
},
{
closed = 1;
nodes = (
(281,0,l),
(368,-70,l),
(368,29,l),
(281,107,l)
);
},
{
closed = 1;
nodes = (
(289,316,o),
(284,307,o),
(284,298,cs),
(284,192,l),
(368,121,l),
(368,219,ls),
(368,228,o),
(373,237,o),
(387,242,c),
(303,321,l)
);
},
{
closed = 1;
nodes = (
(185,483,l),
(246,413,l),
(185,543,l)
);
}
);
width = 480;
},
{
anchors = (
{
name = ogonek;
pos = (483,-1);
},
{
name = top;
pos = (249,700);
}
);
layerId = "8706937B-409E-4048-AB1C-4F6C90F3053E";
name = "Regular Front";
shapes = (
{
closed = 1;
nodes = (
(147,706,o),
(82,625,o),
(82,537,cs),
(82,483,l),
(185,483,l),
(185,543,ls),
(185,573,o),
(203,602,o),
(244,602,cs),
(281,602,o),
(305,574,o),
(305,540,cs),
(305,479,ls),
(305,458,o),
(291,438,o),
(278,430,cs),
(268,424,o),
(259,419,o),
(246,413,cs),
(234,408,o),
(220,399,o),
(209,388,cs),
(183,360,o),
(173,332,o),
(173,298,c),
(173,192,l),
(284,192,l),
(284,298,ls),
(284,307,o),
(289,316,o),
(303,321,cs),
(360,341,o),
(415,388,o),
(414,475,cs),
(414,557,ls),
(413,639,o),
(323,706,o),
(247,706,cs)
);
},
{
closed = 1;
nodes = (
(171,107,l),
(171,0,l),
(281,0,l),
(281,107,l)
);
}
);
width = 480;
}
);
unicode = 63;
}
{
glyphname = A;
layers = (
{
anchors = (
{
name = ogonek;
pos = (423,-1);
},
{
name = top;
pos = (279,700);
}
);
layerId = "8706937B-409E-4048-AB1C-4F6C90F3053E";
name = "Regular Front";
shapes = (
{
closed = 1;
nodes = (
(177,710,o),
(110,627,o),
(110,538,c),
(110,437,l),
(110,107,l),
(44,107,l),
(44,0,l),
(217,0,l),
(217,266,l),
(345,266,l),
(345,0,l),
(513,0,l),
(513,107,l),
(453,107,l),
(453,558,ls),
(453,589,o),
(440,618,o),
(419,643,cs),
(384,683,o),
(328,710,o),
(279,710,cs)
);
},
{
closed = 1;
nodes = (
(321,604,o),
(345,575,o),
(345,541,c),
(345,373,l),
(213,373,l),
(213,542,l),
(213,575,o),
(240,604,o),
(282,604,cs)
);
}
);
width = 573;
},
{
anchors = (
{
name = ogonek;
pos = (423,-1);
},
{
name = top;
pos = (279,700);
}
);
layerId = "C85A4985-4A4B-40F2-9F5D-E307D783C1A5";
name = "Regular InsideLight";
shapes = (
{
closed = 1;
nodes = (
(440,618,o),
(453,589,o),
(453,558,cs),
(453,107,l),
(513,107,l),
(513,0,l),
(598,-70,l),
(598,35,l),
(539,89,l),
(538,433,ls),
(538,470,o),
(529,503,o),
(511,534,cs),
(484,581,o),
(463,604,o),
(419,643,c)
);
},
{
closed = 1;
nodes = (
(217,0,l),
(285,-50,l),
(285,113,l),
(217,266,l)
);
},
{
closed = 1;
nodes = (
(213,373,l),
(285,373,l),
(285,408,l),
(213,542,l)
);
}
);
width = 573;
},
{
anchors = (
{
name = ogonek;
pos = (423,-1);
},
{
name = top;
pos = (279,700);
}
);
layerId = "2AF69027-8699-4DA7-9B20-F07C10F82EEB";
name = "Regular InsideShadow";
shapes = (
{
closed = 1;
nodes = (
(217,266,l),
(285,113,l),
(285,-50,l),
(217,0,l),
(44,0,l),
(143,-70,l),
(313,-70,l),
(313,176,l),
(345,176,l),
(345,266,l)
);
},
{
closed = 1;
nodes = (
(345,0,l),
(432,-70,l),
(598,-70,l),
(513,0,l)
);
},
{
closed = 1;
nodes = (
(240,604,o),
(213,575,o),
(213,542,c),
(285,408,l),
(285,373,l),
(313,373,l),
(313,437,ls),
(313,455,o),
(325,475,o),
(345,481,c),
(345,541,ls),
(345,575,o),
(321,604,o),
(282,604,cs)
);
}
);
width = 573;
},
{
anchors = (
{
name = ogonek;
pos = (423,-1);
},
{
name = top;
pos = (279,700);
}
);
layerId = "251EB316-0412-4A3C-A569-0EEB43C6D9CE";
name = "Regular Shadow";
shapes = (
{
closed = 1;
nodes = (
(313,176,l),
(313,-70,l),
(143,-70,l),
(57,-9,l),
(57,-39,l),
(5,-100,l),
(5,-216,l),
(159,-216,l),
(288,-93,l),
(288,-216,l),
(449,-216,l),
(598,-70,l),
(432,-70,l),
(345,0,l),
(345,176,l)
);
},
{
closed = 1;
nodes = (
(89,417,o),
(56,364,o),
(56,320,cs),
(56,107,l),
(110,107,l),
(110,437,l)
);
},
{
closed = 1;
nodes = (
(325,475,o),
(313,455,o),
(313,437,cs),
(313,373,l),
(345,373,l),
(345,481,l)
);
}
);
width = 573;
}
);
unicode = 65;
}
{
glyphname = B;
layers = (
{
anchors = (
{
name = ogonek;
pos = (513,-1);
},
{
name = top;
pos = (279,700);
}
);
layerId = "8706937B-409E-4048-AB1C-4F6C90F3053E";
name = "Regular Front";
shapes = (
{
closed = 1;
nodes = (
(79,700,l),
(79,598,l),
(130,598,l),
(130,109,l),
(45,109,l),
(45,0,l),
(300,0,ls),
(341,0,o),
(394,18,o),
(429,57,cs),
(451,82,o),
(465,118,o),
(465,162,c),
(465,257,l),
(465,284,o),
(459,323,o),
(437,344,cs),
(424,356,o),
(403,367,o),
(378,373,c),
(431,378,o),
(463,414,o),
(463,461,c),
(463,552,l),
(463,582,o),
(450,610,o),
(431,634,cs),
(398,674,o),
(345,700,o),
(297,700,cs)
);
},
{
closed = 1;
nodes = (
(331,307,o),
(355,289,o),
(355,248,c),
(355,173,ls),
(355,154,o),
(352,128,o),
(332,115,cs),
(326,111,o),
(312,107,o),
(294,107,cs),
(235,107,l),
(235,307,l),
(294,307,l)
);
},
{
closed = 1;
nodes = (
(330,598,o),
(354,569,o),
(354,535,cs),
(354,467,l),
(354,448,o),
(350,428,o),
(331,415,cs),
(322,409,o),
(308,404,o),
(293,404,c),
(234,404,l),
(234,598,l),
(293,598,ls)
);
}
);
width = 523;
},
{
anchors = (
{
name = ogonek;
pos = (513,-1);
},
{
name = top;
pos = (279,700);
}
);
layerId = "C85A4985-4A4B-40F2-9F5D-E307D783C1A5";
name = "Regular InsideLight";
shapes = (
{
closed = 1;
nodes = (
(235,107,l),
(268,107,l),
(268,233,l),
(235,307,l)
);
},
{
closed = 1;
nodes = (
(234,404,l),
(268,404,l),
(268,519,l),
(234,598,l)
);
},
{
closed = 1;
nodes = (
(487,568,o),
(464,599,o),
(431,634,c),
(450,610,o),
(463,582,o),
(463,551,cs),
(463,461,l),
(478,448,o),
(493,433,o),
(510,415,cs),
(529,395,o),
(536,386,o),
(548,365,c),
(548,430,ls),
(548,465,o),
(534,494,o),
(516,523,cs)
);
},
{
closed = 1;
nodes = (
(437,344,l),
(459,323,o),
(465,284,o),
(465,257,cs),
(465,162,ls),
(465,118,o),
(451,82,o),
(429,57,c),
(444,44,o),
(458,32,o),
(473,17,cs),
(486,4,o),
(498,-10,o),
(510,-23,c),
(534,-1,o),
(548,45,o),
(548,85,cs),
(548,159,l),
(547,211,o),
(539,249,o),
(501,284,cs)
);
}
);
width = 523;
},
{
anchors = (
{
name = ogonek;
pos = (513,-1);
},
{
name = top;
pos = (279,700);
}
);
layerId = "2AF69027-8699-4DA7-9B20-F07C10F82EEB";
name = "Regular InsideShadow";
shapes = (
{
closed = 1;
nodes = (
(394,18,o),
(341,0,o),
(300,0,cs),
(45,0,l),
(152,-70,l),
(396,-70,ls),
(417,-70,o),
(466,-63,o),
(510,-23,c),
(498,-10,o),
(486,4,o),
(473,17,cs),
(458,32,o),
(444,44,o),
(429,57,c)
);
},
{
closed = 1;
nodes = (
(235,307,l),
(268,233,l),
(268,107,l),
(294,107,ls),
(312,107,o),
(326,111,o),
(332,115,c),
(332,216,l),
(355,216,l),
(355,248,ls),
(355,289,o),
(331,307,o),
(294,307,cs)
);
},
{
closed = 1;
nodes = (
(79,598,l),
(130,530,l),
(130,598,l)
);
},
{
closed = 1;
nodes = (
(234,598,l),
(268,519,l),
(268,404,l),
(293,404,ls),
(308,404,o),
(322,409,o),
(331,415,c),
(331,493,l),
(354,493,l),
(354,535,ls),
(354,569,o),
(330,598,o),
(293,598,cs)
);
},
{
closed = 1;
nodes = (
(463,414,o),
(431,378,o),
(378,373,c),
(403,367,o),
(424,356,o),
(437,344,cs),
(501,284,l),
(522,298,o),
(548,340,o),
(548,365,c),
(536,386,o),
(529,395,o),
(510,415,cs),
(493,433,o),
(478,448,o),
(463,461,c)
);
}
);
width = 523;
},
{
anchors = (
{
name = ogonek;
pos = (513,-1);
},
{
name = top;
pos = (279,700);
}
);
layerId = "251EB316-0412-4A3C-A569-0EEB43C6D9CE";
name = "Regular Shadow";
shapes = (
{
closed = 1;
nodes = (
(72,-83,l),
(19,-134,l),
(19,-216,l),
(228,-216,l),
(272,-216,o),
(326,-194,o),
(362,-166,cs),
(419,-122,o),
(490,-51,o),
(510,-23,c),
(466,-63,o),
(417,-70,o),
(396,-70,c),
(152,-70,l),
(72,-18,l)
);
},
{
closed = 1;
nodes = (
(19,423,l),
(19,321,l),
(72,321,l),
(72,109,l),
(130,109,l),
(130,520,l)
);
},
{
closed = 1;
nodes = (
(332,216,l),
(332,115,l),
(352,128,o),
(355,154,o),
(355,173,cs),
(355,216,l)
);
},
{
closed = 1;
nodes = (
(331,493,l),
(331,415,l),
(350,428,o),
(354,448,o),
(354,467,cs),
(354,493,l)
);
}
);
width = 523;
}
);
unicode = 66;
}
{
glyphname = D;
layers = (
{
anchors = (
{
name = ogonek;
pos = (503,-1);
},
{
name = top;
pos = (269,700);
}
);
layerId = "8706937B-409E-4048-AB1C-4F6C90F3053E";
name = "Regular Front";
shapes = (
{
closed = 1;
nodes = (
(79,700,l),
(79,598,l),
(130,598,l),
(130,107,l),
(45,107,l),
(45,0,l),
(300,0,ls),
(367,0,o),
(465,46,o),
(465,162,c),
(463,551,l),
(463,633,o),
(373,700,o),
(297,700,cs)
);
},
{
closed = 1;
nodes = (
(331,598,o),
(355,570,o),
(355,536,cs),
(355,173,ls),
(355,154,o),
(354,132,o),
(332,115,c),
(325,111,o),
(314,107,o),
(304,107,c),
(235,107,l),
(235,598,l),
(294,598,l)
);
}
);
width = 543;
},
{
anchors = (
{
name = ogonek;
pos = (503,-1);
},
{
name = top;
pos = (269,700);
}
);
layerId = "C85A4985-4A4B-40F2-9F5D-E307D783C1A5";
name = "Regular InsideLight";
shapes = (
{
closed = 1;
nodes = (
(451,611,o),
(463,582,o),
(463,551,c),
(465,162,l),
(548,85,l),
(548,430,ls),
(548,465,o),
(537,495,o),
(516,523,cs),
(487,561,o),
(459,597,o),
(431,634,c)
);
},
{
closed = 1;
nodes = (
(235,107,l),
(304,107,l),
(304,372,ls),
(304,437,o),
(289,483,o),
(273,517,cs),
(235,598,l)
);
}
);
width = 543;
},
{
anchors = (
{
name = ogonek;
pos = (503,-1);
},
{
name = top;
pos = (269,700);
}
);
layerId = "2AF69027-8699-4DA7-9B20-F07C10F82EEB";
name = "Regular InsideShadow";
shapes = (
{
closed = 1;
nodes = (
(465,115,o),
(449,79,o),
(425,54,cs),
(390,16,o),
(340,0,o),
(300,0,cs),
(273,0,l),
(364,-70,l),
(396,-70,ls),
(417,-70,o),
(466,-63,o),
(510,-23,cs),
(524,-11,o),
(548,23,o),
(548,85,c),
(465,162,l)
);
},
{
closed = 1;
nodes = (
(45,0,l),
(152,-70,l),
(364,-70,l),
(273,0,l)
);
},
{
closed = 1;
nodes = (
(235,598,l),
(273,517,ls),
(289,483,o),
(304,437,o),
(304,372,cs),
(304,107,l),
(314,107,o),
(325,111,o),
(332,115,c),
(332,493,l),
(355,493,l),
(355,536,ls),
(355,570,o),
(331,598,o),
(294,598,cs)
);
},
{
closed = 1;
nodes = (
(79,598,l),
(130,526,l),
(130,598,l)
);
}
);
width = 543;
},
{
anchors = (
{
name = ogonek;
pos = (503,-1);
},
{
name = top;
pos = (269,700);
}
);
layerId = "251EB316-0412-4A3C-A569-0EEB43C6D9CE";
name = "Regular Shadow";
shapes = (
{
closed = 1;
nodes = (
(72,-83,l),
(19,-134,l),
(19,-216,l),
(247,-216,l),
(291,-216,o),
(329,-197,o),
(362,-166,cs),
(510,-23,l),
(466,-63,o),
(417,-70,o),
(396,-70,c),
(364,-70,l),
(152,-70,l),
(72,-18,l)
);
},
{
closed = 1;
nodes = (
(19,423,l),
(19,321,l),
(72,321,l),
(72,107,l),
(130,107,l),
(130,526,l)
);
},
{
closed = 1;
nodes = (
(332,493,l),
(332,115,l),
(354,132,o),
(355,154,o),
(355,173,cs),
(355,493,l)
);
}
);
width = 543;
}
);
unicode = 68;
}
{
glyphname = E;
layers = (
{
anchors = (
{
name = ogonek;
pos = (303,-1);
},
{
name = top;
pos = (269,700);
}
);
layerId = "8706937B-409E-4048-AB1C-4F6C90F3053E";
name = "Regular Front";
shapes = (
{
closed = 1;
nodes = (
(79,700,l),
(79,598,l),
(130,598,l),
(130,107,l),
(45,107,l),
(45,0,l),
(435,0,l),
(435,107,l),
(235,107,l),
(235,299,l),
(379,299,l),
(379,405,l),
(235,405,l),
(235,598,l),
(430,598,l),
(430,700,l)
);
}
);
width = 501;
},
{
anchors = (
{
name = ogonek;
pos = (303,-1);
},
{
name = top;
pos = (269,700);
}
);
layerId = "C85A4985-4A4B-40F2-9F5D-E307D783C1A5";
name = "Regular InsideLight";
shapes = (
{
closed = 1;
nodes = (
(379,299,l),
(469,208,l),
(469,309,l),
(379,405,l)
);
},
{
closed = 1;
nodes = (
(235,107,l),
(325,107,l),
(235,299,l)
);
},
{
closed = 1;
nodes = (
(435,0,l),
(526,-70,l),
(526,28,l),
(435,107,l)
);
},
{
closed = 1;
nodes = (
(235,405,l),
(325,405,l),
(235,598,l)
);
},
{
closed = 1;
nodes = (
(430,598,l),
(516,493,l),
(516,588,l),
(430,700,l)
);
}
);
width = 501;
},
{
anchors = (
{
name = ogonek;
pos = (303,-1);
},
{
name = top;
pos = (269,700);
}
);
layerId = "2AF69027-8699-4DA7-9B20-F07C10F82EEB";
name = "Regular InsideShadow";
shapes = (
{
closed = 1;
nodes = (
(45,0,l),
(152,-70,l),
(526,-70,l),
(435,0,l)
);
},
{
closed = 1;
nodes = (
(325,107,l),
(334,107,l),
(334,208,l),
(235,299,l)
);
},
{
closed = 1;
nodes = (
(235,299,l),
(334,208,l),
(469,208,l),
(379,299,l)
);
},
{
closed = 1;
nodes = (
(79,598,l),
(130,532,l),
(130,598,l)
);
},
{
closed = 1;
nodes = (
(325,405,l),
(334,405,l),
(334,493,l),
(235,598,l)
);
},
{
closed = 1;
nodes = (
(235,598,l),
(334,493,l),
(516,493,l),
(430,598,l)
);
}
);
width = 501;
},
{
anchors = (
{
name = ogonek;
pos = (303,-1);
},
{
name = top;
pos = (269,700);
}
);
layerId = "251EB316-0412-4A3C-A569-0EEB43C6D9CE";
name = "Regular Shadow";
shapes = (
{
closed = 1;
nodes = (
(72,-49,l),
(19,-100,l),
(19,-216,l),
(376,-216,l),
(526,-70,l),
(152,-70,l),
(72,-18,l)
);
},
{
closed = 1;
nodes = (
(19,423,l),
(19,321,l),
(72,321,l),
(72,107,l),
(130,107,l),
(130,520,l)
);
},
{
closed = 1;
nodes = (
(334,208,l),
(334,107,l),
(362,107,l),
(469,208,l)
);
},
{
closed = 1;
nodes = (
(334,493,l),
(334,405,l),
(379,405,l),
(394,389,l),
(516,493,l)
);
}
);
width = 501;
}
);
unicode = 69;
}
{
glyphname = F;
layers = (
{
anchors = (
{
name = ogonek;
pos = (513,-1);
},
{
name = top;
pos = (279,700);
}
);
layerId = "8706937B-409E-4048-AB1C-4F6C90F3053E";
name = "Regular Front";
shapes = (
{
closed = 1;
nodes = (
(79,700,l),
(79,598,l),
(130,598,l),
(130,107,l),
(45,107,l),
(45,0,l),
(313,0,l),
(313,108,l),
(235,108,l),
(235,299,l),
(379,299,l),
(379,405,l),
(235,405,l),
(235,598,l),
(354,598,l),
(354,468,l),
(460,468,l),
(460,700,l)
);
}
);
width = 523;
},
{
anchors = (
{
name = ogonek;
pos = (513,-1);
},
{
name = top;
pos = (279,700);
}
);
layerId = "C85A4985-4A4B-40F2-9F5D-E307D783C1A5";
name = "Regular InsideLight";
shapes = (
{
closed = 1;
nodes = (
(235,108,l),
(313,108,l),
(313,0,l),
(404,-70,l),
(404,28,l),
(334,89,l),
(235,299,l)
);
},
{
closed = 1;
nodes = (
(379,299,l),
(469,208,l),
(469,309,l),
(379,405,l)
);
},
{
closed = 1;
nodes = (
(235,405,l),
(325,405,l),
(235,598,l)
);
},
{
closed = 1;
nodes = (
(460,468,l),
(546,371,l),
(546,587,l),
(460,700,l)
);
}
);
width = 523;
},
{
anchors = (
{
name = ogonek;
pos = (513,-1);
},
{
name = top;
pos = (279,700);
}
);
layerId = "2AF69027-8699-4DA7-9B20-F07C10F82EEB";
name = "Regular InsideShadow";
shapes = (
{
closed = 1;
nodes = (
(45,0,l),
(152,-70,l),
(404,-70,l),
(313,0,l)
);
},
{
closed = 1;
nodes = (
(334,89,l),
(334,208,l),
(235,299,l)
);
},
{
closed = 1;
nodes = (
(235,299,l),
(334,208,l),
(469,208,l),
(379,299,l)
);
},
{
closed = 1;
nodes = (
(79,598,l),
(130,526,l),
(130,598,l)
);
},
{
closed = 1;
nodes = (
(325,405,l),
(334,405,l),
(334,493,l),
(235,598,l)
);
},
{
closed = 1;
nodes = (
(235,598,l),
(334,493,l),
(354,493,l),
(354,598,l)
);
},
{
closed = 1;
nodes = (
(354,468,l),
(449,371,l),
(546,371,l),
(460,468,l)
);
}
);
width = 523;
},
{
anchors = (
{
name = ogonek;
pos = (513,-1);
},
{
name = top;
pos = (279,700);
}
);
layerId = "251EB316-0412-4A3C-A569-0EEB43C6D9CE";
name = "Regular Shadow";
shapes = (
{
closed = 1;
nodes = (
(72,-83,l),
(19,-134,l),
(19,-216,l),
(254,-216,l),
(404,-70,l),
(152,-70,l),
(72,-18,l)
);
},
{
closed = 1;
nodes = (
(19,423,l),
(19,321,l),
(72,321,l),
(72,107,l),
(130,107,l),
(130,526,l)
);
},
{
closed = 1;
nodes = (
(334,208,l),
(334,89,l),
(469,208,l)
);
},
{
closed = 1;
nodes = (
(334,493,l),
(334,405,l),
(379,405,l),
(469,309,l),
(469,279,l),
(546,371,l),
(449,371,l),
(354,468,l),
(354,493,l)
);
}
);
width = 523;
}
);
unicode = 70;
}
{
glyphname = G;
layers = (
{
anchors = (
{
name = bottom;
pos = (251,0);
},
{
name = ogonek;
pos = (483,-1);
},
{
name = top;
pos = (249,700);
}
);
layerId = "8706937B-409E-4048-AB1C-4F6C90F3053E";
name = "Regular Front";
shapes = (
{
closed = 1;
nodes = (
(148,706,o),
(83,625,o),
(83,537,cs),
(83,160,ls),
(83,114,o),
(108,59,o),
(153,25,cs),
(180,5,o),
(210,-8,o),
(251,-8,cs),
(290,-8,o),
(339,8,o),
(373,43,cs),
(398,69,o),
(416,106,o),
(416,155,cs),
(416,242,l),
(470,242,l),
(470,348,l),
(248,348,l),
(248,242,l),
(306,242,l),
(306,172,ls),
(306,153,o),
(298,131,o),
(283,114,c),
(276,107,o),
(265,101,o),
(255,101,c),
(207,101,o),
(186,132,o),
(186,166,cs),
(186,543,ls),
(186,573,o),
(204,602,o),
(245,602,cs),
(282,602,o),
(306,574,o),
(306,540,cs),
(306,463,l),
(414,463,l),
(414,557,l),
(414,588,o),
(401,615,o),
(382,639,cs),
(349,679,o),
(296,706,o),
(248,706,cs)
);
}
);
width = 502;
},
{
anchors = (
{
name = bottom;
pos = (251,0);
},
{
name = ogonek;
pos = (483,-1);
},
{
name = top;
pos = (249,700);
}
);
layerId = "C85A4985-4A4B-40F2-9F5D-E307D783C1A5";
name = "Regular InsideLight";
shapes = (
{
closed = 1;
nodes = (
(416,155,ls),
(416,106,o),
(398,69,o),
(373,43,c),
(387,25,o),
(401,13,o),
(418,-1,cs),
(434,-14,o),
(448,-22,o),
(461,-30,c),
(471,-20,o),
(488,9,o),
(495,38,c),
(495,68,o),
(490,85,o),
(482,102,cs),
(416,242,l)
);
},
{
closed = 1;
nodes = (
(186,166,ls),
(186,132,o),
(207,101,o),
(255,101,c),
(255,235,l),
(248,242,l),
(248,348,l),
(255,348,l),
(255,386,l),
(186,543,l)
);
},
{
closed = 1;
nodes = (
(470,242,l),
(547,146,l),
(547,245,l),
(470,348,l)
);
},
{
closed = 1;
nodes = (
(401,615,o),
(414,588,o),
(414,557,cs),
(414,463,l),
(499,362,l),
(499,436,ls),
(499,471,o),
(487,500,o),
(467,529,cs),
(420,598,o),
(411,607,o),
(382,639,c)
);
}
);
width = 502;
},
{
anchors = (
{
name = bottom;
pos = (251,0);
},
{
name = ogonek;
pos = (483,-1);
},
{
name = top;
pos = (249,700);
}
);
layerId = "2AF69027-8699-4DA7-9B20-F07C10F82EEB";
name = "Regular InsideShadow";
shapes = (
{
closed = 1;
nodes = (
(339,8,o),
(290,-8,o),
(251,-8,cs),
(210,-8,o),
(180,5,o),
(153,25,c),
(266,-56,l),
(285,-71,o),
(307,-77,o),
(347,-77,cs),
(368,-77,o),
(417,-75,o),
(461,-30,c),
(448,-22,o),
(434,-14,o),
(418,-1,cs),
(401,13,o),
(387,25,o),
(373,43,c)
);
},
{
closed = 1;
nodes = (
(255,101,l),
(265,101,o),
(276,107,o),
(283,114,c),
(283,207,l),
(255,235,l)
);
},
{
closed = 1;
nodes = (
(248,242,l),
(306,184,l),
(306,242,l)
);
},
{
closed = 1;
nodes = (
(416,242,l),
(482,102,ls),
(490,85,o),
(495,68,o),
(495,38,c),
(498,51,o),
(499,59,o),
(499,71,c),
(499,146,l),
(547,146,l),
(470,242,l)
);
},
{
closed = 1;
nodes = (
(204,602,o),
(186,573,o),
(186,543,c),
(255,386,l),
(255,348,l),
(283,348,l),
(283,437,ls),
(283,456,o),
(293,471,o),
(306,482,c),
(306,540,ls),
(306,574,o),
(282,602,o),
(245,602,cs)
);
},
{
closed = 1;
nodes = (
(306,463,l),
(397,362,l),
(499,362,l),
(414,463,l)
);
}
);
width = 502;
},
{
anchors = (
{
name = bottom;
pos = (251,0);
},
{
name = ogonek;
pos = (483,-1);
},
{
name = top;
pos = (249,700);
}
);
layerId = "251EB316-0412-4A3C-A569-0EEB43C6D9CE";
name = "Regular Shadow";
shapes = (
{
closed = 1;
nodes = (
(51,402,o),
(35,364,o),
(35,319,cs),
(35,-56,ls),
(35,-147,o),
(95,-220,o),
(198,-220,cs),
(242,-220,o),
(280,-204,o),
(313,-173,cs),
(461,-30,l),
(417,-75,o),
(368,-77,o),
(347,-77,cs),
(307,-77,o),
(285,-71,o),
(266,-56,c),
(153,25,l),
(108,59,o),
(83,114,o),
(83,160,c),
(83,434,l)
);
},
{
closed = 1;
nodes = (
(283,114,l),
(298,131,o),
(306,153,o),
(306,172,c),
(306,184,l),
(283,207,l)
);
},
{
closed = 1;
nodes = (
(293,471,o),
(283,456,o),
(283,437,c),
(283,348,l),
(470,348,l),
(479,336,l),
(499,362,l),
(397,362,l),
(306,463,l),
(306,482,l)
);
}
);
width = 502;
}
);
unicode = 71;
}
{
glyphname = H;
layers = (
{
anchors = (
{
name = ogonek;
pos = (533,-1);
},
{
name = top;
pos = (299,700);
}
);
layerId = "8706937B-409E-4048-AB1C-4F6C90F3053E";
name = "Regular Front";
shapes = (
{
closed = 1;
nodes = (
(64,701,l),
(64,598,l),
(130,598,l),
(130,107,l),
(62,107,l),
(62,0,l),
(234,0,l),
(234,299,l),
(364,299,l),
(364,0,l),
(534,0,l),
(534,107,l),
(470,107,l),
(470,598,l),
(536,598,l),
(536,700,l),
(364,700,l),
(364,406,l),
(234,406,l),
(234,701,l)
);
}
);
width = 600;
},
{
anchors = (
{
name = ogonek;
pos = (533,-1);
},
{
name = top;
pos = (299,700);
}
);
layerId = "C85A4985-4A4B-40F2-9F5D-E307D783C1A5";
name = "Regular InsideLight";
shapes = (
{
closed = 1;
nodes = (
(470,107,l),
(534,107,l),
(555,88,l),
(555,426,l),
(470,598,l)
);
},
{
closed = 1;
nodes = (
(234,0,l),
(302,-51,l),
(302,148,l),
(234,299,l)
);
},
{
closed = 1;
nodes = (
(534,0,l),
(618,-70,l),
(618,29,l),
(534,107,l)
);
},
{
closed = 1;
nodes = (
(234,406,l),
(302,406,l),
(302,537,l),
(331,503,l),
(331,587,l),
(234,700,l)
);
},
{
closed = 1;
nodes = (
(536,598,l),
(635,493,l),
(635,587,l),
(536,700,l)
);
}
);
width = 600;
},
{
anchors = (
{
name = ogonek;
pos = (533,-1);
},
{
name = top;
pos = (299,700);
}
);
layerId = "2AF69027-8699-4DA7-9B20-F07C10F82EEB";
name = "Regular InsideShadow";
shapes = (
{
closed = 1;
nodes = (
(302,148,l),
(302,-50,l),
(331,-70,l),
(331,210,l),
(234,299,l)
);
},
{
closed = 1;
nodes = (
(62,0,l),
(169,-70,l),
(331,-70,l),
(234,0,l)
);
},
{
closed = 1;
nodes = (
(364,0,l),
(454,-70,l),
(618,-70,l),
(534,0,l)
);
},
{
closed = 1;
nodes = (
(234,299,l),
(331,210,l),
(364,210,l),
(364,299,l)
);
},
{
closed = 1;
nodes = (
(64,598,l),
(130,509,l),
(130,598,l)
);
},
{
closed = 1;
nodes = (
(302,406,l),
(331,406,l),
(331,503,l),
(302,537,l)
);
},
{
closed = 1;
nodes = (
(470,598,l),
(555,426,l),
(555,493,l),
(635,493,l),
(536,598,l)
);
}
);
width = 600;
},
{
anchors = (
{
name = ogonek;
pos = (533,-1);
},
{
name = top;
pos = (299,700);
}
);
layerId = "251EB316-0412-4A3C-A569-0EEB43C6D9CE";
name = "Regular Shadow";
shapes = (
{
closed = 1;
nodes = (
(331,210,l),
(331,-70,l),
(169,-70,l),
(89,-17,l),
(89,-52,l),
(36,-103,l),
(36,-216,l),
(224,-216,l),
(292,-147,l),
(292,-216,l),
(469,-216,l),
(618,-70,l),
(454,-70,l),
(364,0,l),
(364,210,l)
);
},
{
closed = 1;
nodes = (
(36,424,l),
(36,322,l),
(89,322,l),
(89,107,l),
(130,107,l),
(130,509,l)
);
},
{
closed = 1;
nodes = (
(331,503,l),
(331,406,l),
(364,406,l),
(364,530,l)
);
},
{
closed = 1;
nodes = (
(555,493,l),
(555,426,l),
(635,493,l)
);
}
);
width = 600;
}
);
unicode = 72;
}
{
glyphname = I;
layers = (
{
anchors = (
{
name = ogonek;
pos = (212,-1);
},
{
name = top;
pos = (179,700);
}
);
layerId = "8706937B-409E-4048-AB1C-4F6C90F3053E";
name = "Regular Front";
shapes = (
{
closed = 1;
nodes = (
(64,700,l),
(64,598,l),
(130,598,l),
(130,107,l),
(62,107,l),
(62,0,l),
(302,0,l),
(302,108,l),
(234,108,l),
(234,598,l),
(298,598,l),
(298,700,l)
);
}
);
width = 364;
},
{
anchors = (
{
name = ogonek;
pos = (212,-1);
},
{
name = top;
pos = (179,700);
}
);
layerId = "C85A4985-4A4B-40F2-9F5D-E307D783C1A5";
name = "Regular InsideLight";
shapes = (
{
closed = 1;
nodes = (
(234,108,l),
(302,108,l),
(331,80,l),
(331,426,l),
(234,598,l)
);
},
{
closed = 1;
nodes = (
(302,0,l),
(386,-70,l),
(386,29,l),
(302,108,l)
);
},
{
closed = 1;
nodes = (
(298,598,l),
(397,493,l),
(397,587,l),
(298,700,l)
);
}
);
width = 364;
},
{
anchors = (
{
name = ogonek;
pos = (212,-1);
},
{
name = top;
pos = (179,700);
}
);
layerId = "2AF69027-8699-4DA7-9B20-F07C10F82EEB";
name = "Regular InsideShadow";
shapes = (
{
closed = 1;
nodes = (
(62,0,l),
(169,-70,l),
(386,-70,l),
(302,0,l)
);
},
{
closed = 1;
nodes = (
(64,598,l),
(130,519,l),
(130,598,l)
);
},
{
closed = 1;
nodes = (
(331,426,l),
(331,493,l),
(234,598,l)
);
},
{
closed = 1;
nodes = (
(234,598,l),
(331,493,l),
(397,493,l),
(298,598,l)
);
}
);
width = 364;
},
{
anchors = (
{
name = ogonek;
pos = (212,-1);
},
{
name = top;
pos = (179,700);
}
);
layerId = "251EB316-0412-4A3C-A569-0EEB43C6D9CE";
name = "Regular Shadow";
shapes = (
{
closed = 1;
nodes = (
(89,-49,l),
(36,-100,l),
(36,-216,l),
(234,-216,l),
(386,-70,l),
(169,-70,l),
(89,-18,l)
);
},
{
closed = 1;
nodes = (
(36,423,l),
(36,321,l),
(89,321,l),
(89,107,l),
(130,107,l),
(130,509,l)
);
},
{
closed = 1;
nodes = (
(331,493,l),
(331,426,l),
(397,493,l)
);
}
);
width = 364;
}
);
unicode = 73;
}
{
glyphname = J;
layers = (
{
anchors = (
{
name = ogonek;
pos = (573,-1);
},
{
name = top;
pos = (339,700);
}
);
layerId = "8706937B-409E-4048-AB1C-4F6C90F3053E";
name = "Regular Front";
shapes = (
{
closed = 1;
nodes = (
(225,700,l),
(225,598,l),
(291,598,l),
(291,160,ls),
(291,141,o),
(277,122,o),
(263,111,cs),
(254,104,o),
(245,101,o),
(235,101,cs),
(191,101,o),
(166,132,o),
(166,166,cs),
(166,232,l),
(219,232,l),
(219,338,l),
(63,338,l),
(63,160,ls),
(63,114,o),
(88,59,o),
(133,25,cs),
(160,5,o),
(192,-8,o),
(231,-8,cs),
(298,-8,o),
(396,39,o),
(396,155,c),
(394,598,l),
(459,598,l),
(459,700,l)
);
}
);
width = 523;
},
{
anchors = (
{
name = ogonek;
pos = (573,-1);
},
{
name = top;
pos = (339,700);
}
);
layerId = "C85A4985-4A4B-40F2-9F5D-E307D783C1A5";
name = "Regular InsideLight";
shapes = (
{
closed = 1;
nodes = (
(396,155,l),
(479,78,l),
(479,406,l),
(394,598,l)
);
},
{
closed = 1;
nodes = (
(166,166,ls),
(166,132,o),
(191,101,o),
(235,101,c),
(235,185,l),
(166,232,l)
);
},
{
closed = 1;
nodes = (
(219,232,l),
(291,184,l),
(291,273,l),
(219,338,l)
);
},
{
closed = 1;
nodes = (
(459,598,l),
(558,493,l),
(558,587,l),
(459,700,l)
);
}
);
width = 523;
},
{
anchors = (
{
name = ogonek;
pos = (573,-1);
},
{
name = top;
pos = (339,700);
}
);
layerId = "2AF69027-8699-4DA7-9B20-F07C10F82EEB";
name = "Regular InsideShadow";
shapes = (
{
closed = 1;
nodes = (
(396,39,o),
(298,-8,o),
(231,-8,cs),
(192,-8,o),
(160,5,o),
(133,25,c),
(136,22,o),
(222,-42,o),
(246,-56,cs),
(267,-67,o),
(287,-77,o),
(327,-77,cs),
(348,-77,o),
(397,-70,o),
(441,-30,cs),
(455,-18,o),
(479,16,o),
(479,78,c),
(396,155,l)
);
},
{
closed = 1;
nodes = (
(235,101,l),
(245,101,o),
(254,104,o),
(263,111,c),
(263,160,l),
(235,185,l)
);
},
{
closed = 1;
nodes = (
(166,232,l),
(235,185,l),
(263,160,l),
(291,160,l),
(291,184,l),
(219,232,l)
);
},
{
closed = 1;
nodes = (
(225,598,l),
(291,519,l),
(291,598,l)
);
},
{
closed = 1;
nodes = (
(479,406,l),
(479,493,l),
(394,598,l)
);
},
{
closed = 1;
nodes = (
(394,598,l),
(479,493,l),
(558,493,l),
(459,598,l)
);
}
);
width = 523;
},
{
anchors = (
{
name = ogonek;
pos = (573,-1);
},
{
name = top;
pos = (339,700);
}
);
layerId = "251EB316-0412-4A3C-A569-0EEB43C6D9CE";
name = "Regular Shadow";
shapes = (
{
closed = 1;
nodes = (
(15,115,l),
(15,-56,ls),
(15,-147,o),
(75,-220,o),
(178,-220,cs),
(222,-220,o),
(260,-204,o),
(293,-173,cs),
(441,-30,l),
(397,-70,o),
(348,-77,o),
(327,-77,cs),
(287,-77,o),
(267,-67,o),
(246,-56,c),
(222,-42,o),
(136,23,o),
(133,25,c),
(88,59,o),
(63,114,o),
(63,160,c)
);
},
{
closed = 1;
nodes = (
(263,160,l),
(263,111,l),
(277,122,o),
(291,141,o),
(291,160,c)
);
},
{
closed = 1;
nodes = (
(197,423,l),
(197,338,l),
(219,338,l),
(291,273,l),
(291,509,l)
);
},
{
closed = 1;
nodes = (
(479,493,l),
(479,405,l),
(557,493,l)
);
}
);
width = 523;
}
);
unicode = 74;
}
{
glyphname = K;
layers = (
{
anchors = (
{
name = bottom;
pos = (296,0);
},
{
name = ogonek;
pos = (553,-1);
},
{
name = top;
pos = (319,700);
}
);
layerId = "8706937B-409E-4048-AB1C-4F6C90F3053E";
name = "Regular Front";
shapes = (
{
closed = 1;
nodes = (
(404,700,l),
(268,414,l),
(234,414,l),
(234,700,l),
(62,700,l),
(62,598,l),
(130,598,l),
(130,107,l),
(63,107,l),
(63,0,l),
(234,0,l),
(234,300,l),
(298,300,ls),
(312,300,o),
(323,295,o),
(330,288,c),
(353,268,o),
(353,254,o),
(353,230,cs),
(353,0,l),
(527,0,l),
(527,107,l),
(462,107,l),
(462,247,ls),
(462,295,o),
(455,331,o),
(439,357,cs),
(425,379,o),
(405,394,o),
(378,402,c),
(477,598,l),
(537,598,l),
(537,700,l)
);
}
);
width = 592;
},
{
anchors = (
{
name = bottom;
pos = (296,0);
},
{
name = ogonek;
pos = (553,-1);
},
{
name = top;
pos = (319,700);
}
);
layerId = "C85A4985-4A4B-40F2-9F5D-E307D783C1A5";
name = "Regular InsideLight";
shapes = (
{
closed = 1;
nodes = (
(455,331,o),
(462,295,o),
(462,247,cs),
(462,107,l),
(527,107,l),
(548,88,l),
(548,153,ls),
(548,234,o),
(489,292,cs),
(470,317,l),
(439,357,l)
);
},
{
closed = 1;
nodes = (
(234,0,l),
(306,-51,l),
(306,179,l),
(234,300,l)
);
},
{
closed = 1;
nodes = (
(527,0,l),
(618,-70,l),
(618,30,l),
(527,107,l)
);
},
{
closed = 1;
nodes = (
(234,414,l),
(268,414,l),
(306,493,l),
(306,557,l),
(325,533,l),
(331,546,l),
(331,588,l),
(234,700,l)
);
},
{
closed = 1;
nodes = (
(537,598,l),
(622,493,l),
(622,588,l),
(537,700,l)
);
}
);
width = 592;
},
{
anchors = (
{
name = bottom;
pos = (296,0);
},
{
name = ogonek;
pos = (553,-1);
},
{
name = top;
pos = (319,700);
}
);
layerId = "2AF69027-8699-4DA7-9B20-F07C10F82EEB";
name = "Regular InsideShadow";
shapes = (
{
closed = 1;
nodes = (
(378,402,l),
(405,394,o),
(425,379,o),
(439,357,c),
(470,317,l),
(562,493,l),
(477,598,l)
);
},
{
closed = 1;
nodes = (
(63,0,l),
(159,-70,l),
(334,-70,l),
(234,0,l)
);
},
{
closed = 1;
nodes = (
(234,300,l),
(306,179,l),
(306,-51,l),
(334,-70,l),
(334,229,l),
(353,229,l),
(353,253,o),
(353,268,o),
(330,288,c),
(323,295,o),
(312,300,o),
(298,300,cs)
);
},
{
closed = 1;
nodes = (
(353,0,l),
(449,-70,l),
(618,-70,l),
(527,0,l)
);
},
{
closed = 1;
nodes = (
(62,598,l),
(130,519,l),
(130,598,l)
);
},
{
closed = 1;
nodes = (
(477,598,l),
(562,493,l),
(622,493,l),
(537,598,l)
);
},
{
closed = 1;
nodes = (
(306,493,l),
(325,533,l),
(306,557,l)
);
}
);
width = 592;
},
{
anchors = (
{
name = bottom;
pos = (296,0);
},
{
name = ogonek;
pos = (553,-1);
},
{
name = top;
pos = (319,700);
}
);
layerId = "251EB316-0412-4A3C-A569-0EEB43C6D9CE";
name = "Regular Shadow";
shapes = (
{
closed = 1;
nodes = (
(334,229,l),
(334,-70,l),
(159,-70,l),
(89,-19,l),
(89,-72,l),
(26,-133,l),
(26,-216,l),
(224,-216,l),
(300,-116,l),
(353,-216,l),
(473,-216,l),
(618,-70,l),
(449,-70,l),
(353,0,l),
(353,229,l)
);
},
{
closed = 1;
nodes = (
(37,423,l),
(37,321,l),
(90,321,l),
(90,107,l),
(130,107,l),
(130,509,l)
);
},
{
closed = 1;
nodes = (
(562,493,l),
(470,317,l),
(489,292,l),
(622,493,l)
);
}
);
width = 592;
}
);
unicode = 75;
}
{
glyphname = L;
layers = (
{
anchors = (
{
name = bottom;
pos = (263,0);
},
{
name = ogonek;
pos = (483,-1);
},
{
name = top;
pos = (249,700);
},
{
name = topright;
pos = (505,700);
}
);
layerId = "8706937B-409E-4048-AB1C-4F6C90F3053E";
name = "Regular Front";
shapes = (
{
closed = 1;
nodes = (
(64,700,l),
(64,598,l),
(130,598,l),
(130,107,l),
(62,107,l),
(62,0,l),
(469,0,l),
(469,230,l),
(364,230,l),
(364,108,l),
(234,108,l),
(233,598,l),
(298,598,l),
(298,700,l)
);
}
);
width = 525;
},
{
anchors = (
{
name = bottom;
pos = (263,0);
},
{
name = ogonek;
pos = (483,-1);
},
{
name = top;
pos = (249,700);
},
{
name = topright;
pos = (505,700);
}
);
layerId = "C85A4985-4A4B-40F2-9F5D-E307D783C1A5";
name = "Regular InsideLight";
shapes = (
{
closed = 1;
nodes = (
(234,108,l),
(331,108,l),
(331,230,l),
(331,426,l),
(233,598,l)
);
},
{
closed = 1;
nodes = (
(469,0,l),
(553,-70,l),
(553,152,l),
(469,230,l)
);
},
{
closed = 1;
nodes = (
(298,598,l),
(397,493,l),
(397,587,l),
(298,700,l)
);
}
);
width = 525;
},
{
anchors = (
{
name = bottom;
pos = (263,0);
},
{
name = ogonek;
pos = (483,-1);
},
{
name = top;
pos = (249,700);
},
{
name = topright;
pos = (505,700);
}
);
layerId = "2AF69027-8699-4DA7-9B20-F07C10F82EEB";
name = "Regular InsideShadow";
shapes = (
{
closed = 1;
nodes = (
(62,0,l),
(169,-70,l),
(553,-70,l),
(469,0,l)
);
},
{
closed = 1;
nodes = (
(64,598,l),
(130,519,l),
(130,598,l)
);
},
{
closed = 1;
nodes = (
(331,426,l),
(331,493,l),
(233,598,l)
);
},
{
closed = 1;
nodes = (
(233,598,l),
(331,493,l),
(397,493,l),
(298,598,l)
);
}
);
width = 525;
},
{
anchors = (
{
name = bottom;
pos = (263,0);
},
{
name = ogonek;
pos = (483,-1);
},
{
name = top;
pos = (249,700);
},
{
name = topright;
pos = (505,700);
}
);
layerId = "251EB316-0412-4A3C-A569-0EEB43C6D9CE";
name = "Regular Shadow";
shapes = (
{
closed = 1;
nodes = (
(89,-52,l),
(36,-103,l),
(36,-216,l),
(401,-216,l),
(553,-70,l),
(169,-70,l),
(89,-17,l)
);
},
{
closed = 1;
nodes = (
(36,423,l),
(36,321,l),
(89,321,l),
(89,107,l),
(130,107,l),
(130,509,l)
);
},
{
closed = 1;
nodes = (
(331,493,l),
(331,426,l),
(397,493,l)
);
}
);
width = 525;
}
);
unicode = 76;
}
{
glyphname = M;
layers = (
{
anchors = (
{
name = ogonek;
pos = (643,-1);
},
{
name = top;
pos = (409,700);
}
);
layerId = "8706937B-409E-4048-AB1C-4F6C90F3053E";
name = "Regular Front";
shapes = (
{
closed = 1;
nodes = (
(608,700,l),
(424,277,l),
(233,700,l),
(64,700,l),
(64,598,l),
(130,598,l),
(130,107,l),
(62,107,l),
(62,0,l),
(233,0,l),
(233,415,l),
(391,76,l),
(460,76,l),
(608,421,l),
(608,0,l),
(780,0,l),
(780,107,l),
(712,107,l),
(712,598,l),
(776,598,l),
(776,700,l)
);
}
);
width = 842;
},
{
anchors = (
{
name = ogonek;
pos = (643,-1);
},
{
name = top;
pos = (409,700);
}
);
layerId = "C85A4985-4A4B-40F2-9F5D-E307D783C1A5";
name = "Regular InsideLight";
shapes = (
{
closed = 1;
nodes = (
(424,277,l),
(453,343,l),
(332,587,ls),
(233,700,l)
);
},
{
closed = 1;
nodes = (
(233,0,l),
(288,-39,l),
(288,233,l),
(233,415,l)
);
},
{
closed = 1;
nodes = (
(460,76,l),
(487,53,ls),
(512,113,l),
(513,204,l)
);
},
{
closed = 1;
nodes = (
(780,0,l),
(864,-70,l),
(864,29,l),
(780,107,l)
);
},
{
closed = 1;
nodes = (
(712,107,l),
(780,107,l),
(809,80,l),
(809,405,l),
(712,598,l)
);
},
{
closed = 1;
nodes = (
(776,598,l),
(875,493,l),
(875,587,l),
(776,700,l)
);
}
);
width = 842;
},
{
anchors = (
{
name = ogonek;
pos = (643,-1);
},
{
name = top;
pos = (409,700);
}
);
layerId = "2AF69027-8699-4DA7-9B20-F07C10F82EEB";
name = "Regular InsideShadow";
shapes = (
{
closed = 1;
nodes = (
(288,233,l),
(288,-39,l),
(335,-70,l),
(335,197,l),
(233,415,l)
);
},
{
closed = 1;
nodes = (
(62,0,l),
(169,-70,l),
(335,-70,l),
(233,0,l)
);
},
{
closed = 1;
nodes = (
(391,76,l),
(484,6,l),
(544,5,l),
(460,76,l)
);
},
{
closed = 1;
nodes = (
(64,598,l),
(130,519,l),
(130,598,l)
);
},
{
closed = 1;
nodes = (
(608,0,l),
(715,-70,l),
(864,-70,l),
(780,0,l)
);
},
{
closed = 1;
nodes = (
(513,204,l),
(512,113,l),
(487,53,l),
(544,5,l),
(608,113,l),
(608,421,l)
);
},
{
closed = 1;
nodes = (
(809,405,l),
(809,493,l),
(712,598,l)
);
},
{
closed = 1;
nodes = (
(712,598,l),
(809,493,l),
(875,493,l),
(776,598,l)
);
}
);
width = 842;
},
{
anchors = (
{
name = ogonek;
pos = (643,-1);
},
{
name = top;
pos = (409,700);
}
);
layerId = "251EB316-0412-4A3C-A569-0EEB43C6D9CE";
name = "Regular Shadow";
shapes = (
{
closed = 1;
nodes = (
(335,-70,l),
(169,-70,l),
(89,-18,l),
(89,-83,l),
(36,-134,l),
(36,-216,l),
(230,-216,l),
(335,-96,l),
(335,-173,l),
(517,-173,l),
(563,-115,l),
(564,-216,l),
(754,-216,l),
(864,-70,l),
(715,-70,l),
(608,0,l),
(608,113,l),
(544,5,l),
(484,6,l),
(391,76,l),
(335,197,l)
);
},
{
closed = 1;
nodes = (
(36,423,l),
(36,321,l),
(89,321,l),
(89,107,l),
(130,107,l),
(130,509,l)
);
},
{
closed = 1;
nodes = (
(809,493,l),
(809,405,l),
(875,493,l)
);
}
);
width = 842;
}
);
unicode = 77;
}
{
glyphname = N;
layers = (
{
anchors = (
{
name = bottom;
pos = (329,0);
},
{
name = ogonek;
pos = (536,0);
},
{
name = top;
pos = (328,700);
}
);
layerId = "8706937B-409E-4048-AB1C-4F6C90F3053E";
name = "Regular Front";
shapes = (
{
closed = 1;
nodes = (
(432,700,l),
(432,224,l),
(358,402,l),
(233,700,l),
(64,700,l),
(64,598,l),
(130,598,l),
(130,107,l),
(62,107,l),
(62,0,l),
(233,0,l),
(233,415,l),
(332,210,l),
(432,0,l),
(536,0,l),
(535,598,l),
(600,598,l),
(600,700,l)
);
}
);
width = 657;
},
{
anchors = (
{
name = bottom;
pos = (329,0);
},
{
name = ogonek;
pos = (536,0);
},
{
name = top;
pos = (328,700);
}
);
layerId = "C85A4985-4A4B-40F2-9F5D-E307D783C1A5";
name = "Regular InsideLight";
shapes = (
{
closed = 1;
nodes = (
(536,0,l),
(633,-70,l),
(633,406,l),
(535,598,l)
);
},
{
closed = 1;
nodes = (
(233,0,l),
(302,-50,l),
(302,199,l),
(233,415,l)
);
},
{
closed = 1;
nodes = (
(358,402,l),
(384,459,l),
(332,587,l),
(233,700,l)
);
},
{
closed = 1;
nodes = (
(600,598,l),
(699,493,l),
(699,587,l),
(600,700,l)
);
}
);
width = 657;
},
{
anchors = (
{
name = bottom;
pos = (329,0);
},
{
name = ogonek;
pos = (536,0);
},
{
name = top;
pos = (328,700);
}
);
layerId = "2AF69027-8699-4DA7-9B20-F07C10F82EEB";
name = "Regular InsideShadow";
shapes = (
{
closed = 1;
nodes = (
(302,199,l),
(302,-50,l),
(332,-70,l),
(332,210,l),
(233,415,l)
);
},
{
closed = 1;
nodes = (
(62,0,l),
(169,-70,l),
(332,-70,l),
(233,0,l)
);
},
{
closed = 1;
nodes = (
(432,0,l),
(539,-70,l),
(633,-70,l),
(536,0,l)
);
},
{
closed = 1;
nodes = (
(64,598,l),
(130,519,l),
(130,598,l)
);
},
{
closed = 1;
nodes = (
(358,402,l),
(432,224,l),
(432,354,l),
(384,459,l)
);
},
{
closed = 1;
nodes = (
(633,406,l),
(633,493,l),
(535,598,l)
);
},
{
closed = 1;
nodes = (
(535,598,l),
(633,493,l),
(699,493,l),
(600,598,l)
);
}
);
width = 657;
},
{
anchors = (
{
name = bottom;
pos = (329,0);
},
{
name = ogonek;
pos = (536,0);
},
{
name = top;
pos = (328,700);
}
);
layerId = "251EB316-0412-4A3C-A569-0EEB43C6D9CE";
name = "Regular Shadow";
shapes = (
{
closed = 1;
nodes = (
(332,-70,l),
(169,-70,l),
(89,-18,l),
(89,-83,l),
(36,-134,l),
(36,-216,l),
(182,-216,l),
(292,-106,l),
(390,-216,l),
(483,-216,l),
(633,-70,l),
(539,-70,l),
(432,0,l),
(332,210,l)
);
},
{
closed = 1;
nodes = (
(36,423,l),
(36,321,l),
(89,321,l),
(89,107,l),
(130,107,l),
(130,509,l)
);
},
{
closed = 1;
nodes = (
(384,459,l),
(432,354,l),
(432,509,l)
);
},
{
closed = 1;
nodes = (
(633,493,l),
(633,406,l),
(699,493,l)
);
}
);
width = 657;
}
);
unicode = 78;
}
{
glyphname = P;
layers = (
{
anchors = (
{
name = ogonek;
pos = (503,-1);
},
{
name = top;
pos = (269,700);
}
);
layerId = "8706937B-409E-4048-AB1C-4F6C90F3053E";
name = "Regular Front";
shapes = (
{
closed = 1;
nodes = (
(77,700,l),
(77,598,l),
(130,598,l),
(130,107,l),
(56,107,l),
(56,0,l),
(293,0,l),
(293,107,l),
(233,107,l),
(233,266,l),
(296,266,ls),
(352,266,o),
(416,302,o),
(444,362,cs),
(454,383,o),
(460,406,o),
(460,434,c),
(460,535,l),
(460,578,o),
(446,614,o),
(422,641,cs),
(391,678,o),
(344,700,o),
(294,700,cs)
);
},
{
closed = 1;
nodes = (
(335,598,o),
(358,576,o),
(358,541,cs),
(358,432,ls),
(358,414,o),
(347,397,o),
(333,385,cs),
(323,376,o),
(311,371,o),
(299,371,cs),
(233,371,l),
(233,598,l),
(297,598,ls)
);
}
);
width = 523;
},
{
anchors = (
{
name = ogonek;
pos = (503,-1);
},
{
name = top;
pos = (269,700);
}
);
layerId = "C85A4985-4A4B-40F2-9F5D-E307D783C1A5";
name = "Regular InsideLight";
shapes = (
{
closed = 1;
nodes = (
(233,107,l),
(293,107,l),
(293,0,l),
(385,-70,l),
(385,29,l),
(334,71,l),
(303,131,l),
(233,266,l)
);
},
{
closed = 1;
nodes = (
(233,371,l),
(299,371,ls),
(311,371,o),
(323,376,o),
(333,385,c),
(333,399,l),
(233,598,l)
);
},
{
closed = 1;
nodes = (
(446,614,o),
(460,578,o),
(460,535,cs),
(460,434,ls),
(460,406,o),
(454,383,o),
(444,362,c),
(477,340,o),
(531,267,o),
(531,267,c),
(541,285,o),
(545,308,o),
(545,335,cs),
(545,430,ls),
(545,466,o),
(533,504,o),
(513,531,cs),
(483,568,o),
(446,614,o),
(422,641,c)
);
}
);
width = 523;
},
{
anchors = (
{
name = ogonek;
pos = (503,-1);
},
{
name = top;
pos = (269,700);
}
);
layerId = "2AF69027-8699-4DA7-9B20-F07C10F82EEB";
name = "Regular InsideShadow";
shapes = (
{
closed = 1;
nodes = (
(416,302,o),
(352,266,o),
(296,266,cs),
(233,266,l),
(334,178,l),
(391,178,ls),
(429,178,o),
(464,195,o),
(487,213,cs),
(501,224,o),
(521,249,o),
(531,267,c),
(531,267,o),
(477,340,o),
(444,362,c)
);
},
{
closed = 1;
nodes = (
(56,0,l),
(70,-9,l),
(167,-70,l),
(385,-70,l),
(293,0,l)
);
},
{
closed = 1;
nodes = (
(334,71,l),
(334,178,l),
(233,266,l)
);
},
{
closed = 1;
nodes = (
(77,598,l),
(130,529,l),
(130,598,l)
);
},
{
closed = 1;
nodes = (
(333,399,l),
(333,493,l),
(233,598,l)
);
},
{
closed = 1;
nodes = (
(233,598,l),
(333,493,l),
(358,493,l),
(358,541,ls),
(358,576,o),
(335,598,o),
(297,598,cs)
);
}
);
width = 523;
},
{
anchors = (
{
name = ogonek;
pos = (503,-1);
},
{
name = top;
pos = (269,700);
}
);
layerId = "251EB316-0412-4A3C-A569-0EEB43C6D9CE";
name = "Regular Shadow";
shapes = (
{
closed = 1;
nodes = (
(70,-39,l),
(18,-100,l),
(18,-216,l),
(239,-216,l),
(385,-70,l),
(167,-70,l),
(70,-9,l)
);
},
{
closed = 1;
nodes = (
(18,434,l),
(18,315,l),
(70,315,l),
(70,107,l),
(130,107,l),
(130,519,l)
);
},
{
closed = 1;
nodes = (
(464,195,o),
(429,178,o),
(391,178,cs),
(334,178,l),
(334,71,l),
(342,77,o),
(350,84,o),
(358,91,cs),
(487,213,l)
);
},
{
closed = 1;
nodes = (
(333,493,l),
(333,385,l),
(347,397,o),
(358,414,o),
(358,432,cs),
(358,493,l)
);
}
);
width = 523;
},
{
anchors = (
{
name = ogonek;
pos = (503,-1);
},
{
name = top;
pos = (269,700);
}
);
associatedMasterId = "251EB316-0412-4A3C-A569-0EEB43C6D9CE";
layerId = "D2B64924-32A1-4D29-A06E-CED6E9BA8D9C";
name = "Sep 1 14, 16:59";
shapes = (
{
closed = 1;
nodes = (
(52,-39,l),
(0,-100,l),
(0,-216,l),
(221,-216,l),
(367,-70,l),
(149,-70,l),
(52,-9,l)
);
},
{
closed = 1;
nodes = (
(0,434,l),
(0,315,l),
(52,315,l),
(52,107,l),
(112,107,l),
(112,519,l)
);
},
{
closed = 1;
nodes = (
(446,195,o),
(411,178,o),
(373,178,cs),
(316,178,l),
(316,71,l),
(324,77,o),
(332,84,o),
(340,91,cs),
(469,213,l)
);
},
{
closed = 1;
nodes = (
(315,493,l),
(315,385,l),
(329,397,o),
(340,414,o),
(340,432,cs),
(340,493,l)
);
}
);
width = 550;
}
);
unicode = 80;
}
{
glyphname = Q;
layers = (
{
anchors = (
{
name = ogonek;
pos = (483,-1);
},
{
name = top;
pos = (249,700);
}
);
layerId = "8706937B-409E-4048-AB1C-4F6C90F3053E";
name = "Regular Front";
shapes = (
{
closed = 1;
nodes = (
(148,706,o),
(83,625,o),
(83,537,cs),
(83,145,ls),
(83,72,o),
(142,20,o),
(196,0,c),
(196,-166,l),
(368,-166,l),
(368,-58,l),
(300,-58,l),
(299,-1,l),
(357,16,o),
(416,65,o),
(416,155,c),
(414,557,l),
(414,639,o),
(324,706,o),
(248,706,cs)
);
},
{
closed = 1;
nodes = (
(282,602,o),
(306,574,o),
(306,540,cs),
(306,172,ls),
(306,153,o),
(305,131,o),
(283,114,c),
(276,107,o),
(265,101,o),
(255,101,cs),
(251,101,ls),
(207,101,o),
(186,132,o),
(186,166,cs),
(186,543,ls),
(186,573,o),
(204,602,o),
(245,602,cs)
);
}
);
width = 497;
},
{
anchors = (
{
name = ogonek;
pos = (483,-1);
},
{
name = top;
pos = (249,700);
}
);
layerId = "C85A4985-4A4B-40F2-9F5D-E307D783C1A5";
name = "Regular InsideLight";
shapes = (
{
closed = 1;
nodes = (
(402,617,o),
(414,588,o),
(414,557,c),
(416,155,l),
(499,78,l),
(499,436,ls),
(499,471,o),
(488,501,o),
(467,529,cs),
(438,567,o),
(411,603,o),
(382,640,c)
);
},
{
closed = 1;
nodes = (
(368,-166,l),
(452,-237,l),
(452,-136,l),
(368,-58,l)
);
},
{
closed = 1;
nodes = (
(300,-58,l),
(368,-58,l),
(397,-85,l),
(397,-70,l),
(299,-1,l)
);
},
{
closed = 1;
nodes = (
(186,166,ls),
(186,132,o),
(207,101,o),
(251,101,cs),
(255,101,l),
(255,386,l),
(186,543,l)
);
}
);
width = 497;
},
{
anchors = (
{
name = ogonek;
pos = (483,-1);
},
{
name = top;
pos = (249,700);
}
);
layerId = "2AF69027-8699-4DA7-9B20-F07C10F82EEB";
name = "Regular InsideShadow";
shapes = (
{
closed = 1;
nodes = (
(204,602,o),
(186,573,o),
(186,543,c),
(255,386,l),
(255,101,l),
(265,101,o),
(276,107,o),
(283,114,c),
(283,437,ls),
(283,456,o),
(293,471,o),
(306,482,c),
(306,540,ls),
(306,574,o),
(282,602,o),
(245,602,cs)
);
},
{
closed = 1;
nodes = (
(196,-166,l),
(303,-237,l),
(452,-237,l),
(368,-166,l)
);
},
{
closed = 1;
nodes = (
(416,65,o),
(357,16,o),
(299,-1,c),
(397,-70,l),
(436,-70,o),
(499,-6,o),
(499,78,c),
(416,155,l)
);
}
);
width = 497;
},
{
anchors = (
{
name = ogonek;
pos = (483,-1);
},
{
name = top;
pos = (249,700);
}
);
layerId = "251EB316-0412-4A3C-A569-0EEB43C6D9CE";
name = "Regular Shadow";
shapes = (
{
closed = 1;
nodes = (
(51,402,o),
(35,364,o),
(35,319,cs),
(35,-56,ls),
(35,-133,o),
(78,-197,o),
(155,-215,c),
(155,-383,l),
(300,-382,l),
(452,-237,l),
(303,-237,l),
(196,-166,l),
(196,0,l),
(142,20,o),
(83,72,o),
(83,145,cs),
(83,434,l)
);
},
{
closed = 1;
nodes = (
(293,471,o),
(283,456,o),
(283,437,cs),
(283,114,l),
(305,131,o),
(306,153,o),
(306,172,cs),
(306,482,l)
);
}
);
width = 497;
}
);
unicode = 81;
}
{
glyphname = R;
layers = (
{
anchors = (
{
name = bottom;
pos = (296,0);
},
{
name = ogonek;
pos = (493,-1);
},
{
name = top;
pos = (259,700);
}
);
layerId = "8706937B-409E-4048-AB1C-4F6C90F3053E";
name = "Regular Front";
shapes = (
{
closed = 1;
nodes = (
(64,700,l),
(64,598,l),
(130,598,l),
(130,107,l),
(62,107,l),
(62,0,l),
(234,0,l),
(234,264,l),
(308,264,l),
(419,0,l),
(571,0,l),
(571,107,l),
(499,107,l),
(399,299,l),
(417,315,o),
(433,336,o),
(444,360,cs),
(453,379,o),
(459,402,o),
(459,430,cs),
(460,533,ls),
(460,576,o),
(446,612,o),
(422,639,cs),
(392,675,o),
(346,700,o),
(298,700,cs)
);
},
{
closed = 1;
nodes = (
(335,598,o),
(358,574,o),
(358,539,cs),
(358,430,ls),
(358,412,o),
(347,395,o),
(333,383,cs),
(323,374,o),
(311,369,o),
(299,369,cs),
(233,369,l),
(233,598,l),
(297,598,ls)
);
}
);
width = 591;
},
{
anchors = (
{
name = bottom;
pos = (296,0);
},
{
name = ogonek;
pos = (493,-1);
},
{
name = top;
pos = (259,700);
}
);
layerId = "C85A4985-4A4B-40F2-9F5D-E307D783C1A5";
name = "Regular InsideLight";
shapes = (
{
closed = 1;
nodes = (
(446,612,o),
(460,576,o),
(460,533,cs),
(459,430,ls),
(459,402,o),
(453,379,o),
(444,360,c),
(531,265,l),
(541,283,o),
(545,306,o),
(545,333,cs),
(545,428,ls),
(545,464,o),
(533,502,o),
(513,529,cs),
(483,566,o),
(446,612,o),
(422,639,c)
);
},
{
closed = 1;
nodes = (
(234,0,l),
(333,-70,l),
(333,107,l),
(234,264,l)
);
},
{
closed = 1;
nodes = (
(571,0,l),
(663,-70,l),
(663,27,l),
(571,107,l)
);
},
{
closed = 1;
nodes = (
(499,107,l),
(545,107,l),
(486,204,ls),
(399,299,l)
);
},
{
closed = 1;
nodes = (
(233,369,l),
(299,369,l),
(299,433,ls),
(299,449,o),
(292,476,o),
(284,493,cs),
(233,598,l)
);
}
);
width = 591;
},
{
anchors = (
{
name = bottom;
pos = (296,0);
},
{
name = ogonek;
pos = (493,-1);
},
{
name = top;
pos = (259,700);
}
);
layerId = "2AF69027-8699-4DA7-9B20-F07C10F82EEB";
name = "Regular InsideShadow";
shapes = (
{
closed = 1;
nodes = (
(284,493,ls),
(292,476,o),
(299,449,o),
(299,433,cs),
(299,369,l),
(311,369,o),
(323,374,o),
(333,383,c),
(333,493,l),
(233,598,l)
);
},
{
closed = 1;
nodes = (
(62,0,l),
(165,-70,l),
(333,-70,l),
(234,0,l)
);
},
{
closed = 1;
nodes = (
(333,107,l),
(333,178,l),
(234,264,l)
);
},
{
closed = 1;
nodes = (
(234,264,l),
(333,178,l),
(344,178,l),
(308,264,l)
);
},
{
closed = 1;
nodes = (
(419,0,l),
(510,-70,l),
(663,-70,l),
(571,0,l)
);
},
{
closed = 1;
nodes = (
(64,598,l),
(130,519,l),
(130,598,l)
);
},
{
closed = 1;
nodes = (
(433,336,o),
(417,315,o),
(399,299,c),
(486,204,l),
(504,220,o),
(520,241,o),
(531,265,c),
(444,360,l)
);
},
{
closed = 1;
nodes = (
(233,598,l),
(333,493,l),
(358,493,l),
(358,539,ls),
(358,574,o),
(335,598,o),
(297,598,cs)
);
}
);
width = 591;
},
{
anchors = (
{
name = bottom;
pos = (296,0);
},
{
name = ogonek;
pos = (493,-1);
},
{
name = top;
pos = (259,700);
}
);
layerId = "251EB316-0412-4A3C-A569-0EEB43C6D9CE";
name = "Regular Shadow";
shapes = (
{
closed = 1;
nodes = (
(333,178,l),
(333,-70,l),
(165,-70,l),
(89,-17,l),
(89,-83,l),
(36,-134,l),
(36,-216,l),
(276,-216,l),
(312,-170,l),
(312,-216,l),
(518,-216,l),
(663,-70,l),
(510,-70,l),
(419,0,l),
(344,178,l)
);
},
{
closed = 1;
nodes = (
(36,423,l),
(36,321,l),
(89,321,l),
(89,107,l),
(130,107,l),
(130,509,l)
);
},
{
closed = 1;
nodes = (
(333,493,l),
(333,383,l),
(347,395,o),
(358,412,o),
(358,430,cs),
(358,493,l)
);
}
);
width = 591;
}
);
unicode = 82;
}
{
glyphname = S;
layers = (
{
anchors = (
{
name = bottom;
pos = (280,0);
},
{
name = ogonek;
pos = (513,-1);
},
{
name = top;
pos = (279,700);
}
);
layerId = "8706937B-409E-4048-AB1C-4F6C90F3053E";
name = "Regular Front";
shapes = (
{
closed = 1;
nodes = (
(226,540,ls),
(227,574,o),
(247,602,o),
(283,602,cs),
(324,602,o),
(346,581,o),
(346,543,cs),
(346,463,l),
(449,463,l),
(447,557,l),
(447,588,o),
(434,615,o),
(415,639,cs),
(382,679,o),
(329,706,o),
(281,706,cs),
(181,706,o),
(116,625,o),
(116,537,cs),
(116,478,l),
(138,452,l),
(339,219,l),
(339,172,ls),
(339,150,o),
(330,128,o),
(316,114,c),
(308,107,o),
(299,101,o),
(288,101,cs),
(240,101,o),
(219,132,o),
(219,166,cs),
(219,266,l),
(31,266,l),
(31,159,l),
(116,159,l),
(116,105,o),
(146,56,o),
(187,25,cs),
(214,5,o),
(249,-8,o),
(284,-8,cs),
(351,-8,o),
(449,39,o),
(449,155,cs),
(449,242,l),
(226,507,l)
);
}
);
width = 520;
},
{
anchors = (
{
name = bottom;
pos = (280,0);
},
{
name = ogonek;
pos = (513,-1);
},
{
name = top;
pos = (279,700);
}
);
layerId = "C85A4985-4A4B-40F2-9F5D-E307D783C1A5";
name = "Regular InsideLight";
shapes = (
{
closed = 1;
nodes = (
(226,507,l),
(449,242,l),
(534,172,l),
(427,301,l),
(366,353,l),
(251,490,l),
(226,540,l)
);
},
{
closed = 1;
nodes = (
(219,166,l),
(219,132,o),
(240,101,o),
(288,101,c),
(288,224,l),
(219,266,l)
);
},
{
closed = 1;
nodes = (
(449,155,l),
(532,78,l),
(534,172,l),
(449,242,l)
);
},
{
closed = 1;
nodes = (
(434,615,o),
(447,588,o),
(447,557,c),
(449,463,l),
(535,394,l),
(535,425,ls),
(535,460,o),
(520,500,o),
(500,529,cs),
(453,598,o),
(444,607,o),
(415,639,c)
);
}
);
width = 520;
},
{
anchors = (
{
name = bottom;
pos = (280,0);
},
{
name = ogonek;
pos = (513,-1);
},
{
name = top;
pos = (279,700);
}
);
layerId = "2AF69027-8699-4DA7-9B20-F07C10F82EEB";
name = "Regular InsideShadow";
shapes = (
{
closed = 1;
nodes = (
(449,39,o),
(351,-8,o),
(284,-8,cs),
(249,-8,o),
(214,5,o),
(187,25,c),
(299,-56,l),
(318,-71,o),
(340,-77,o),
(380,-77,cs),
(401,-77,o),
(455,-81,o),
(494,-30,cs),
(505,-15,o),
(532,16,o),
(532,78,c),
(449,155,l)
);
},
{
closed = 1;
nodes = (
(288,101,l),
(298,101,o),
(309,107,o),
(316,114,c),
(316,207,l),
(288,224,l)
);
},
{
closed = 1;
nodes = (
(247,602,o),
(227,574,o),
(226,540,c),
(251,490,l),
(366,353,l),
(427,301,l),
(311,447,l),
(311,476,l),
(312,502,o),
(327,522,o),
(346,527,c),
(346,543,l),
(346,581,o),
(324,602,o),
(283,602,cs)
);
},
{
closed = 1;
nodes = (
(346,463,l),
(439,394,l),
(535,394,l),
(449,463,l)
);
},
{
closed = 1;
nodes = (
(31,159,l),
(187,25,l),
(146,56,o),
(116,105,o),
(116,159,c)
);
}
);
width = 520;
},
{
anchors = (
{
name = bottom;
pos = (280,0);
},
{
name = ogonek;
pos = (513,-1);
},
{
name = top;
pos = (279,700);
}
);
layerId = "251EB316-0412-4A3C-A569-0EEB43C6D9CE";
name = "Regular Shadow";
shapes = (
{
closed = 1;
nodes = (
(327,522,o),
(312,502,o),
(311,476,c),
(311,447,l),
(427,301,l),
(535,394,l),
(439,394,l),
(346,463,l),
(346,527,l)
);
},
{
closed = 1;
nodes = (
(219,266,l),
(316,207,l),
(316,114,l),
(331,127,o),
(339,137,o),
(339,172,cs),
(339,219,l),
(138,452,l),
(92,420,o),
(58,364,o),
(58,319,cs),
(58,266,l)
);
},
{
closed = 1;
nodes = (
(340,-77,o),
(318,-71,o),
(299,-56,c),
(187,25,l),
(50,143,l),
(5,102,l),
(5,0,l),
(58,0,l),
(58,-56,ls),
(58,-147,o),
(121,-220,o),
(224,-220,cs),
(268,-220,o),
(310,-201,o),
(346,-173,cs),
(411,-122,o),
(421,-115,o),
(485,-40,c),
(447,-80,o),
(399,-77,o),
(380,-77,cs)
);
},
{
closed = 1;
nodes = (
(488,-37,o),
(491,-34,o),
(494,-30,c),
(485,-40,l)
);
}
);
width = 520;
}
);
unicode = 83;
}
{
glyphname = T;
layers = (
{
anchors = (
{
name = bottom;
pos = (303,0);
},
{
name = center;
pos = (303,350);
},
{
name = ogonek;
pos = (533,-1);
},
{
name = top;
pos = (299,700);
}
);
layerId = "8706937B-409E-4048-AB1C-4F6C90F3053E";
name = "Regular Front";
shapes = (
{
closed = 1;
nodes = (
(66,700,l),
(65,468,l),
(171,468,l),
(171,598,l),
(250,598,l),
(250,107,l),
(165,107,l),
(165,0,l),
(433,0,l),
(433,107,l),
(355,107,l),
(355,598,l),
(434,598,l),
(434,468,l),
(540,468,l),
(540,700,l)
);
}
);
width = 605;
},
{
anchors = (
{
name = bottom;
pos = (303,0);
},
{
name = center;
pos = (303,350);
},
{
name = ogonek;
pos = (533,-1);
},
{
name = top;
pos = (299,700);
}
);
layerId = "C85A4985-4A4B-40F2-9F5D-E307D783C1A5";
name = "Regular InsideLight";
shapes = (
{
closed = 1;
nodes = (
(355,107,l),
(433,107,l),
(455,87,l),
(455,226,l),
(396,369,l),
(396,493,l),
(355,598,l)
);
},
{
closed = 1;
nodes = (
(433,0,l),
(524,-70,l),
(524,28,l),
(433,107,l)
);
},
{
closed = 1;
nodes = (
(171,468,l),
(250,391,l),
(250,406,l),
(171,598,l)
);
},
{
closed = 1;
nodes = (
(540,468,l),
(626,371,l),
(626,587,l),
(540,700,l)
);
}
);
width = 605;
},
{
anchors = (
{
name = bottom;
pos = (303,0);
},
{
name = center;
pos = (303,350);
},
{
name = ogonek;
pos = (533,-1);
},
{
name = top;
pos = (299,700);
}
);
layerId = "2AF69027-8699-4DA7-9B20-F07C10F82EEB";
name = "Regular InsideShadow";
shapes = (
{
closed = 1;
nodes = (
(396,493,l),
(396,369,l),
(455,226,l),
(455,447,l),
(434,468,l),
(434,509,l),
(355,598,l)
);
},
{
closed = 1;
nodes = (
(165,0,l),
(272,-70,l),
(524,-70,l),
(433,0,l)
);
},
{
closed = 1;
nodes = (
(65,468,l),
(161,369,l),
(250,369,l),
(250,391,l),
(171,468,l)
);
},
{
closed = 1;
nodes = (
(250,406,l),
(250,509,l),
(171,598,l)
);
},
{
closed = 1;
nodes = (
(171,598,l),
(250,509,l),
(250,598,l)
);
},
{
closed = 1;
nodes = (
(355,598,l),
(434,509,l),
(434,598,l)
);
},
{
closed = 1;
nodes = (
(434,468,l),
(529,371,l),
(626,371,l),
(540,468,l)
);
}
);
width = 605;
},
{
anchors = (
{
name = bottom;
pos = (303,0);
},
{
name = center;
pos = (303,350);
},
{
name = ogonek;
pos = (533,-1);
},
{
name = top;
pos = (299,700);
}
);
layerId = "251EB316-0412-4A3C-A569-0EEB43C6D9CE";
name = "Regular Shadow";
shapes = (
{
closed = 1;
nodes = (
(12,500,l),
(12,240,l),
(115,240,l),
(192,315,l),
(192,107,l),
(250,107,l),
(250,369,l),
(161,369,l),
(65,468,l),
(65,551,l)
);
},
{
closed = 1;
nodes = (
(192,-83,l),
(139,-134,l),
(139,-216,l),
(374,-216,l),
(524,-70,l),
(272,-70,l),
(192,-17,l)
);
},
{
closed = 1;
nodes = (
(455,226,l),
(486,226,l),
(626,371,l),
(529,371,l),
(455,447,l)
);
}
);
width = 605;
}
);
unicode = 84;
}
{
glyphname = U;
layers = (
{
anchors = (
{
name = ogonek;
pos = (318,-1);
},
{
name = top;
pos = (284,700);
}
);
layerId = "8706937B-409E-4048-AB1C-4F6C90F3053E";
name = "Regular Front";
shapes = (
{
closed = 1;
nodes = (
(53,700,l),
(53,598,l),
(119,598,l),
(119,163,ls),
(119,113,o),
(150,54,o),
(189,25,cs),
(216,5,o),
(248,-8,o),
(287,-8,cs),
(354,-8,o),
(452,39,o),
(448,155,c),
(448,598,l),
(514,598,l),
(514,700,l),
(342,700,l),
(342,172,ls),
(342,153,o),
(341,131,o),
(319,114,c),
(312,107,o),
(301,101,o),
(291,101,cs),
(287,101,ls),
(243,101,o),
(222,132,o),
(222,166,cs),
(222,700,l)
);
}
);
width = 568;
},
{
anchors = (
{
name = ogonek;
pos = (318,-1);
},
{
name = top;
pos = (284,700);
}
);
layerId = "C85A4985-4A4B-40F2-9F5D-E307D783C1A5";
name = "Regular InsideLight";
shapes = (
{
closed = 1;
nodes = (
(448,155,l),
(533,78,l),
(533,426,l),
(448,598,l)
);
},
{
closed = 1;
nodes = (
(222,166,ls),
(222,132,o),
(243,101,o),
(287,101,cs),
(291,101,l),
(291,496,l),
(319,460,l),
(319,587,l),
(222,700,l)
);
},
{
closed = 1;
nodes = (
(514,598,l),
(613,493,l),
(613,587,l),
(514,700,l)
);
}
);
width = 568;
},
{
anchors = (
{
name = ogonek;
pos = (318,-1);
},
{
name = top;
pos = (284,700);
}
);
layerId = "2AF69027-8699-4DA7-9B20-F07C10F82EEB";
name = "Regular InsideShadow";
shapes = (
{
closed = 1;
nodes = (
(452,39,o),
(354,-8,o),
(287,-8,cs),
(248,-8,o),
(216,5,o),
(189,25,c),
(216,5,o),
(278,-42,o),
(302,-56,cs),
(323,-67,o),
(343,-77,o),
(383,-77,cs),
(404,-77,o),
(453,-70,o),
(497,-30,cs),
(511,-18,o),
(535,16,o),
(533,78,c),
(448,155,l)
);
},
{
closed = 1;
nodes = (
(53,598,l),
(119,519,l),
(119,598,l)
);
},
{
closed = 1;
nodes = (
(448,598,l),
(533,426,l),
(533,493,l),
(613,493,l),
(514,598,l)
);
},
{
closed = 1;
nodes = (
(291,496,l),
(291,101,l),
(301,101,o),
(312,107,o),
(319,114,c),
(319,460,l)
);
}
);
width = 568;
},
{
anchors = (
{
name = ogonek;
pos = (318,-1);
},
{
name = top;
pos = (284,700);
}
);
layerId = "251EB316-0412-4A3C-A569-0EEB43C6D9CE";
name = "Regular Shadow";
shapes = (
{
closed = 1;
nodes = (
(25,424,l),
(25,322,l),
(71,322,l),
(71,319,l),
(71,-56,ls),
(71,-147,o),
(131,-220,o),
(234,-220,cs),
(278,-220,o),
(316,-204,o),
(349,-173,cs),
(497,-30,l),
(453,-70,o),
(404,-77,o),
(383,-77,cs),
(343,-77,o),
(323,-67,o),
(302,-56,c),
(278,-42,o),
(192,22,o),
(189,25,c),
(150,54,o),
(119,113,o),
(119,163,cs),
(119,509,l)
);
},
{
closed = 1;
nodes = (
(319,460,l),
(319,114,l),
(341,131,o),
(342,153,o),
(342,172,cs),
(342,500,l)
);
},
{
closed = 1;
nodes = (
(533,493,l),
(533,426,l),
(613,493,l)
);
}
);
width = 568;
}
);
unicode = 85;
}
{
glyphname = V;
layers = (
{
anchors = (
{
name = ogonek;
pos = (523,-1);
},
{
name = top;
pos = (289,700);
}
);
layerId = "8706937B-409E-4048-AB1C-4F6C90F3053E";
name = "Regular Front";
shapes = (
{
closed = 1;
nodes = (
(362,549,l),
(330,343,l),
(301,157,l),
(300,157,l),
(211,700,l),
(18,700,l),
(18,598,l),
(122,598,l),
(227,0,l),
(372,0,l),
(478,598,l),
(573,598,l),
(573,699,l),
(385,700,l)
);
}
);
width = 566;
},
{
anchors = (
{
name = ogonek;
pos = (523,-1);
},
{
name = top;
pos = (289,700);
}
);
layerId = "C85A4985-4A4B-40F2-9F5D-E307D783C1A5";
name = "Regular InsideLight";
shapes = (
{
closed = 1;
nodes = (
(372,0,l),
(464,-70,l),
(550,393,l),
(478,598,l)
);
},
{
closed = 1;
nodes = (
(300,157,l),
(301,157,l),
(330,343,l),
(293,544,l),
(322,516,l),
(311,587,l),
(211,700,l)
);
},
{
closed = 1;
nodes = (
(573,598,l),
(659,493,l),
(659,587,l),
(573,699,l)
);
}
);
width = 566;
},
{
anchors = (
{
name = ogonek;
pos = (523,-1);
},
{
name = top;
pos = (289,700);
}
);
layerId = "2AF69027-8699-4DA7-9B20-F07C10F82EEB";
name = "Regular InsideShadow";
shapes = (
{
closed = 1;
nodes = (
(478,598,l),
(550,393,l),
(569,493,l),
(659,493,l),
(573,598,l)
);
},
{
closed = 1;
nodes = (
(227,0,l),
(323,-70,l),
(464,-70,l),
(372,0,l)
);
},
{
closed = 1;
nodes = (
(18,598,l),
(120,493,l),
(140,493,l),
(122,598,l)
);
},
{
closed = 1;
nodes = (
(330,343,l),
(322,516,l),
(293,544,l)
);
}
);
width = 566;
},
{
anchors = (
{
name = ogonek;
pos = (523,-1);
},
{
name = top;
pos = (289,700);
}
);
layerId = "251EB316-0412-4A3C-A569-0EEB43C6D9CE";
name = "Regular Shadow";
shapes = (
{
closed = 1;
nodes = (
(-35,489,l),
(-35,378,l),
(76,378,l),
(181,-216,l),
(394,-216,l),
(464,-70,l),
(323,-70,l),
(227,0,l),
(140,493,l),
(120,493,l),
(38,579,l)
);
},
{
closed = 1;
nodes = (
(322,516,l),
(330,343,l),
(362,549,l)
);
},
{
closed = 1;
nodes = (
(569,493,l),
(550,393,l),
(659,493,l)
);
}
);
width = 566;
}
);
unicode = 86;
}
{
glyphname = W;
layers = (
{
anchors = (
{
name = ogonek;
pos = (683,-1);
},
{
name = top;
pos = (449,700);
}
);
layerId = "8706937B-409E-4048-AB1C-4F6C90F3053E";
name = "Regular Front";
shapes = (
{
closed = 1;
nodes = (
(609,157,l),
(520,700,l),
(375,700,l),
(290,157,l),
(201,700,l),
(8,700,l),
(8,598,l),
(112,598,l),
(217,0,l),
(362,0,l),
(450,495,l),
(503,186,l),
(536,0,l),
(681,0,l),
(787,598,l),
(897,598,l),
(897,699,l),
(694,700,l)
);
}
);
width = 885;
},
{
anchors = (
{
name = ogonek;
pos = (683,-1);
},
{
name = top;
pos = (449,700);
}
);
layerId = "C85A4985-4A4B-40F2-9F5D-E307D783C1A5";
name = "Regular InsideLight";
shapes = (
{
closed = 1;
nodes = (
(681,0,l),
(773,-70,l),
(859,387,l),
(787,598,l)
);
},
{
closed = 1;
nodes = (
(362,0,l),
(454,-70,l),
(461,-35,l),
(435,162,l),
(412,280,l)
);
},
{
closed = 1;
nodes = (
(290,157,l),
(320,341,l),
(284,542,l),
(312,516,l),
(301,583,l),
(201,700,l)
);
},
{
closed = 1;
nodes = (
(609,157,l),
(639,341,l),
(603,542,l),
(631,516,l),
(620,583,l),
(520,700,l)
);
},
{
closed = 1;
nodes = (
(897,598,l),
(983,493,l),
(983,587,l),
(897,699,l)
);
}
);
width = 885;
},
{
anchors = (
{
name = ogonek;
pos = (683,-1);
},
{
name = top;
pos = (449,700);
}
);
layerId = "2AF69027-8699-4DA7-9B20-F07C10F82EEB";
name = "Regular InsideShadow";
shapes = (
{
closed = 1;
nodes = (
(412,280,l),
(435,162,l),
(461,-35,l),
(503,186,l),
(450,495,l)
);
},
{
closed = 1;
nodes = (
(217,0,l),
(313,-70,l),
(454,-70,l),
(362,0,l)
);
},
{
closed = 1;
nodes = (
(8,598,l),
(110,493,l),
(130,493,l),
(112,598,l)
);
},
{
closed = 1;
nodes = (
(536,0,l),
(632,-70,l),
(773,-70,l),
(681,0,l)
);
},
{
closed = 1;
nodes = (
(320,341,l),
(330,409,l),
(312,516,l),
(284,542,l)
);
},
{
closed = 1;
nodes = (
(639,341,l),
(649,409,l),
(631,516,l),
(603,542,l)
);
},
{
closed = 1;
nodes = (
(859,387,l),
(878,493,l),
(787,598,l)
);
},
{
closed = 1;
nodes = (
(787,598,l),
(878,493,l),
(983,493,l),
(897,598,l)
);
}
);
width = 885;
},
{
anchors = (
{
name = ogonek;
pos = (683,-1);
},
{
name = top;
pos = (449,700);
}
);
layerId = "251EB316-0412-4A3C-A569-0EEB43C6D9CE";
name = "Regular Shadow";
shapes = (
{
closed = 1;
nodes = (
(-45,492,l),
(-45,381,l),
(66,381,l),
(171,-216,l),
(384,-216,l),
(454,-70,l),
(313,-70,l),
(217,0,l),
(130,493,l),
(110,493,l),
(28,579,l)
);
},
{
closed = 1;
nodes = (
(461,-35,l),
(490,-216,l),
(703,-216,l),
(773,-70,l),
(632,-70,l),
(536,0,l),
(503,186,l)
);
},
{
closed = 1;
nodes = (
(312,516,l),
(330,409,l),
(352,549,l)
);
},
{
closed = 1;
nodes = (
(631,516,l),
(649,409,l),
(671,549,l)
);
},
{
closed = 1;
nodes = (
(878,493,l),
(859,387,l),
(983,493,l)
);
}
);
width = 885;
}
);
unicode = 87;
}
{
glyphname = X;
layers = (
{
anchors = (
{
name = ogonek;
pos = (513,-1);
},
{
name = top;
pos = (279,700);
}
);
layerId = "8706937B-409E-4048-AB1C-4F6C90F3053E";
name = "Regular Front";
shapes = (
{
closed = 1;
nodes = (
(338,700,l),
(289,414,l),
(218,700,l),
(49,700,l),
(49,598,l),
(115,598,l),
(135,517,l),
(177,370,l),
(143,339,o),
(124,293,o),
(124,245,cs),
(124,107,l),
(62,107,l),
(62,0,l),
(227,0,l),
(227,251,ls),
(227,286,o),
(249,310,o),
(286,310,cs),
(323,310,o),
(347,286,o),
(347,251,cs),
(347,0,l),
(534,0,l),
(534,107,l),
(456,107,l),
(456,265,l),
(456,302,o),
(428,344,o),
(402,370,c),
(447,598,l),
(512,598,l),
(512,700,l)
);
}
);
width = 570;
},
{
anchors = (
{
name = ogonek;
pos = (513,-1);
},
{
name = top;
pos = (279,700);
}
);
layerId = "C85A4985-4A4B-40F2-9F5D-E307D783C1A5";
name = "Regular InsideLight";
shapes = (
{
closed = 1;
nodes = (
(428,344,o),
(456,302,o),
(456,265,c),
(456,107,l),
(534,107,l),
(539,102,l),
(539,189,l),
(539,226,o),
(521,260,o),
(493,286,c),
(402,370,l)
);
},
{
closed = 1;
nodes = (
(227,0,l),
(285,-43,l),
(286,141,l),
(227,251,l)
);
},
{
closed = 1;
nodes = (
(534,0,l),
(618,-70,l),
(618,29,l),
(534,107,l)
);
},
{
closed = 1;
nodes = (
(289,414,l),
(298,468,l),
(287,533,l),
(307,518,l),
(320,594,l),
(218,700,l)
);
},
{
closed = 1;
nodes = (
(402,370,l),
(493,286,l),
(512,385,l),
(447,598,l)
);
},
{
closed = 1;
nodes = (
(512,598,l),
(597,493,l),
(597,588,l),
(512,700,l)
);
}
);
width = 570;
},
{
anchors = (
{
name = ogonek;
pos = (513,-1);
},
{
name = top;
pos = (279,700);
}
);
layerId = "2AF69027-8699-4DA7-9B20-F07C10F82EEB";
name = "Regular InsideShadow";
shapes = (
{
closed = 1;
nodes = (
(249,310,o),
(227,286,o),
(227,251,c),
(286,141,l),
(285,-43,l),
(322,-70,l),
(322,180,l),
(322,201,o),
(334,223,o),
(347,230,c),
(347,251,l),
(347,286,o),
(323,310,o),
(286,310,c)
);
},
{
closed = 1;
nodes = (
(62,0,l),
(169,-70,l),
(322,-70,l),
(285,-43,l),
(227,0,l)
);
},
{
closed = 1;
nodes = (
(347,0,l),
(454,-70,l),
(618,-70,l),
(534,0,l)
);
},
{
closed = 1;
nodes = (
(49,598,l),
(135,517,l),
(115,598,l)
);
},
{
closed = 1;
nodes = (
(298,468,l),
(307,518,l),
(287,533,l)
);
},
{
closed = 1;
nodes = (
(512,385,l),
(531,493,l),
(447,598,l)
);
},
{
closed = 1;
nodes = (
(447,598,l),
(531,493,l),
(597,493,l),
(512,598,l)
);
}
);
width = 570;
},
{
anchors = (
{
name = ogonek;
pos = (513,-1);
},
{
name = top;
pos = (279,700);
}
);
layerId = "251EB316-0412-4A3C-A569-0EEB43C6D9CE";
name = "Regular Shadow";
shapes = (
{
closed = 1;
nodes = (
(334,223,o),
(322,201,o),
(322,180,c),
(322,-70,l),
(169,-70,l),
(89,-17,l),
(89,-82,l),
(36,-133,l),
(36,-216,l),
(276,-216,l),
(302,-147,l),
(302,-215,l),
(469,-214,l),
(618,-70,l),
(454,-70,l),
(347,0,l),
(347,230,l)
);
},
{
closed = 1;
nodes = (
(103,196,o),
(90,171,o),
(90,155,c),
(90,107,l),
(124,107,l),
(124,204,l)
);
},
{
closed = 1;
nodes = (
(35,423,l),
(35,321,l),
(88,321,l),
(124,245,l),
(124,293,o),
(143,339,o),
(177,370,c),
(135,517,l)
);
},
{
closed = 1;
nodes = (
(531,493,l),
(512,385,l),
(597,493,l)
);
}
);
width = 570;
}
);
unicode = 88;
}
{
glyphname = Y;
layers = (
{
anchors = (
{
name = ogonek;
pos = (518,-1);
},
{
name = top;
pos = (284,700);
}
);
layerId = "8706937B-409E-4048-AB1C-4F6C90F3053E";
name = "Regular Front";
shapes = (
{
closed = 1;
nodes = (
(342,700,l),
(342,430,l),
(342,406,o),
(342,392,o),
(319,372,cs),
(312,365,o),
(301,360,o),
(287,360,cs),
(243,360,o),
(222,392,o),
(222,426,c),
(222,700,l),
(53,700,l),
(53,598,l),
(119,598,l),
(119,420,l),
(119,358,o),
(144,317,o),
(189,283,cs),
(201,275,o),
(215,268,o),
(229,262,c),
(229,107,l),
(171,107,l),
(171,0,l),
(393,0,l),
(393,107,l),
(333,107,l),
(333,258,l),
(391,275,o),
(451,323,o),
(451,413,c),
(451,598,l),
(516,598,l),
(516,700,l)
);
}
);
width = 570;
},
{
anchors = (
{
name = ogonek;
pos = (518,-1);
},
{
name = top;
pos = (284,700);
}
);
layerId = "C85A4985-4A4B-40F2-9F5D-E307D783C1A5";
name = "Regular InsideLight";
shapes = (
{
closed = 1;
nodes = (
(222,426,ls),
(222,392,o),
(243,360,o),
(287,360,c),
(291,360,l),
(291,533,l),
(319,499,l),
(319,588,l),
(222,700,l)
);
},
{
closed = 1;
nodes = (
(393,0,l),
(484,-70,l),
(484,29,l),
(393,107,l)
);
},
{
closed = 1;
nodes = (
(333,107,l),
(393,107,l),
(418,84,l),
(333,258,ls)
);
},
{
closed = 1;
nodes = (
(451,413,l),
(535,337,l),
(535,406,l),
(451,598,l)
);
},
{
closed = 1;
nodes = (
(516,598,l),
(601,493,l),
(601,588,l),
(516,700,l)
);
}
);
width = 570;
},
{
anchors = (
{
name = ogonek;
pos = (518,-1);
},
{
name = top;
pos = (284,700);
}
);
layerId = "2AF69027-8699-4DA7-9B20-F07C10F82EEB";
name = "Regular InsideShadow";
shapes = (
{
closed = 1;
nodes = (
(451,323,o),
(391,275,o),
(333,258,c),
(418,84,l),
(418,189,l),
(442,193,o),
(466,201,o),
(497,228,c),
(511,242,o),
(535,275,o),
(535,337,c),
(451,413,l)
);
},
{
closed = 1;
nodes = (
(171,0,l),
(267,-70,l),
(484,-70,l),
(393,0,l)
);
},
{
closed = 1;
nodes = (
(53,598,l),
(119,519,l),
(119,598,l)
);
},
{
closed = 1;
nodes = (
(291,360,l),
(302,361,o),
(312,365,o),
(319,372,c),
(319,499,l),
(291,533,l)
);
},
{
closed = 1;
nodes = (
(535,406,l),
(535,493,l),
(451,598,ls)
);
},
{
closed = 1;
nodes = (
(451,598,l),
(535,493,l),
(601,493,l),
(516,598,l)
);
}
);
width = 570;
},
{
anchors = (
{
name = ogonek;
pos = (518,-1);
},
{
name = top;
pos = (284,700);
}
);
layerId = "251EB316-0412-4A3C-A569-0EEB43C6D9CE";
name = "Regular Shadow";
shapes = (
{
closed = 1;
nodes = (
(25,423,l),
(25,321,l),
(78,321,l),
(78,203,ls),
(78,134,o),
(112,78,o),
(171,52,c),
(171,107,l),
(229,107,l),
(229,262,l),
(215,268,o),
(201,275,o),
(189,283,cs),
(144,317,o),
(119,358,o),
(119,420,c),
(119,509,l)
);
},
{
closed = 1;
nodes = (
(119,-100,l),
(119,-216,l),
(339,-216,l),
(484,-70,l),
(267,-70,l),
(191,-14,l)
);
},
{
closed = 1;
nodes = (
(319,499,l),
(319,372,l),
(342,392,o),
(342,406,o),
(342,430,cs),
(342,521,l)
);
},
{
closed = 1;
nodes = (
(535,493,l),
(535,406,l),
(601,493,l)
);
}
);
width = 570;
}
);
unicode = 89;
}
{
glyphname = Z;
layers = (
{
anchors = (
{
name = ogonek;
pos = (523,-1);
},
{
name = top;
pos = (289,700);
}
);
layerId = "8706937B-409E-4048-AB1C-4F6C90F3053E";
name = "Regular Front";
shapes = (
{
closed = 1;
nodes = (
(73,700,l),
(73,469,l),
(178,469,l),
(178,598,l),
(328,598,l),
(260,390,l),
(172,390,l),
(172,281,l),
(224,281,l),
(142,107,l),
(74,107,l),
(74,0,l),
(501,0,l),
(501,230,l),
(396,230,l),
(396,108,l),
(246,108,l),
(327,281,l),
(425,281,l),
(425,391,l),
(363,391,l),
(432,598,l),
(500,598,l),
(500,700,l)
);
}
);
width = 574;
},
{
anchors = (
{
name = ogonek;
pos = (523,-1);
},
{
name = top;
pos = (289,700);
}
);
layerId = "C85A4985-4A4B-40F2-9F5D-E307D783C1A5";
name = "Regular InsideLight";
shapes = (
{
closed = 1;
nodes = (
(501,0,l),
(585,-70,l),
(585,152,l),
(501,230,l)
);
},
{
closed = 1;
nodes = (
(246,108,l),
(306,108,l),
(327,281,l)
);
},
{
closed = 1;
nodes = (
(178,469,l),
(247,402,l),
(247,436,l),
(178,598,l)
);
},
{
closed = 1;
nodes = (
(425,281,l),
(469,230,l),
(501,230,l),
(515,217,l),
(515,279,l),
(469,336,l),
(425,391,l)
);
},
{
closed = 1;
nodes = (
(363,391,l),
(403,391,l),
(432,598,l)
);
},
{
closed = 1;
nodes = (
(500,598,l),
(599,493,l),
(599,587,l),
(500,700,l)
);
}
);
width = 574;
},
{
anchors = (
{
name = ogonek;
pos = (523,-1);
},
{
name = top;
pos = (289,700);
}
);
layerId = "2AF69027-8699-4DA7-9B20-F07C10F82EEB";
name = "Regular InsideShadow";
shapes = (
{
closed = 1;
nodes = (
(363,391,l),
(425,391,l),
(469,336,l),
(530,493,l),
(432,598,l)
);
},
{
closed = 1;
nodes = (
(74,0,l),
(181,-70,l),
(585,-70,l),
(501,0,l)
);
},
{
closed = 1;
nodes = (
(172,281,l),
(204,238,l),
(224,281,l)
);
},
{
closed = 1;
nodes = (
(246,108,l),
(368,108,l),
(396,173,l),
(396,230,l),
(327,281,l)
);
},
{
closed = 1;
nodes = (
(247,436,l),
(247,402,l),
(178,469,l),
(73,469,l),
(172,369,l),
(172,390,l),
(260,390,l),
(260,493,l),
(178,598,l)
);
},
{
closed = 1;
nodes = (
(327,281,l),
(396,230,l),
(469,230,l),
(425,281,l)
);
},
{
closed = 1;
nodes = (
(178,598,l),
(260,493,l),
(294,493,l),
(328,598,l)
);
},
{
closed = 1;
nodes = (
(432,598,l),
(530,493,l),
(599,493,l),
(500,598,l)
);
}
);
width = 574;
},
{
anchors = (
{
name = ogonek;
pos = (523,-1);
},
{
name = top;
pos = (289,700);
}
);
layerId = "251EB316-0412-4A3C-A569-0EEB43C6D9CE";
name = "Regular Shadow";
shapes = (
{
closed = 1;
nodes = (
(16,-100,l),
(16,-216,l),
(405,-216,l),
(585,-70,l),
(181,-70,l),
(90,-11,l)
);
},
{
closed = 1;
nodes = (
(159,238,l),
(107,159,l),
(107,107,l),
(142,107,l),
(204,238,l)
);
},
{
closed = 1;
nodes = (
(15,472,l),
(15,238,l),
(204,238,l),
(172,281,l),
(172,369,l),
(73,469,l),
(73,526,l)
);
},
{
closed = 1;
nodes = (
(368,108,l),
(396,108,l),
(396,173,l)
);
},
{
closed = 1;
nodes = (
(260,493,l),
(260,390,l),
(294,493,l)
);
},
{
closed = 1;
nodes = (
(530,493,l),
(469,336,l),
(481,321,l),
(599,493,l)
);
}
);
width = 574;
}
);
unicode = 90;
}
{
glyphname = backslash;
layers = (
{
layerId = "8706937B-409E-4048-AB1C-4F6C90F3053E";
name = "Regular Front";
shapes = (
{
closed = 1;
nodes = (
(80,700,l),
(280,-1,l),
(384,-1,l),
(183,700,l)
);
}
);
width = 447;
},
{
layerId = "C85A4985-4A4B-40F2-9F5D-E307D783C1A5";
name = "Regular InsideLight";
shapes = (
{
closed = 1;
nodes = (
(384,-1,l),
(482,-70,l),
(282,587,l),
(183,700,l)
);
}
);
width = 447;
},
{
layerId = "2AF69027-8699-4DA7-9B20-F07C10F82EEB";
name = "Regular InsideShadow";
shapes = (
{
closed = 1;
nodes = (
(280,-1,l),
(387,-70,l),
(482,-70,l),
(384,-1,l)
);
}
);
width = 447;
},
{
layerId = "251EB316-0412-4A3C-A569-0EEB43C6D9CE";
name = "Regular Shadow";
shapes = (
{
closed = 1;
nodes = (
(35,468,l),
(235,-216,l),
(329,-216,l),
(482,-70,l),
(387,-70,l),
(280,-1,l),
(124,549,l)
);
}
);
width = 447;
}
);
unicode = 92;
}
{
glyphname = underscore;
layers = (
{
layerId = "8706937B-409E-4048-AB1C-4F6C90F3053E";
name = "Regular Front";
shapes = (
{
closed = 1;
nodes = (
(-368,107,l),
(-368,0,l),
(-88,0,l),
(-88,107,l)
);
}
);
width = 35;
},
{
layerId = "C85A4985-4A4B-40F2-9F5D-E307D783C1A5";
name = "Regular InsideLight";
shapes = (
{
closed = 1;
nodes = (
(-88,0,l),
(-4,-70,l),
(-4,30,l),
(-88,107,l)
);
}
);
width = 35;
},
{
layerId = "2AF69027-8699-4DA7-9B20-F07C10F82EEB";
name = "Regular InsideShadow";
shapes = (
{
closed = 1;
nodes = (
(-368,0,l),
(-261,-70,l),
(-4,-70,l),
(-88,0,l)
);
}
);
width = 35;
},
{
layerId = "251EB316-0412-4A3C-A569-0EEB43C6D9CE";
name = "Regular Shadow";
shapes = (
{
closed = 1;
nodes = (
(-394,-133,l),
(-394,-216,l),
(-114,-216,l),
(-4,-70,l),
(-261,-70,l),
(-302,-43,l)
);
}
);
width = 35;
}
);
unicode = 95;
}
{
glyphname = grave;
layers = (
{
anchors = (
{
name = _top;
pos = (308,538);
}
);
layerId = "251EB316-0412-4A3C-A569-0EEB43C6D9CE";
name = "Regular Shadow";
shapes = (
{
closed = 1;
nodes = (
(235,600,l),
(164,436,l),
(294,436,l),
(404,581,l),
(297,581,l),
(247,614,l)
);
}
);
width = 600;
},
{
anchors = (
{
name = _top;
pos = (308,538);
}
);
layerId = "2AF69027-8699-4DA7-9B20-F07C10F82EEB";
name = "Regular InsideShadow";
shapes = (
{
closed = 1;
nodes = (
(190,652,l),
(297,581,l),
(404,581,l),
(320,652,l)
);
}
);
width = 600;
},
{
anchors = (
{
name = _top;
pos = (308,538);
}
);
layerId = "C85A4985-4A4B-40F2-9F5D-E307D783C1A5";
name = "Regular InsideLight";
shapes = (
{
closed = 1;
nodes = (
(320,652,l),
(404,581,l),
(473,722,l),
(390,800,l)
);
}
);
width = 600;
},
{
anchors = (
{
name = _top;
pos = (308,538);
}
);
layerId = "8706937B-409E-4048-AB1C-4F6C90F3053E";
name = "Regular Front";
shapes = (
{
closed = 1;
nodes = (
(260,800,l),
(190,652,l),
(320,652,l),
(390,800,l)
);
}
);
width = 600;
}
);
unicode = 96;
}
{
glyphname = a;
layers = (
{
anchors = (
{
name = ogonek;
pos = (372,-1);
},
{
name = top;
pos = (256,700);
}
);
layerId = "8706937B-409E-4048-AB1C-4F6C90F3053E";
name = "Regular Front";
shapes = (
{
closed = 1;
nodes = (
(154,710,o),
(89,627,o),
(89,538,cs),
(89,436,l),
(89,0,l),
(194,0,l),
(194,267,l),
(319,267,l),
(319,0,l),
(425,0,l),
(425,558,ls),
(425,603,o),
(402,644,o),
(367,672,cs),
(337,696,o),
(298,710,o),
(255,710,cs)
);
},
{
closed = 1;
nodes = (
(294,604,o),
(319,575,o),
(319,540,cs),
(319,372,l),
(194,372,l),
(194,543,ls),
(194,575,o),
(216,604,o),
(257,604,cs)
);
}
);
width = 494;
},
{
anchors = (
{
name = ogonek;
pos = (372,-1);
},
{
name = top;
pos = (256,700);
}
);
layerId = "C85A4985-4A4B-40F2-9F5D-E307D783C1A5";
name = "Regular InsideLight";
shapes = (
{
closed = 1;
nodes = (
(402,644,o),
(425,603,o),
(425,558,c),
(425,0,l),
(508,-70,l),
(509,433,l),
(509,469,o),
(498,500,o),
(476,529,cs),
(448,568,o),
(402,644,o),
(367,672,c)
);
},
{
closed = 1;
nodes = (
(194,0,l),
(259,-50,l),
(259,115,l),
(194,267,l)
);
},
{
closed = 1;
nodes = (
(194,372,l),
(259,372,l),
(259,411,l),
(194,543,l)
);
}
);
width = 494;
},
{
anchors = (
{
name = ogonek;
pos = (372,-1);
},
{
name = top;
pos = (256,700);
}
);
layerId = "2AF69027-8699-4DA7-9B20-F07C10F82EEB";
name = "Regular InsideShadow";
shapes = (
{
closed = 1;
nodes = (
(259,115,l),
(259,-50,l),
(289,-70,l),
(289,176,l),
(194,267,l)
);
},
{
closed = 1;
nodes = (
(89,0,l),
(193,-70,l),
(289,-70,l),
(194,0,l)
);
},
{
closed = 1;
nodes = (
(319,0,l),
(410,-70,l),
(508,-70,l),
(425,0,l)
);
},
{
closed = 1;
nodes = (
(194,267,l),
(289,176,l),
(319,176,l),
(319,267,l)
);
},
{
closed = 1;
nodes = (
(259,411,l),
(259,372,l),
(289,372,l),
(289,438,l),
(194,543,l)
);
},
{
closed = 1;
nodes = (
(216,604,o),
(194,575,o),
(194,543,c),
(289,438,l),
(289,454,o),
(304,471,o),
(319,481,c),
(319,540,l),
(319,575,o),
(294,604,o),
(257,604,cs)
);
}
);
width = 494;
},
{
anchors = (
{
name = ogonek;
pos = (372,-1);
},
{
name = top;
pos = (256,700);
}
);
layerId = "251EB316-0412-4A3C-A569-0EEB43C6D9CE";
name = "Regular Shadow";
shapes = (
{
closed = 1;
nodes = (
(66,416,o),
(35,364,o),
(35,321,c),
(35,-216,l),
(137,-216,l),
(263,-93,l),
(263,-216,l),
(361,-216,l),
(508,-70,l),
(410,-70,l),
(319,0,l),
(319,176,l),
(289,176,l),
(289,-70,l),
(193,-70,l),
(89,0,l),
(89,436,l)
);
},
{
closed = 1;
nodes = (
(304,471,o),
(289,454,o),
(289,438,cs),
(289,372,l),
(319,372,l),
(319,481,l)
);
}
);
width = 494;
}
);
unicode = 97;
}
{
glyphname = b;
layers = (
{
anchors = (
{
name = ogonek;
pos = (483,-1);
},
{
name = top;
pos = (249,700);
}
);
layerId = "8706937B-409E-4048-AB1C-4F6C90F3053E";
name = "Regular Front";
shapes = (
{
closed = 1;
nodes = (
(93,700,l),
(93,0,l),
(263,0,ls),
(330,0,o),
(428,46,o),
(428,162,cs),
(428,267,ls),
(428,296,o),
(422,318,o),
(398,338,c),
(383,349,o),
(355,368,o),
(341,373,c),
(383,389,o),
(424,423,o),
(426,461,c),
(426,552,l),
(425,634,o),
(336,700,o),
(260,700,cs)
);
},
{
closed = 1;
nodes = (
(294,307,o),
(318,289,o),
(318,248,c),
(318,173,ls),
(318,145,o),
(311,126,o),
(295,116,cs),
(286,110,o),
(273,107,o),
(257,107,cs),
(198,107,l),
(198,307,l),
(257,307,l)
);
},
{
closed = 1;
nodes = (
(293,598,o),
(317,575,o),
(317,541,cs),
(317,467,l),
(317,448,o),
(314,428,o),
(295,415,cs),
(286,409,o),
(272,404,o),
(257,404,c),
(197,404,l),
(197,598,l),
(256,598,ls)
);
}
);
width = 496;
},
{
anchors = (
{
name = ogonek;
pos = (483,-1);
},
{
name = top;
pos = (249,700);
}
);
layerId = "C85A4985-4A4B-40F2-9F5D-E307D783C1A5";
name = "Regular InsideLight";
shapes = (
{
closed = 1;
nodes = (
(414,611,o),
(426,582,o),
(426,551,c),
(426,461,l),
(511,382,l),
(511,430,ls),
(511,465,o),
(500,495,o),
(479,523,cs),
(450,561,o),
(422,597,o),
(394,634,c)
);
},
{
closed = 1;
nodes = (
(198,107,l),
(257,107,l),
(257,173,l),
(198,307,l)
);
},
{
closed = 1;
nodes = (
(422,318,o),
(428,296,o),
(428,267,c),
(428,162,l),
(511,85,l),
(511,182,l),
(510,224,o),
(491,259,o),
(464,283,c),
(398,338,l)
);
},
{
closed = 1;
nodes = (
(197,404,l),
(257,404,l),
(257,460,l),
(197,598,l)
);
}
);
width = 496;
},
{
anchors = (
{
name = ogonek;
pos = (483,-1);
},
{
name = top;
pos = (249,700);
}
);
layerId = "2AF69027-8699-4DA7-9B20-F07C10F82EEB";
name = "Regular InsideShadow";
shapes = (
{
closed = 1;
nodes = (
(428,46,o),
(330,0,o),
(263,0,cs),
(236,0,l),
(327,-70,l),
(359,-70,ls),
(380,-70,o),
(429,-63,o),
(473,-23,cs),
(487,-11,o),
(511,23,o),
(511,85,c),
(428,162,l)
);
},
{
closed = 1;
nodes = (
(180,-70,l),
(327,-70,l),
(236,0,l),
(93,0,l)
);
},
{
closed = 1;
nodes = (
(198,307,l),
(257,173,l),
(257,107,l),
(273,107,o),
(286,110,o),
(295,116,c),
(295,216,l),
(318,216,l),
(318,248,ls),
(318,289,o),
(294,307,o),
(257,307,cs)
);
},
{
closed = 1;
nodes = (
(424,423,o),
(383,389,o),
(341,373,c),
(355,368,o),
(383,349,o),
(398,338,c),
(439,304,l),
(474,313,o),
(511,347,o),
(511,382,c),
(426,461,l)
);
},
{
closed = 1;
nodes = (
(197,598,l),
(257,460,l),
(257,404,l),
(272,404,o),
(286,409,o),
(295,415,c),
(295,493,l),
(317,493,l),
(317,541,ls),
(317,575,o),
(293,598,o),
(256,598,cs)
);
}
);
width = 496;
},
{
anchors = (
{
name = ogonek;
pos = (483,-1);
},
{
name = top;
pos = (249,700);
}
);
layerId = "251EB316-0412-4A3C-A569-0EEB43C6D9CE";
name = "Regular Shadow";
shapes = (
{
closed = 1;
nodes = (
(35,472,l),
(35,-216,l),
(210,-216,ls),
(254,-216,o),
(292,-197,o),
(325,-166,cs),
(473,-23,l),
(429,-63,o),
(380,-70,o),
(359,-70,cs),
(327,-70,l),
(180,-70,l),
(93,0,l),
(93,526,l)
);
},
{
closed = 1;
nodes = (
(295,216,l),
(295,116,l),
(311,126,o),
(318,145,o),
(318,173,cs),
(318,216,l)
);
},
{
closed = 1;
nodes = (
(295,493,l),
(295,415,l),
(314,428,o),
(317,448,o),
(317,467,cs),
(317,493,l)
);
}
);
width = 496;
}
);
unicode = 98;
}
{
glyphname = c;
layers = (
{
anchors = (
{
name = ogonek;
pos = (483,-1);
},
{
name = top;
pos = (249,700);
}
);
layerId = "8706937B-409E-4048-AB1C-4F6C90F3053E";
name = "Regular Front";
shapes = (
{
closed = 1;
nodes = (
(148,706,o),
(83,625,o),
(83,537,cs),
(83,160,ls),
(83,114,o),
(108,59,o),
(153,25,cs),
(180,5,o),
(212,-8,o),
(251,-8,cs),
(318,-8,o),
(416,39,o),
(416,155,cs),
(416,245,l),
(306,245,l),
(306,172,ls),
(306,153,o),
(298,131,o),
(283,114,c),
(276,107,o),
(265,101,o),
(255,101,cs),
(207,101,o),
(186,132,o),
(186,166,cs),
(186,543,ls),
(186,573,o),
(204,602,o),
(245,602,cs),
(282,602,o),
(306,574,o),
(306,540,cs),
(306,460,l),
(414,460,l),
(414,557,l),
(414,588,o),
(401,615,o),
(382,639,cs),
(349,679,o),
(296,706,o),
(248,706,cs)
);
}
);
width = 484;
},
{
anchors = (
{
name = ogonek;
pos = (483,-1);
},
{
name = top;
pos = (249,700);
}
);
layerId = "C85A4985-4A4B-40F2-9F5D-E307D783C1A5";
name = "Regular InsideLight";
shapes = (
{
closed = 1;
nodes = (
(401,615,o),
(414,588,o),
(414,557,c),
(414,460,l),
(499,362,l),
(499,436,ls),
(499,471,o),
(487,500,o),
(467,529,cs),
(420,598,o),
(411,607,o),
(382,639,c)
);
},
{
closed = 1;
nodes = (
(186,166,ls),
(186,132,o),
(207,101,o),
(255,101,c),
(255,386,l),
(186,543,l)
);
},
{
closed = 1;
nodes = (
(416,155,l),
(499,78,l),
(499,142,l),
(416,245,l)
);
}
);
width = 484;
},
{
anchors = (
{
name = ogonek;
pos = (483,-1);
},
{
name = top;
pos = (249,700);
}
);
layerId = "2AF69027-8699-4DA7-9B20-F07C10F82EEB";
name = "Regular InsideShadow";
shapes = (
{
closed = 1;
nodes = (
(416,39,o),
(318,-8,o),
(251,-8,cs),
(212,-8,o),
(180,5,o),
(153,25,c),
(266,-56,l),
(285,-71,o),
(307,-77,o),
(347,-77,cs),
(368,-77,o),
(417,-75,o),
(461,-30,cs),
(474,-17,o),
(499,16,o),
(499,78,c),
(416,155,l)
);
},
{
closed = 1;
nodes = (
(204,602,o),
(186,573,o),
(186,543,c),
(255,386,l),
(255,101,l),
(265,101,o),
(276,107,o),
(283,114,c),
(283,437,ls),
(283,456,o),
(293,471,o),
(306,482,c),
(306,540,ls),
(306,574,o),
(282,602,o),
(245,602,cs)
);
},
{
closed = 1;
nodes = (
(306,460,l),
(397,362,l),
(499,362,l),
(414,460,l)
);
}
);
width = 484;
},
{
anchors = (
{
name = ogonek;
pos = (483,-1);
},
{
name = top;
pos = (249,700);
}
);
layerId = "251EB316-0412-4A3C-A569-0EEB43C6D9CE";
name = "Regular Shadow";
shapes = (
{
closed = 1;
nodes = (
(51,402,o),
(35,364,o),
(35,319,cs),
(35,-56,ls),
(35,-147,o),
(95,-220,o),
(198,-220,cs),
(242,-220,o),
(280,-204,o),
(313,-173,cs),
(461,-30,l),
(417,-75,o),
(368,-77,o),
(347,-77,cs),
(307,-77,o),
(285,-71,o),
(266,-56,c),
(153,25,l),
(108,59,o),
(83,114,o),
(83,160,c),
(83,434,l)
);
},
{
closed = 1;
nodes = (
(293,471,o),
(283,456,o),
(283,437,cs),
(283,114,l),
(298,131,o),
(306,153,o),
(306,172,cs),
(306,245,l),
(388,245,l),
(499,362,l),
(397,362,l),
(306,460,l),
(306,482,l)
);
}
);
width = 484;
}
);
unicode = 99;
}
{
glyphname = d;
layers = (
{
anchors = (
{
name = ogonek;
pos = (493,-1);
},
{
name = top;
pos = (259,700);
}
);
layerId = "8706937B-409E-4048-AB1C-4F6C90F3053E";
name = "Regular Front";
shapes = (
{
closed = 1;
nodes = (
(94,700,l),
(94,0,l),
(264,0,ls),
(331,0,o),
(429,46,o),
(429,162,c),
(427,551,l),
(427,633,o),
(337,700,o),
(261,700,cs)
);
},
{
closed = 1;
nodes = (
(295,598,o),
(319,575,o),
(319,541,cs),
(319,174,ls),
(319,155,o),
(318,133,o),
(296,116,c),
(289,111,o),
(278,107,o),
(268,107,c),
(199,107,l),
(199,544,l),
(199,598,l),
(258,598,l)
);
}
);
width = 497;
},
{
anchors = (
{
name = ogonek;
pos = (493,-1);
},
{
name = top;
pos = (259,700);
}
);
layerId = "C85A4985-4A4B-40F2-9F5D-E307D783C1A5";
name = "Regular InsideLight";
shapes = (
{
closed = 1;
nodes = (
(415,611,o),
(427,582,o),
(427,551,c),
(429,162,l),
(512,85,l),
(512,430,ls),
(512,465,o),
(501,495,o),
(480,523,cs),
(451,561,o),
(423,597,o),
(395,634,c)
);
},
{
closed = 1;
nodes = (
(199,107,l),
(268,107,l),
(268,387,l),
(199,544,l)
);
}
);
width = 497;
},
{
anchors = (
{
name = ogonek;
pos = (493,-1);
},
{
name = top;
pos = (259,700);
}
);
layerId = "2AF69027-8699-4DA7-9B20-F07C10F82EEB";
name = "Regular InsideShadow";
shapes = (
{
closed = 1;
nodes = (
(429,46,o),
(331,0,o),
(264,0,cs),
(237,0,l),
(328,-70,l),
(360,-70,ls),
(381,-70,o),
(430,-63,o),
(474,-23,cs),
(488,-11,o),
(512,23,o),
(512,85,c),
(429,162,l)
);
},
{
closed = 1;
nodes = (
(191,-70,l),
(328,-70,l),
(237,0,l),
(94,0,l)
);
},
{
closed = 1;
nodes = (
(199,598,l),
(199,544,l),
(268,387,l),
(268,107,l),
(278,107,o),
(289,111,o),
(296,116,c),
(296,493,l),
(319,493,l),
(319,541,ls),
(319,575,o),
(295,598,o),
(258,598,c)
);
}
);
width = 497;
},
{
anchors = (
{
name = ogonek;
pos = (493,-1);
},
{
name = top;
pos = (259,700);
}
);
layerId = "251EB316-0412-4A3C-A569-0EEB43C6D9CE";
name = "Regular Shadow";
shapes = (
{
closed = 1;
nodes = (
(35,471,l),
(35,-216,l),
(211,-216,ls),
(255,-216,o),
(293,-197,o),
(326,-166,cs),
(474,-23,l),
(430,-63,o),
(381,-70,o),
(360,-70,cs),
(328,-70,l),
(191,-70,l),
(94,0,l),
(94,526,l)
);
},
{
closed = 1;
nodes = (
(296,493,l),
(296,116,l),
(318,133,o),
(319,155,o),
(319,174,cs),
(319,493,l)
);
}
);
width = 497;
}
);
unicode = 100;
}
{
glyphname = f;
layers = (
{
anchors = (
{
name = ogonek;
pos = (473,-1);
},
{
name = top;
pos = (239,700);
}
);
layerId = "8706937B-409E-4048-AB1C-4F6C90F3053E";
name = "Regular Front";
shapes = (
{
closed = 1;
nodes = (
(87,700,l),
(87,0,l),
(192,0,l),
(192,301,l),
(334,301,l),
(334,405,l),
(192,405,l),
(192,598,l),
(387,598,l),
(387,700,l)
);
}
);
width = 435;
},
{
anchors = (
{
name = ogonek;
pos = (473,-1);
},
{
name = top;
pos = (239,700);
}
);
layerId = "C85A4985-4A4B-40F2-9F5D-E307D783C1A5";
name = "Regular InsideLight";
shapes = (
{
closed = 1;
nodes = (
(192,0,l),
(290,-70,l),
(290,90,l),
(192,301,l)
);
},
{
closed = 1;
nodes = (
(334,301,l),
(423,210,l),
(423,310,l),
(334,405,l)
);
},
{
closed = 1;
nodes = (
(192,405,l),
(282,405,l),
(192,598,l)
);
},
{
closed = 1;
nodes = (
(387,598,l),
(470,493,l),
(470,587,l),
(387,700,l)
);
}
);
width = 435;
},
{
anchors = (
{
name = ogonek;
pos = (473,-1);
},
{
name = top;
pos = (239,700);
}
);
layerId = "2AF69027-8699-4DA7-9B20-F07C10F82EEB";
name = "Regular InsideShadow";
shapes = (
{
closed = 1;
nodes = (
(192,598,l),
(290,493,l),
(470,493,l),
(387,598,l)
);
},
{
closed = 1;
nodes = (
(87,0,l),
(192,-70,l),
(290,-70,l),
(192,0,l)
);
},
{
closed = 1;
nodes = (
(290,89,l),
(290,210,l),
(192,301,l)
);
},
{
closed = 1;
nodes = (
(192,301,l),
(290,210,l),
(423,210,l),
(334,301,l)
);
},
{
closed = 1;
nodes = (
(282,405,l),
(290,405,l),
(290,493,l),
(192,598,l)
);
}
);
width = 435;
},
{
anchors = (
{
name = ogonek;
pos = (473,-1);
},
{
name = top;
pos = (239,700);
}
);
layerId = "251EB316-0412-4A3C-A569-0EEB43C6D9CE";
name = "Regular Shadow";
shapes = (
{
closed = 1;
nodes = (
(35,474,l),
(35,-216,l),
(140,-216,l),
(290,-70,l),
(192,-70,l),
(87,0,l),
(87,526,l)
);
},
{
closed = 1;
nodes = (
(290,210,l),
(290,89,l),
(423,210,l)
);
},
{
closed = 1;
nodes = (
(290,493,l),
(290,405,l),
(334,405,l),
(349,389,l),
(470,493,l)
);
}
);
width = 435;
}
);
unicode = 102;
}
{
glyphname = g;
layers = (
{
anchors = (
{
name = bottom;
pos = (253,0);
},
{
name = ogonek;
pos = (483,-1);
},
{
name = top;
pos = (249,700);
}
);
layerId = "8706937B-409E-4048-AB1C-4F6C90F3053E";
name = "Regular Front";
shapes = (
{
closed = 1;
nodes = (
(148,706,o),
(83,625,o),
(83,537,cs),
(83,160,ls),
(83,114,o),
(98,55,o),
(144,21,cs),
(171,1,o),
(212,-8,o),
(251,-8,cs),
(318,-8,o),
(416,39,o),
(416,155,c),
(416,348,l),
(248,348,l),
(248,242,l),
(306,242,l),
(306,172,ls),
(306,153,o),
(303,134,o),
(283,114,cs),
(276,107,o),
(265,101,o),
(255,101,c),
(251,101,l),
(207,101,o),
(186,132,o),
(186,166,cs),
(186,543,ls),
(186,573,o),
(204,602,o),
(245,602,cs),
(282,602,o),
(306,574,o),
(306,540,cs),
(306,460,l),
(416,460,l),
(414,557,l),
(414,639,o),
(324,706,o),
(248,706,cs)
);
}
);
width = 484;
},
{
anchors = (
{
name = bottom;
pos = (253,0);
},
{
name = ogonek;
pos = (483,-1);
},
{
name = top;
pos = (249,700);
}
);
layerId = "C85A4985-4A4B-40F2-9F5D-E307D783C1A5";
name = "Regular InsideLight";
shapes = (
{
closed = 1;
nodes = (
(402,617,o),
(414,588,o),
(414,557,c),
(416,460,l),
(499,362,l),
(499,436,ls),
(499,471,o),
(488,501,o),
(467,529,cs),
(438,567,o),
(410,604,o),
(382,639,c)
);
},
{
closed = 1;
nodes = (
(186,166,ls),
(186,132,o),
(207,101,o),
(251,101,cs),
(255,101,l),
(255,235,l),
(248,242,l),
(248,348,l),
(255,348,l),
(255,386,l),
(186,543,l)
);
},
{
closed = 1;
nodes = (
(416,155,l),
(499,78,l),
(498,238,l),
(416,348,l)
);
}
);
width = 484;
},
{
anchors = (
{
name = bottom;
pos = (253,0);
},
{
name = ogonek;
pos = (483,-1);
},
{
name = top;
pos = (249,700);
}
);
layerId = "2AF69027-8699-4DA7-9B20-F07C10F82EEB";
name = "Regular InsideShadow";
shapes = (
{
closed = 1;
nodes = (
(416,39,o),
(318,-8,o),
(251,-8,cs),
(212,-8,o),
(171,1,o),
(144,21,c),
(171,1,o),
(235,-46,o),
(264,-60,cs),
(285,-70,o),
(307,-77,o),
(347,-77,cs),
(368,-77,o),
(417,-70,o),
(461,-30,cs),
(475,-18,o),
(499,16,o),
(499,78,c),
(416,155,l)
);
},
{
closed = 1;
nodes = (
(255,101,l),
(265,101,o),
(276,107,o),
(283,114,c),
(283,207,l),
(255,235,l)
);
},
{
closed = 1;
nodes = (
(248,242,l),
(306,184,l),
(306,242,l)
);
},
{
closed = 1;
nodes = (
(204,602,o),
(186,573,o),
(186,543,c),
(255,386,l),
(255,348,l),
(283,348,l),
(283,437,ls),
(283,456,o),
(293,471,o),
(306,482,c),
(306,540,ls),
(306,574,o),
(282,602,o),
(245,602,cs)
);
},
{
closed = 1;
nodes = (
(306,460,l),
(397,362,l),
(499,362,l),
(416,460,l)
);
}
);
width = 484;
},
{
anchors = (
{
name = bottom;
pos = (253,0);
},
{
name = ogonek;
pos = (483,-1);
},
{
name = top;
pos = (249,700);
}
);
layerId = "251EB316-0412-4A3C-A569-0EEB43C6D9CE";
name = "Regular Shadow";
shapes = (
{
closed = 1;
nodes = (
(51,402,o),
(35,364,o),
(35,319,cs),
(35,-56,ls),
(35,-147,o),
(95,-220,o),
(198,-220,cs),
(242,-220,o),
(278,-202,o),
(313,-173,cs),
(367,-129,o),
(416,-84,o),
(461,-30,c),
(417,-70,o),
(368,-77,o),
(347,-77,cs),
(307,-77,o),
(285,-70,o),
(264,-60,cs),
(235,-46,o),
(171,1,o),
(144,21,cs),
(98,55,o),
(83,114,o),
(83,160,c),
(83,434,l)
);
},
{
closed = 1;
nodes = (
(283,114,l),
(303,134,o),
(306,153,o),
(306,172,c),
(306,184,l),
(283,207,l)
);
},
{
closed = 1;
nodes = (
(293,471,o),
(283,456,o),
(283,437,c),
(283,348,l),
(416,348,l),
(455,297,l),
(499,362,l),
(397,362,l),
(306,460,l),
(306,482,l)
);
}
);
width = 484;
}
);
unicode = 103;
}
{
glyphname = h;
layers = (
{
anchors = (
{
name = ogonek;
pos = (483,-1);
},
{
name = top;
pos = (249,700);
}
);
layerId = "8706937B-409E-4048-AB1C-4F6C90F3053E";
name = "Regular Front";
shapes = (
{
closed = 1;
nodes = (
(314,700,l),
(314,405,l),
(185,405,l),
(185,700,l),
(80,700,l),
(80,0,l),
(185,0,l),
(185,300,l),
(314,300,l),
(314,0,l),
(420,0,l),
(421,700,l)
);
}
);
width = 500;
},
{
anchors = (
{
name = ogonek;
pos = (483,-1);
},
{
name = top;
pos = (249,700);
}
);
layerId = "C85A4985-4A4B-40F2-9F5D-E307D783C1A5";
name = "Regular InsideLight";
shapes = (
{
closed = 1;
nodes = (
(420,0,l),
(505,-70,l),
(505,581,l),
(421,700,l)
);
},
{
closed = 1;
nodes = (
(185,0,l),
(263,-58,l),
(263,127,l),
(185,300,l)
);
},
{
closed = 1;
nodes = (
(185,405,l),
(263,405,l),
(263,530,l),
(282,503,l),
(282,586,l),
(185,700,l)
);
}
);
width = 500;
},
{
anchors = (
{
name = ogonek;
pos = (483,-1);
},
{
name = top;
pos = (249,700);
}
);
layerId = "2AF69027-8699-4DA7-9B20-F07C10F82EEB";
name = "Regular InsideShadow";
shapes = (
{
closed = 1;
nodes = (
(263,127,l),
(263,-58,l),
(282,-70,l),
(282,210,l),
(185,300,l)
);
},
{
closed = 1;
nodes = (
(80,0,l),
(186,-70,l),
(282,-70,l),
(185,0,l)
);
},
{
closed = 1;
nodes = (
(314,0,l),
(407,-70,l),
(505,-70,l),
(420,0,l)
);
},
{
closed = 1;
nodes = (
(185,300,l),
(282,210,l),
(314,210,l),
(314,300,l)
);
},
{
closed = 1;
nodes = (
(263,405,l),
(282,405,l),
(282,503,l),
(263,530,l)
);
}
);
width = 500;
},
{
anchors = (
{
name = ogonek;
pos = (483,-1);
},
{
name = top;
pos = (249,700);
}
);
layerId = "251EB316-0412-4A3C-A569-0EEB43C6D9CE";
name = "Regular Shadow";
shapes = (
{
closed = 1;
nodes = (
(25,462,l),
(25,-216,l),
(128,-216,l),
(253,-109,l),
(253,-216,l),
(370,-216,l),
(505,-70,l),
(407,-70,l),
(314,0,l),
(314,210,l),
(282,210,l),
(282,-70,l),
(186,-70,l),
(80,0,l),
(80,528,l)
);
},
{
closed = 1;
nodes = (
(282,503,l),
(282,405,l),
(314,405,l),
(314,530,l)
);
}
);
width = 500;
}
);
unicode = 104;
}
{
glyphname = i;
layers = (
{
anchors = (
{
name = ogonek;
pos = (184,0);
},
{
name = top;
pos = (129,700);
}
);
layerId = "8706937B-409E-4048-AB1C-4F6C90F3053E";
name = "Regular Front";
shapes = (
{
closed = 1;
nodes = (
(80,700,l),
(80,0,l),
(184,0,l),
(184,700,l)
);
}
);
width = 277;
},
{
anchors = (
{
name = ogonek;
pos = (184,0);
},
{
name = top;
pos = (129,700);
}
);
layerId = "C85A4985-4A4B-40F2-9F5D-E307D783C1A5";
name = "Regular InsideLight";
shapes = (
{
closed = 1;
nodes = (
(184,0,l),
(282,-70,l),
(282,587,l),
(184,700,l)
);
}
);
width = 277;
},
{
anchors = (
{
name = ogonek;
pos = (184,0);
},
{
name = top;
pos = (129,700);
}
);
layerId = "2AF69027-8699-4DA7-9B20-F07C10F82EEB";
name = "Regular InsideShadow";
shapes = (
{
closed = 1;
nodes = (
(80,0,l),
(187,-70,l),
(282,-70,l),
(184,0,l)
);
}
);
width = 277;
},
{
anchors = (
{
name = ogonek;
pos = (184,0);
},
{
name = top;
pos = (129,700);
}
);
layerId = "251EB316-0412-4A3C-A569-0EEB43C6D9CE";
name = "Regular Shadow";
shapes = (
{
closed = 1;
nodes = (
(35,468,l),
(35,-216,l),
(129,-216,l),
(282,-70,l),
(187,-70,l),
(80,0,l),
(80,509,l)
);
}
);
width = 277;
}
);
unicode = 105;
}
{
glyphname = j;
layers = (
{
anchors = (
{
name = ogonek;
pos = (583,-1);
},
{
name = top;
pos = (349,700);
}
);
layerId = "8706937B-409E-4048-AB1C-4F6C90F3053E";
name = "Regular Front";
shapes = (
{
closed = 1;
nodes = (
(309,700,l),
(309,192,l),
(309,153,o),
(286,121,o),
(257,121,cs),
(213,121,o),
(189,152,o),
(189,186,c),
(189,294,l),
(83,294,l),
(83,166,l),
(83,126,o),
(93,69,o),
(153,25,cs),
(180,5,o),
(212,-8,o),
(251,-8,cs),
(318,-8,o),
(415,39,o),
(415,155,c),
(415,700,l)
);
}
);
width = 491;
},
{
anchors = (
{
name = ogonek;
pos = (583,-1);
},
{
name = top;
pos = (349,700);
}
);
layerId = "C85A4985-4A4B-40F2-9F5D-E307D783C1A5";
name = "Regular InsideLight";
shapes = (
{
closed = 1;
nodes = (
(415,155,l),
(500,78,l),
(500,588,l),
(415,700,l)
);
}
);
width = 491;
},
{
anchors = (
{
name = ogonek;
pos = (583,-1);
},
{
name = top;
pos = (349,700);
}
);
layerId = "2AF69027-8699-4DA7-9B20-F07C10F82EEB";
name = "Regular InsideShadow";
shapes = (
{
closed = 1;
nodes = (
(415,39,o),
(318,-8,o),
(251,-8,cs),
(212,-8,o),
(180,5,o),
(153,25,c),
(180,5,o),
(242,-42,o),
(266,-56,cs),
(287,-67,o),
(307,-77,o),
(347,-77,cs),
(368,-77,o),
(417,-70,o),
(461,-30,cs),
(475,-18,o),
(500,16,o),
(500,78,c),
(415,155,l)
);
},
{
closed = 1;
nodes = (
(189,186,l),
(189,152,o),
(213,121,o),
(257,121,c),
(257,165,l),
(189,294,l)
);
}
);
width = 491;
},
{
anchors = (
{
name = ogonek;
pos = (583,-1);
},
{
name = top;
pos = (349,700);
}
);
layerId = "251EB316-0412-4A3C-A569-0EEB43C6D9CE";
name = "Regular Shadow";
shapes = (
{
closed = 1;
nodes = (
(35,166,l),
(35,-56,l),
(35,-147,o),
(95,-220,o),
(198,-220,cs),
(242,-220,o),
(280,-204,o),
(313,-173,cs),
(461,-30,l),
(417,-70,o),
(368,-77,o),
(347,-77,cs),
(307,-77,o),
(287,-67,o),
(266,-56,cs),
(242,-42,o),
(180,5,o),
(153,25,cs),
(93,69,o),
(83,126,o),
(83,166,c)
);
},
{
closed = 1;
nodes = (
(257,489,l),
(257,121,l),
(286,121,o),
(309,153,o),
(309,192,c),
(309,530,l)
);
}
);
width = 491;
}
);
unicode = 106;
}
{
glyphname = k;
layers = (
{
anchors = (
{
name = bottom;
pos = (252,0);
},
{
name = ogonek;
pos = (483,-1);
},
{
name = top;
pos = (249,700);
}
);
layerId = "8706937B-409E-4048-AB1C-4F6C90F3053E";
name = "Regular Front";
shapes = (
{
closed = 1;
nodes = (
(320,700,l),
(214,414,l),
(180,414,l),
(180,700,l),
(77,700,l),
(77,0,l),
(180,0,l),
(180,300,l),
(244,300,ls),
(258,300,o),
(269,295,o),
(276,288,c),
(299,268,o),
(299,254,o),
(299,230,cs),
(299,0,l),
(408,0,l),
(408,247,ls),
(408,295,o),
(401,331,o),
(385,357,cs),
(371,379,o),
(351,394,o),
(324,402,c),
(453,700,l)
);
}
);
width = 503;
},
{
anchors = (
{
name = bottom;
pos = (252,0);
},
{
name = ogonek;
pos = (483,-1);
},
{
name = top;
pos = (249,700);
}
);
layerId = "C85A4985-4A4B-40F2-9F5D-E307D783C1A5";
name = "Regular InsideLight";
shapes = (
{
closed = 1;
nodes = (
(180,0,l),
(252,-51,l),
(252,179,l),
(180,300,l)
);
},
{
closed = 1;
nodes = (
(401,329,o),
(408,291,o),
(408,247,cs),
(408,0,l),
(499,-70,l),
(499,153,ls),
(499,234,o),
(435,292,o),
(416,317,cs),
(385,357,l)
);
},
{
closed = 1;
nodes = (
(180,414,l),
(214,414,l),
(277,584,l),
(277,598,l),
(180,700,l)
);
}
);
width = 503;
},
{
anchors = (
{
name = bottom;
pos = (252,0);
},
{
name = ogonek;
pos = (483,-1);
},
{
name = top;
pos = (249,700);
}
);
layerId = "2AF69027-8699-4DA7-9B20-F07C10F82EEB";
name = "Regular InsideShadow";
shapes = (
{
closed = 1;
nodes = (
(180,300,l),
(252,179,l),
(252,-51,l),
(280,-70,l),
(280,229,l),
(299,229,l),
(299,253,o),
(299,268,o),
(276,288,c),
(269,295,o),
(258,300,o),
(244,300,cs)
);
},
{
closed = 1;
nodes = (
(77,0,l),
(173,-70,l),
(280,-70,l),
(252,-51,l),
(180,0,l)
);
},
{
closed = 1;
nodes = (
(299,0,l),
(395,-70,l),
(499,-70,l),
(408,0,l)
);
},
{
closed = 1;
nodes = (
(324,402,l),
(350,395,o),
(368,379,o),
(383,360,cs),
(416,317,l),
(538,588,l),
(453,700,l)
);
}
);
width = 503;
},
{
anchors = (
{
name = bottom;
pos = (252,0);
},
{
name = ogonek;
pos = (483,-1);
},
{
name = top;
pos = (249,700);
}
);
layerId = "251EB316-0412-4A3C-A569-0EEB43C6D9CE";
name = "Regular Shadow";
shapes = (
{
closed = 1;
nodes = (
(35,472,l),
(35,-216,l),
(170,-216,l),
(246,-116,l),
(246,-216,l),
(345,-216,l),
(499,-70,l),
(395,-70,l),
(299,0,l),
(299,229,l),
(280,229,l),
(280,-70,l),
(173,-70,l),
(77,0,l),
(77,509,l)
);
}
);
width = 503;
}
);
unicode = 107;
}
{
glyphname = l;
layers = (
{
anchors = (
{
name = bottom;
pos = (215,0);
},
{
name = ogonek;
pos = (463,-1);
},
{
name = top;
pos = (229,700);
},
{
name = topright;
pos = (410,500);
}
);
layerId = "8706937B-409E-4048-AB1C-4F6C90F3053E";
name = "Regular Front";
shapes = (
{
closed = 1;
nodes = (
(88,700,l),
(88,0,l),
(379,0,l),
(379,107,l),
(193,107,l),
(193,700,l)
);
}
);
width = 430;
},
{
anchors = (
{
name = bottom;
pos = (215,0);
},
{
name = ogonek;
pos = (463,-1);
},
{
name = top;
pos = (229,700);
},
{
name = topright;
pos = (410,500);
}
);
layerId = "C85A4985-4A4B-40F2-9F5D-E307D783C1A5";
name = "Regular InsideLight";
shapes = (
{
closed = 1;
nodes = (
(193,107,l),
(292,107,l),
(292,584,l),
(193,700,l)
);
},
{
closed = 1;
nodes = (
(379,0,l),
(465,-70,l),
(465,30,l),
(379,107,l)
);
}
);
width = 430;
},
{
anchors = (
{
name = bottom;
pos = (215,0);
},
{
name = ogonek;
pos = (463,-1);
},
{
name = top;
pos = (229,700);
},
{
name = topright;
pos = (410,500);
}
);
layerId = "2AF69027-8699-4DA7-9B20-F07C10F82EEB";
name = "Regular InsideShadow";
shapes = (
{
closed = 1;
nodes = (
(88,0,l),
(193,-70,l),
(465,-70,l),
(379,0,l)
);
}
);
width = 430;
},
{
anchors = (
{
name = bottom;
pos = (215,0);
},
{
name = ogonek;
pos = (463,-1);
},
{
name = top;
pos = (229,700);
},
{
name = topright;
pos = (410,500);
}
);
layerId = "251EB316-0412-4A3C-A569-0EEB43C6D9CE";
name = "Regular Shadow";
shapes = (
{
closed = 1;
nodes = (
(35,476,l),
(35,-216,l),
(315,-216,l),
(465,-70,l),
(193,-70,l),
(88,0,l),
(88,526,l)
);
}
);
width = 430;
}
);
unicode = 108;
}
{
glyphname = m;
layers = (
{
anchors = (
{
name = ogonek;
pos = (613,-1);
},
{
name = top;
pos = (379,700);
}
);
layerId = "8706937B-409E-4048-AB1C-4F6C90F3053E";
name = "Regular Front";
shapes = (
{
closed = 1;
nodes = (
(538,700,l),
(377,293,l),
(223,700,l),
(90,700,l),
(90,0,l),
(193,0,l),
(193,415,l),
(339,-1,l),
(408,-1,l),
(568,415,l),
(568,0,l),
(675,0,l),
(671,700,l)
);
}
);
width = 763;
},
{
anchors = (
{
name = ogonek;
pos = (613,-1);
},
{
name = top;
pos = (379,700);
}
);
layerId = "C85A4985-4A4B-40F2-9F5D-E307D783C1A5";
name = "Regular InsideLight";
shapes = (
{
closed = 1;
nodes = (
(377,293,l),
(408,364,l),
(317,598,ls),
(223,700,l)
);
},
{
closed = 1;
nodes = (
(193,0,l),
(220,-23,l),
(220,58,l),
(193,415,l)
);
},
{
closed = 1;
nodes = (
(408,-1,l),
(438,-26,l),
(472,53,l),
(568,415,l)
);
},
{
closed = 1;
nodes = (
(675,0,l),
(759,-70,l),
(759,598,l),
(671,700,l)
);
}
);
width = 763;
},
{
anchors = (
{
name = ogonek;
pos = (613,-1);
},
{
name = top;
pos = (379,700);
}
);
layerId = "2AF69027-8699-4DA7-9B20-F07C10F82EEB";
name = "Regular InsideShadow";
shapes = (
{
closed = 1;
nodes = (
(472,53,l),
(438,-26,l),
(408,-1,l),
(492,-70,l),
(568,113,l),
(568,415,l)
);
},
{
closed = 1;
nodes = (
(90,0,l),
(180,-70,l),
(277,-70,l),
(193,0,l)
);
},
{
closed = 1;
nodes = (
(339,-1,l),
(432,-70,l),
(492,-70,l),
(408,-1,l)
);
},
{
closed = 1;
nodes = (
(220,58,l),
(220,-23,l),
(277,-70,l),
(277,176,l),
(193,415,l)
);
},
{
closed = 1;
nodes = (
(568,0,l),
(658,-70,l),
(759,-70,l),
(675,0,l)
);
}
);
width = 763;
},
{
anchors = (
{
name = ogonek;
pos = (613,-1);
},
{
name = top;
pos = (379,700);
}
);
layerId = "251EB316-0412-4A3C-A569-0EEB43C6D9CE";
name = "Regular Shadow";
shapes = (
{
closed = 1;
nodes = (
(35,462,l),
(35,-216,l),
(216,-216,l),
(278,-135,l),
(278,-216,l),
(426,-216,l),
(486,-137,l),
(486,-216,l),
(649,-216,l),
(759,-70,l),
(658,-70,l),
(568,0,l),
(568,113,l),
(492,-70,l),
(432,-70,l),
(339,-1,l),
(277,176,l),
(277,-70,l),
(180,-70,l),
(90,0,l),
(90,528,l)
);
}
);
width = 763;
}
);
unicode = 109;
}
{
glyphname = n;
layers = (
{
anchors = (
{
name = bottom;
pos = (240,0);
},
{
name = top;
pos = (258,700);
}
);
layerId = "8706937B-409E-4048-AB1C-4F6C90F3053E";
name = "Regular Front";
shapes = (
{
closed = 1;
nodes = (
(324,700,l),
(324,384,l),
(195,536,l),
(195,700,l),
(90,700,l),
(90,0,l),
(195,0,l),
(195,360,l),
(324,180,l),
(324,0,l),
(430,0,l),
(431,700,l)
);
}
);
width = 480;
},
{
anchors = (
{
name = bottom;
pos = (240,0);
},
{
name = top;
pos = (258,700);
}
);
layerId = "C85A4985-4A4B-40F2-9F5D-E307D783C1A5";
name = "Regular InsideLight";
shapes = (
{
closed = 1;
nodes = (
(430,0,l),
(515,-70,l),
(515,581,l),
(431,700,l)
);
},
{
closed = 1;
nodes = (
(195,0,l),
(262,-50,l),
(262,159,l),
(195,360,l)
);
},
{
closed = 1;
nodes = (
(195,536,l),
(292,474,l),
(292,586,l),
(195,700,l)
);
}
);
width = 480;
},
{
anchors = (
{
name = bottom;
pos = (240,0);
},
{
name = top;
pos = (258,700);
}
);
layerId = "2AF69027-8699-4DA7-9B20-F07C10F82EEB";
name = "Regular InsideShadow";
shapes = (
{
closed = 1;
nodes = (
(262,159,l),
(262,-50,l),
(292,-70,l),
(292,224,l),
(195,360,l)
);
},
{
closed = 1;
nodes = (
(90,0,l),
(196,-70,l),
(292,-70,l),
(195,0,l)
);
},
{
closed = 1;
nodes = (
(324,0,l),
(417,-70,l),
(515,-70,l),
(430,0,l)
);
},
{
closed = 1;
nodes = (
(324,384,l),
(324,444,l),
(292,474,l),
(195,536,l)
);
}
);
width = 480;
},
{
anchors = (
{
name = bottom;
pos = (240,0);
},
{
name = top;
pos = (258,700);
}
);
layerId = "251EB316-0412-4A3C-A569-0EEB43C6D9CE";
name = "Regular Shadow";
shapes = (
{
closed = 1;
nodes = (
(35,462,l),
(35,-216,l),
(138,-216,l),
(263,-109,l),
(263,-216,l),
(380,-216,l),
(515,-70,l),
(417,-70,l),
(324,0,l),
(324,180,l),
(292,224,l),
(292,-70,l),
(196,-70,l),
(90,0,l),
(90,528,l)
);
},
{
closed = 1;
nodes = (
(292,474,l),
(324,444,l),
(324,501,l)
);
}
);
width = 480;
}
);
unicode = 110;
}
{
glyphname = o;
layers = (
{
anchors = (
{
name = ogonek;
pos = (483,-1);
},
{
name = top;
pos = (249,700);
}
);
layerId = "8706937B-409E-4048-AB1C-4F6C90F3053E";
name = "Regular Front";
shapes = (
{
closed = 1;
nodes = (
(148,706,o),
(83,625,o),
(83,537,cs),
(83,160,ls),
(83,114,o),
(114,54,o),
(153,25,cs),
(179,5,o),
(212,-8,o),
(251,-8,cs),
(318,-8,o),
(414,39,o),
(414,155,c),
(414,557,l),
(414,587,o),
(402,616,o),
(382,639,cs),
(349,680,o),
(296,706,o),
(248,706,cs)
);
},
{
closed = 1;
nodes = (
(282,602,o),
(306,574,o),
(306,540,cs),
(306,172,ls),
(306,153,o),
(303,134,o),
(283,114,cs),
(276,107,o),
(265,101,o),
(255,101,cs),
(205,101,o),
(186,130,o),
(186,166,cs),
(186,543,ls),
(186,573,o),
(204,602,o),
(245,602,cs)
);
}
);
width = 497;
},
{
anchors = (
{
name = ogonek;
pos = (483,-1);
},
{
name = top;
pos = (249,700);
}
);
layerId = "C85A4985-4A4B-40F2-9F5D-E307D783C1A5";
name = "Regular InsideLight";
shapes = (
{
closed = 1;
nodes = (
(402,616,o),
(414,587,o),
(414,557,c),
(414,155,l),
(499,78,l),
(499,436,ls),
(499,471,o),
(486,500,o),
(467,529,cs),
(442,567,o),
(417,600,o),
(382,639,c)
);
},
{
closed = 1;
nodes = (
(186,166,ls),
(186,130,o),
(205,101,o),
(255,101,c),
(255,386,l),
(186,543,l)
);
}
);
width = 497;
},
{
anchors = (
{
name = ogonek;
pos = (483,-1);
},
{
name = top;
pos = (249,700);
}
);
layerId = "2AF69027-8699-4DA7-9B20-F07C10F82EEB";
name = "Regular InsideShadow";
shapes = (
{
closed = 1;
nodes = (
(414,39,o),
(318,-8,o),
(251,-8,cs),
(212,-8,o),
(179,5,o),
(153,25,c),
(156,22,o),
(242,-42,o),
(266,-56,cs),
(287,-67,o),
(307,-77,o),
(347,-77,cs),
(368,-77,o),
(417,-70,o),
(461,-30,cs),
(475,-18,o),
(499,16,o),
(499,78,c),
(414,155,l)
);
},
{
closed = 1;
nodes = (
(204,602,o),
(186,573,o),
(186,543,c),
(255,386,l),
(255,101,l),
(265,101,o),
(276,107,o),
(283,114,c),
(283,437,ls),
(283,456,o),
(293,471,o),
(306,482,c),
(306,540,ls),
(306,574,o),
(282,602,o),
(245,602,cs)
);
}
);
width = 497;
},
{
anchors = (
{
name = ogonek;
pos = (483,-1);
},
{
name = top;
pos = (249,700);
}
);
layerId = "251EB316-0412-4A3C-A569-0EEB43C6D9CE";
name = "Regular Shadow";
shapes = (
{
closed = 1;
nodes = (
(51,402,o),
(35,364,o),
(35,319,cs),
(35,-56,ls),
(35,-147,o),
(95,-220,o),
(198,-220,cs),
(242,-220,o),
(280,-204,o),
(313,-173,cs),
(461,-30,l),
(417,-70,o),
(368,-77,o),
(347,-77,cs),
(307,-77,o),
(287,-67,o),
(266,-56,cs),
(242,-42,o),
(156,22,o),
(153,25,cs),
(114,54,o),
(83,114,o),
(83,160,c),
(83,434,l)
);
},
{
closed = 1;
nodes = (
(293,471,o),
(283,456,o),
(283,437,cs),
(283,114,l),
(303,134,o),
(306,153,o),
(306,172,cs),
(306,482,l)
);
}
);
width = 497;
}
);
unicode = 111;
}
{
glyphname = p;
layers = (
{
anchors = (
{
name = ogonek;
pos = (463,-1);
},
{
name = top;
pos = (229,700);
}
);
layerId = "8706937B-409E-4048-AB1C-4F6C90F3053E";
name = "Regular Front";
shapes = (
{
closed = 1;
nodes = (
(88,700,l),
(88,0,l),
(182,0,l),
(182,307,l),
(240,307,ls),
(290,307,o),
(345,337,o),
(373,393,cs),
(381,410,o),
(388,433,o),
(388,458,cs),
(388,552,ls),
(388,592,o),
(377,621,o),
(353,647,cs),
(325,677,o),
(281,700,o),
(237,700,cs)
);
},
{
closed = 1;
nodes = (
(275,598,o),
(295,575,o),
(295,542,cs),
(295,455,ls),
(295,440,o),
(285,424,o),
(272,413,cs),
(263,405,o),
(255,400,o),
(240,400,cs),
(182,400,l),
(182,598,l),
(240,598,ls)
);
}
);
width = 428;
},
{
anchors = (
{
name = ogonek;
pos = (463,-1);
},
{
name = top;
pos = (229,700);
}
);
layerId = "C85A4985-4A4B-40F2-9F5D-E307D783C1A5";
name = "Regular InsideLight";
shapes = (
{
closed = 1;
nodes = (
(377,621,o),
(388,592,o),
(388,552,cs),
(388,458,ls),
(388,433,o),
(381,410,o),
(373,393,c),
(373,393,o),
(451,307,o),
(451,307,c),
(461,325,o),
(463,345,o),
(463,370,cs),
(463,455,ls),
(463,486,o),
(453,522,o),
(436,547,cs),
(410,584,o),
(353,647,o),
(353,647,c)
);
},
{
closed = 1;
nodes = (
(182,0,l),
(272,-70,l),
(272,131,l),
(182,307,l)
);
},
{
closed = 1;
nodes = (
(182,400,l),
(240,400,ls),
(255,400,o),
(263,405,o),
(272,413,c),
(272,428,l),
(182,598,l)
);
}
);
width = 428;
},
{
anchors = (
{
name = ogonek;
pos = (463,-1);
},
{
name = top;
pos = (229,700);
}
);
layerId = "2AF69027-8699-4DA7-9B20-F07C10F82EEB";
name = "Regular InsideShadow";
shapes = (
{
closed = 1;
nodes = (
(345,337,o),
(290,307,o),
(240,307,cs),
(182,307,l),
(272,227,l),
(325,227,ls),
(345,227,o),
(379,235,o),
(398,247,cs),
(420,261,o),
(438,285,o),
(451,307,c),
(451,307,o),
(373,393,o),
(373,393,c)
);
},
{
closed = 1;
nodes = (
(88,0,l),
(184,-70,l),
(272,-70,l),
(182,0,l)
);
},
{
closed = 1;
nodes = (
(272,131,l),
(272,227,l),
(182,307,l)
);
},
{
closed = 1;
nodes = (
(272,428,l),
(272,493,l),
(182,598,l)
);
},
{
closed = 1;
nodes = (
(182,598,l),
(272,493,l),
(295,493,l),
(295,542,ls),
(295,575,o),
(275,598,o),
(240,598,cs)
);
}
);
width = 428;
},
{
anchors = (
{
name = ogonek;
pos = (463,-1);
},
{
name = top;
pos = (229,700);
}
);
layerId = "251EB316-0412-4A3C-A569-0EEB43C6D9CE";
name = "Regular Shadow";
shapes = (
{
closed = 1;
nodes = (
(35,474,l),
(35,-216,l),
(138,-216,l),
(272,-70,l),
(184,-70,l),
(88,0,l),
(88,526,l)
);
},
{
closed = 1;
nodes = (
(379,235,o),
(345,227,o),
(325,227,cs),
(272,227,l),
(272,131,l),
(280,136,o),
(287,141,o),
(295,148,cs),
(398,247,l)
);
},
{
closed = 1;
nodes = (
(272,493,l),
(272,413,l),
(285,424,o),
(295,440,o),
(295,455,cs),
(295,493,l)
);
}
);
width = 428;
}
);
unicode = 112;
}
{
glyphname = q;
layers = (
{
anchors = (
{
name = ogonek;
pos = (483,-1);
},
{
name = top;
pos = (249,700);
}
);
layerId = "8706937B-409E-4048-AB1C-4F6C90F3053E";
name = "Regular Front";
shapes = (
{
closed = 1;
nodes = (
(148,706,o),
(83,625,o),
(83,537,cs),
(83,160,ls),
(83,114,o),
(108,59,o),
(153,25,cs),
(166,15,o),
(180,6,o),
(196,0,c),
(196,-202,l),
(300,-202,l),
(299,-1,l),
(357,16,o),
(416,65,o),
(416,155,c),
(414,557,l),
(414,639,o),
(324,706,o),
(248,706,cs)
);
},
{
closed = 1;
nodes = (
(282,602,o),
(306,574,o),
(306,540,cs),
(306,172,ls),
(306,153,o),
(305,131,o),
(283,114,c),
(276,107,o),
(265,101,o),
(255,101,cs),
(251,101,ls),
(207,101,o),
(186,132,o),
(186,166,cs),
(186,543,ls),
(186,573,o),
(204,602,o),
(245,602,cs)
);
}
);
width = 464;
},
{
anchors = (
{
name = ogonek;
pos = (483,-1);
},
{
name = top;
pos = (249,700);
}
);
layerId = "C85A4985-4A4B-40F2-9F5D-E307D783C1A5";
name = "Regular InsideLight";
shapes = (
{
closed = 1;
nodes = (
(402,617,o),
(414,588,o),
(414,557,c),
(416,155,l),
(499,78,l),
(499,436,ls),
(499,471,o),
(488,501,o),
(467,529,cs),
(438,567,o),
(411,603,o),
(382,640,c)
);
},
{
closed = 1;
nodes = (
(300,-202,l),
(397,-273,l),
(397,-70,l),
(299,-1,l)
);
},
{
closed = 1;
nodes = (
(186,166,ls),
(186,132,o),
(207,101,o),
(251,101,cs),
(255,101,l),
(255,386,l),
(186,543,l)
);
}
);
width = 464;
},
{
anchors = (
{
name = ogonek;
pos = (483,-1);
},
{
name = top;
pos = (249,700);
}
);
layerId = "2AF69027-8699-4DA7-9B20-F07C10F82EEB";
name = "Regular InsideShadow";
shapes = (
{
closed = 1;
nodes = (
(204,602,o),
(186,573,o),
(186,543,c),
(255,386,l),
(255,101,l),
(265,101,o),
(276,107,o),
(283,114,c),
(283,437,ls),
(283,456,o),
(293,471,o),
(306,482,c),
(306,540,ls),
(306,574,o),
(282,602,o),
(245,602,cs)
);
},
{
closed = 1;
nodes = (
(196,-202,l),
(303,-273,l),
(397,-273,l),
(300,-202,l)
);
},
{
closed = 1;
nodes = (
(416,65,o),
(357,16,o),
(299,-1,c),
(397,-70,l),
(454,-48,o),
(499,-6,o),
(499,78,c),
(416,155,l)
);
}
);
width = 464;
},
{
anchors = (
{
name = ogonek;
pos = (483,-1);
},
{
name = top;
pos = (249,700);
}
);
layerId = "251EB316-0412-4A3C-A569-0EEB43C6D9CE";
name = "Regular Shadow";
shapes = (
{
closed = 1;
nodes = (
(51,402,o),
(35,364,o),
(35,319,cs),
(35,-56,ls),
(35,-133,o),
(78,-197,o),
(155,-215,c),
(155,-419,l),
(287,-419,l),
(397,-273,l),
(303,-273,l),
(196,-202,l),
(196,0,l),
(180,6,o),
(166,15,o),
(153,25,c),
(114,54,o),
(88,102,o),
(84,145,c),
(83,150,o),
(83,162,o),
(83,163,cs),
(83,434,l)
);
},
{
closed = 1;
nodes = (
(293,471,o),
(283,456,o),
(283,437,cs),
(283,114,l),
(305,131,o),
(306,153,o),
(306,172,cs),
(306,482,l)
);
}
);
width = 464;
}
);
unicode = 113;
}
{
glyphname = r;
layers = (
{
anchors = (
{
name = bottom;
pos = (266,0);
},
{
name = ogonek;
pos = (483,-1);
},
{
name = top;
pos = (249,700);
}
);
layerId = "8706937B-409E-4048-AB1C-4F6C90F3053E";
name = "Regular Front";
shapes = (
{
closed = 1;
nodes = (
(88,700,l),
(86,0,l),
(192,0,l),
(192,264,l),
(266,264,l),
(371,0,l),
(474,0,l),
(357,299,l),
(375,315,o),
(391,336,o),
(402,360,cs),
(411,379,o),
(417,402,o),
(417,430,cs),
(418,533,ls),
(418,576,o),
(404,612,o),
(380,639,cs),
(350,675,o),
(304,700,o),
(256,700,cs)
);
},
{
closed = 1;
nodes = (
(293,598,o),
(316,574,o),
(316,539,cs),
(316,430,ls),
(316,412,o),
(305,395,o),
(291,383,cs),
(281,374,o),
(270,369,o),
(261,369,cs),
(191,369,l),
(191,598,l),
(255,598,ls)
);
}
);
width = 531;
},
{
anchors = (
{
name = bottom;
pos = (266,0);
},
{
name = ogonek;
pos = (483,-1);
},
{
name = top;
pos = (249,700);
}
);
layerId = "C85A4985-4A4B-40F2-9F5D-E307D783C1A5";
name = "Regular InsideLight";
shapes = (
{
closed = 1;
nodes = (
(474,0,l),
(566,-70,l),
(444,204,ls),
(357,299,l)
);
},
{
closed = 1;
nodes = (
(192,0,l),
(261,-51,l),
(261,134,l),
(192,264,l)
);
},
{
closed = 1;
nodes = (
(191,369,l),
(261,369,l),
(261,455,l),
(191,598,l)
);
},
{
closed = 1;
nodes = (
(404,612,o),
(418,576,o),
(418,533,cs),
(417,430,ls),
(417,402,o),
(411,379,o),
(402,360,c),
(489,265,l),
(499,283,o),
(503,306,o),
(503,333,cs),
(503,428,ls),
(503,464,o),
(491,502,o),
(471,529,cs),
(444,566,o),
(404,612,o),
(380,639,c)
);
}
);
width = 531;
},
{
anchors = (
{
name = bottom;
pos = (266,0);
},
{
name = ogonek;
pos = (483,-1);
},
{
name = top;
pos = (249,700);
}
);
layerId = "2AF69027-8699-4DA7-9B20-F07C10F82EEB";
name = "Regular InsideShadow";
shapes = (
{
closed = 1;
nodes = (
(261,134,l),
(261,-51,l),
(291,-70,l),
(291,178,l),
(192,264,l)
);
},
{
closed = 1;
nodes = (
(86,0,l),
(188,-70,l),
(291,-70,l),
(192,0,l)
);
},
{
closed = 1;
nodes = (
(371,0,l),
(467,-70,l),
(566,-70,l),
(474,0,l)
);
},
{
closed = 1;
nodes = (
(192,264,l),
(291,178,l),
(300,178,l),
(266,264,l)
);
},
{
closed = 1;
nodes = (
(391,336,o),
(375,315,o),
(357,299,c),
(444,204,l),
(462,220,o),
(478,241,o),
(489,265,c),
(402,360,l)
);
},
{
closed = 1;
nodes = (
(261,455,l),
(261,369,l),
(269,369,o),
(281,374,o),
(291,383,c),
(291,493,l),
(191,598,l)
);
},
{
closed = 1;
nodes = (
(191,598,l),
(291,493,l),
(316,493,l),
(316,539,ls),
(316,574,o),
(293,598,o),
(255,598,cs)
);
}
);
width = 531;
},
{
anchors = (
{
name = bottom;
pos = (266,0);
},
{
name = ogonek;
pos = (483,-1);
},
{
name = top;
pos = (249,700);
}
);
layerId = "251EB316-0412-4A3C-A569-0EEB43C6D9CE";
name = "Regular Shadow";
shapes = (
{
closed = 1;
nodes = (
(35,423,l),
(35,-216,l),
(234,-216,l),
(270,-170,l),
(270,-216,l),
(421,-216,l),
(566,-70,l),
(467,-70,l),
(371,0,l),
(300,178,l),
(291,178,l),
(291,-70,l),
(188,-70,l),
(86,0,l),
(88,509,l)
);
},
{
closed = 1;
nodes = (
(291,493,l),
(291,383,l),
(305,395,o),
(316,412,o),
(316,430,cs),
(316,493,l)
);
}
);
width = 531;
}
);
unicode = 114;
}
{
glyphname = s;
layers = (
{
anchors = (
{
name = bottom;
pos = (256,0);
},
{
name = ogonek;
pos = (493,-1);
},
{
name = top;
pos = (259,700);
}
);
layerId = "8706937B-409E-4048-AB1C-4F6C90F3053E";
name = "Regular Front";
shapes = (
{
closed = 1;
nodes = (
(158,706,o),
(93,625,o),
(93,537,c),
(93,478,l),
(115,452,l),
(316,219,l),
(316,172,ls),
(316,150,o),
(308,124,o),
(293,111,cs),
(284,104,o),
(277,101,o),
(265,101,c),
(217,101,o),
(196,132,o),
(196,166,cs),
(196,266,l),
(93,266,l),
(93,160,ls),
(93,114,o),
(118,58,o),
(164,25,cs),
(192,5,o),
(222,-8,o),
(261,-8,cs),
(328,-8,o),
(426,39,o),
(426,155,cs),
(426,242,l),
(203,507,l),
(203,540,l),
(204,574,o),
(224,602,o),
(260,602,cs),
(301,602,o),
(323,581,o),
(323,543,cs),
(323,463,l),
(426,463,l),
(424,557,l),
(424,588,o),
(411,615,o),
(392,639,cs),
(359,679,o),
(306,706,o),
(258,706,cs)
);
}
);
width = 512;
},
{
anchors = (
{
name = bottom;
pos = (256,0);
},
{
name = ogonek;
pos = (493,-1);
},
{
name = top;
pos = (259,700);
}
);
layerId = "C85A4985-4A4B-40F2-9F5D-E307D783C1A5";
name = "Regular InsideLight";
shapes = (
{
closed = 1;
nodes = (
(203,507,l),
(426,242,l),
(511,172,l),
(404,301,l),
(343,353,l),
(228,490,l),
(203,540,l)
);
},
{
closed = 1;
nodes = (
(196,166,l),
(196,132,o),
(217,101,o),
(265,101,c),
(265,224,l),
(196,266,l)
);
},
{
closed = 1;
nodes = (
(426,155,l),
(509,78,l),
(511,172,l),
(426,242,l)
);
},
{
closed = 1;
nodes = (
(411,615,o),
(424,588,o),
(424,557,c),
(426,463,l),
(512,394,l),
(512,425,ls),
(512,460,o),
(497,500,o),
(477,529,cs),
(430,598,o),
(421,607,o),
(392,639,c)
);
}
);
width = 512;
},
{
anchors = (
{
name = bottom;
pos = (256,0);
},
{
name = ogonek;
pos = (493,-1);
},
{
name = top;
pos = (259,700);
}
);
layerId = "2AF69027-8699-4DA7-9B20-F07C10F82EEB";
name = "Regular InsideShadow";
shapes = (
{
closed = 1;
nodes = (
(426,39,o),
(328,-8,o),
(261,-8,cs),
(222,-8,o),
(192,5,o),
(164,25,c),
(276,-56,l),
(295,-71,o),
(317,-77,o),
(357,-77,cs),
(378,-77,o),
(427,-75,o),
(471,-30,cs),
(484,-17,o),
(509,16,o),
(509,78,c),
(426,155,l)
);
},
{
closed = 1;
nodes = (
(265,101,l),
(277,101,o),
(284,104,o),
(293,111,c),
(293,207,l),
(265,224,l)
);
},
{
closed = 1;
nodes = (
(224,602,o),
(204,574,o),
(203,540,c),
(228,490,l),
(343,353,l),
(404,301,l),
(288,447,l),
(288,470,l),
(289,496,o),
(301,518,o),
(323,527,c),
(323,543,l),
(323,581,o),
(301,602,o),
(260,602,cs)
);
},
{
closed = 1;
nodes = (
(323,463,l),
(416,394,l),
(512,394,l),
(426,463,l)
);
}
);
width = 512;
},
{
anchors = (
{
name = bottom;
pos = (256,0);
},
{
name = ogonek;
pos = (493,-1);
},
{
name = top;
pos = (259,700);
}
);
layerId = "251EB316-0412-4A3C-A569-0EEB43C6D9CE";
name = "Regular Shadow";
shapes = (
{
closed = 1;
nodes = (
(69,420,o),
(34,364,o),
(35,319,cs),
(36,262,l),
(93,160,l),
(35,48,l),
(35,-56,ls),
(35,-147,o),
(98,-220,o),
(201,-220,cs),
(245,-220,o),
(290,-204,o),
(323,-173,cs),
(464,-37,l),
(422,-75,o),
(377,-77,o),
(357,-77,cs),
(317,-77,o),
(295,-71,o),
(276,-56,c),
(164,25,ls),
(118,58,o),
(93,114,o),
(93,160,cs),
(93,266,l),
(196,266,l),
(293,207,l),
(293,111,l),
(308,124,o),
(316,150,o),
(316,172,cs),
(316,219,l),
(115,452,l)
);
},
{
closed = 1;
nodes = (
(464,-37,l),
(471,-30,l)
);
},
{
closed = 1;
nodes = (
(301,518,o),
(289,496,o),
(288,470,c),
(288,447,l),
(404,301,l),
(512,394,l),
(416,394,l),
(323,463,l),
(323,527,l)
);
}
);
width = 512;
}
);
unicode = 115;
}
{
glyphname = t;
layers = (
{
anchors = (
{
name = ogonek;
pos = (513,-1);
},
{
name = top;
pos = (279,700);
}
);
layerId = "8706937B-409E-4048-AB1C-4F6C90F3053E";
name = "Regular Front";
shapes = (
{
closed = 1;
nodes = (
(89,699,l),
(88,598,l),
(233,598,l),
(233,0,l),
(338,0,l),
(338,598,l),
(483,598,l),
(483,699,l)
);
}
);
width = 534;
},
{
anchors = (
{
name = ogonek;
pos = (513,-1);
},
{
name = top;
pos = (279,700);
}
);
layerId = "C85A4985-4A4B-40F2-9F5D-E307D783C1A5";
name = "Regular InsideLight";
shapes = (
{
closed = 1;
nodes = (
(338,0,l),
(438,-70,l),
(438,338,l),
(338,598,l)
);
},
{
closed = 1;
nodes = (
(483,598,l),
(569,493,l),
(569,587,l),
(483,699,l)
);
}
);
width = 534;
},
{
anchors = (
{
name = ogonek;
pos = (513,-1);
},
{
name = top;
pos = (279,700);
}
);
layerId = "2AF69027-8699-4DA7-9B20-F07C10F82EEB";
name = "Regular InsideShadow";
shapes = (
{
closed = 1;
nodes = (
(438,338,l),
(438,493,l),
(338,598,l)
);
},
{
closed = 1;
nodes = (
(335,-70,l),
(438,-70,l),
(338,0,l),
(233,0,l)
);
},
{
closed = 1;
nodes = (
(88,598,l),
(184,493,l),
(233,493,l),
(233,598,l)
);
},
{
closed = 1;
nodes = (
(338,598,l),
(438,493,l),
(569,493,l),
(483,598,l)
);
}
);
width = 534;
},
{
anchors = (
{
name = ogonek;
pos = (513,-1);
},
{
name = top;
pos = (279,700);
}
);
layerId = "251EB316-0412-4A3C-A569-0EEB43C6D9CE";
name = "Regular Shadow";
shapes = (
{
closed = 1;
nodes = (
(35,500,l),
(35,376,l),
(175,376,l),
(175,-216,l),
(288,-216,l),
(438,-70,l),
(335,-70,l),
(233,0,l),
(233,493,l),
(184,493,l),
(118,566,l)
);
},
{
closed = 1;
nodes = (
(438,493,l),
(438,338,l),
(569,493,l)
);
}
);
width = 534;
}
);
unicode = 116;
}
{
glyphname = u;
layers = (
{
anchors = (
{
name = ogonek;
pos = (243,-8);
},
{
name = top;
pos = (229,700);
}
);
layerId = "8706937B-409E-4048-AB1C-4F6C90F3053E";
name = "Regular Front";
shapes = (
{
closed = 1;
nodes = (
(296,700,l),
(296,172,ls),
(296,153,o),
(295,131,o),
(273,114,c),
(266,107,o),
(255,101,o),
(245,101,cs),
(241,101,ls),
(197,101,o),
(176,132,o),
(176,166,cs),
(176,700,l),
(73,700,l),
(73,163,ls),
(73,113,o),
(104,54,o),
(143,25,cs),
(170,5,o),
(202,-8,o),
(241,-8,cs),
(308,-8,o),
(402,39,o),
(402,155,cs),
(401,700,l)
);
}
);
width = 474;
},
{
anchors = (
{
name = ogonek;
pos = (243,-8);
},
{
name = top;
pos = (229,700);
}
);
layerId = "C85A4985-4A4B-40F2-9F5D-E307D783C1A5";
name = "Regular InsideLight";
shapes = (
{
closed = 1;
nodes = (
(402,155,l),
(487,78,l),
(487,585,l),
(401,700,l)
);
},
{
closed = 1;
nodes = (
(176,166,ls),
(176,132,o),
(197,101,o),
(241,101,cs),
(245,101,l),
(245,496,l),
(273,460,l),
(273,587,l),
(176,700,l)
);
}
);
width = 474;
},
{
anchors = (
{
name = ogonek;
pos = (243,-8);
},
{
name = top;
pos = (229,700);
}
);
layerId = "2AF69027-8699-4DA7-9B20-F07C10F82EEB";
name = "Regular InsideShadow";
shapes = (
{
closed = 1;
nodes = (
(402,39,o),
(308,-8,o),
(241,-8,cs),
(202,-8,o),
(170,5,o),
(143,25,c),
(170,5,o),
(232,-42,o),
(256,-56,cs),
(277,-67,o),
(297,-77,o),
(337,-77,cs),
(358,-77,o),
(407,-70,o),
(451,-30,cs),
(465,-18,o),
(489,16,o),
(487,78,c),
(402,155,l)
);
},
{
closed = 1;
nodes = (
(245,496,l),
(245,101,l),
(255,101,o),
(266,107,o),
(273,114,c),
(273,460,l)
);
}
);
width = 474;
},
{
anchors = (
{
name = ogonek;
pos = (243,-8);
},
{
name = top;
pos = (229,700);
}
);
layerId = "251EB316-0412-4A3C-A569-0EEB43C6D9CE";
name = "Regular Shadow";
shapes = (
{
closed = 1;
nodes = (
(25,463,l),
(25,-56,ls),
(25,-147,o),
(85,-220,o),
(188,-220,cs),
(232,-220,o),
(270,-204,o),
(303,-173,cs),
(451,-30,l),
(407,-70,o),
(358,-77,o),
(337,-77,cs),
(297,-77,o),
(277,-67,o),
(256,-56,c),
(232,-42,o),
(170,5,o),
(143,25,c),
(104,54,o),
(73,113,o),
(73,163,cs),
(73,510,l)
);
},
{
closed = 1;
nodes = (
(273,460,l),
(273,114,l),
(295,131,o),
(296,153,o),
(296,172,cs),
(296,500,l)
);
}
);
width = 474;
}
);
unicode = 117;
}
{
glyphname = v;
layers = (
{
anchors = (
{
name = ogonek;
pos = (463,-1);
},
{
name = top;
pos = (229,700);
}
);
layerId = "8706937B-409E-4048-AB1C-4F6C90F3053E";
name = "Regular Front";
shapes = (
{
closed = 1;
nodes = (
(316,700,l),
(231,157,l),
(142,700,l),
(34,700,l),
(139,107,l),
(87,107,l),
(87,0,l),
(378,0,l),
(378,107,l),
(322,107,l),
(426,700,l)
);
}
);
width = 473;
},
{
anchors = (
{
name = ogonek;
pos = (463,-1);
},
{
name = top;
pos = (229,700);
}
);
layerId = "C85A4985-4A4B-40F2-9F5D-E307D783C1A5";
name = "Regular InsideLight";
shapes = (
{
closed = 1;
nodes = (
(322,107,l),
(378,107,l),
(419,72,l),
(508,585,l),
(426,700,l)
);
},
{
closed = 1;
nodes = (
(378,0,l),
(470,-70,l),
(470,29,l),
(378,107,l)
);
},
{
closed = 1;
nodes = (
(231,157,l),
(271,409,l),
(242,583,l),
(142,700,l)
);
}
);
width = 473;
},
{
anchors = (
{
name = ogonek;
pos = (463,-1);
},
{
name = top;
pos = (229,700);
}
);
layerId = "2AF69027-8699-4DA7-9B20-F07C10F82EEB";
name = "Regular InsideShadow";
shapes = (
{
closed = 1;
nodes = (
(87,0,l),
(183,-70,l),
(470,-70,l),
(378,0,l)
);
}
);
width = 473;
},
{
anchors = (
{
name = ogonek;
pos = (463,-1);
},
{
name = top;
pos = (229,700);
}
);
layerId = "251EB316-0412-4A3C-A569-0EEB43C6D9CE";
name = "Regular Shadow";
shapes = (
{
closed = 1;
nodes = (
(-10,476,l),
(82,-45,l),
(34,-101,l),
(34,-216,l),
(325,-216,l),
(470,-70,l),
(183,-70,l),
(87,0,l),
(87,107,l),
(139,107,l),
(61,544,l)
);
},
{
closed = 1;
nodes = (
(253,516,l),
(271,409,l),
(293,549,l)
);
}
);
width = 473;
}
);
unicode = 118;
}
{
glyphname = w;
layers = (
{
anchors = (
{
name = ogonek;
pos = (623,-1);
},
{
name = top;
pos = (389,700);
}
);
layerId = "8706937B-409E-4048-AB1C-4F6C90F3053E";
name = "Regular Front";
shapes = (
{
closed = 1;
nodes = (
(636,700,l),
(551,157,l),
(462,700,l),
(317,700,l),
(232,157,l),
(143,700,l),
(35,700,l),
(159,0,l),
(304,0,l),
(392,495,l),
(445,186,l),
(478,0,l),
(623,0,l),
(747,700,l)
);
}
);
width = 802;
},
{
anchors = (
{
name = ogonek;
pos = (623,-1);
},
{
name = top;
pos = (389,700);
}
);
layerId = "C85A4985-4A4B-40F2-9F5D-E307D783C1A5";
name = "Regular InsideLight";
shapes = (
{
closed = 1;
nodes = (
(623,0,l),
(715,-70,l),
(837,581,l),
(747,700,l)
);
},
{
closed = 1;
nodes = (
(304,0,l),
(396,-70,l),
(403,-35,l),
(377,162,l),
(354,280,l)
);
},
{
closed = 1;
nodes = (
(232,157,l),
(262,341,l),
(226,542,l),
(254,516,l),
(243,583,l),
(143,700,l)
);
},
{
closed = 1;
nodes = (
(551,157,l),
(581,341,l),
(545,542,l),
(573,516,l),
(562,583,l),
(462,700,l)
);
}
);
width = 802;
},
{
anchors = (
{
name = ogonek;
pos = (623,-1);
},
{
name = top;
pos = (389,700);
}
);
layerId = "2AF69027-8699-4DA7-9B20-F07C10F82EEB";
name = "Regular InsideShadow";
shapes = (
{
closed = 1;
nodes = (
(354,280,l),
(377,162,l),
(403,-35,l),
(445,186,l),
(392,495,l)
);
},
{
closed = 1;
nodes = (
(159,0,l),
(255,-70,l),
(396,-70,l),
(304,0,l)
);
},
{
closed = 1;
nodes = (
(478,0,l),
(574,-70,l),
(715,-70,l),
(623,0,l)
);
},
{
closed = 1;
nodes = (
(262,341,l),
(272,409,l),
(254,516,l),
(226,542,l)
);
},
{
closed = 1;
nodes = (
(581,341,l),
(591,409,l),
(573,516,l),
(545,542,l)
);
}
);
width = 802;
},
{
anchors = (
{
name = ogonek;
pos = (623,-1);
},
{
name = top;
pos = (389,700);
}
);
layerId = "251EB316-0412-4A3C-A569-0EEB43C6D9CE";
name = "Regular Shadow";
shapes = (
{
closed = 1;
nodes = (
(-15,522,l),
(113,-216,l),
(326,-216,l),
(396,-70,l),
(255,-70,l),
(159,0,l),
(66,522,l)
);
},
{
closed = 1;
nodes = (
(403,-35,l),
(432,-216,l),
(645,-216,l),
(715,-70,l),
(574,-70,l),
(478,0,l),
(445,186,l)
);
},
{
closed = 1;
nodes = (
(254,516,l),
(272,409,l),
(294,549,l)
);
},
{
closed = 1;
nodes = (
(573,516,l),
(591,409,l),
(613,549,l)
);
}
);
width = 802;
}
);
unicode = 119;
}
{
glyphname = x;
layers = (
{
anchors = (
{
name = ogonek;
pos = (513,-1);
},
{
name = top;
pos = (279,700);
}
);
layerId = "8706937B-409E-4048-AB1C-4F6C90F3053E";
name = "Regular Front";
shapes = (
{
closed = 1;
nodes = (
(337,700,l),
(288,414,l),
(217,700,l),
(89,700,l),
(184,341,l),
(97,0,l),
(233,0,l),
(292,299,l),
(353,38,l),
(363,0,l),
(498,0,l),
(462,109,l),
(405,341,l),
(440,576,l),
(464,700,l)
);
}
);
width = 600;
},
{
anchors = (
{
name = ogonek;
pos = (513,-1);
},
{
name = top;
pos = (279,700);
}
);
layerId = "C85A4985-4A4B-40F2-9F5D-E307D783C1A5";
name = "Regular InsideLight";
shapes = (
{
closed = 1;
nodes = (
(462,109,l),
(498,0,l),
(586,-70,l),
(547,50,l),
(493,261,l),
(405,341,l)
);
},
{
closed = 1;
nodes = (
(233,0,l),
(282,-36,l),
(313,88,l),
(292,299,l)
);
},
{
closed = 1;
nodes = (
(288,414,l),
(297,468,l),
(286,533,l),
(306,518,l),
(319,594,l),
(217,700,l)
);
}
);
width = 600;
},
{
anchors = (
{
name = ogonek;
pos = (513,-1);
},
{
name = top;
pos = (279,700);
}
);
layerId = "2AF69027-8699-4DA7-9B20-F07C10F82EEB";
name = "Regular InsideShadow";
shapes = (
{
closed = 1;
nodes = (
(440,576,l),
(405,341,l),
(493,261,l),
(530,494,l),
(549,588,l),
(464,700,l)
);
},
{
closed = 1;
nodes = (
(97,0,l),
(204,-70,l),
(330,-70,l),
(233,0,l)
);
},
{
closed = 1;
nodes = (
(313,88,l),
(282,-36,l),
(330,-70,l),
(353,38,l),
(292,299,l)
);
},
{
closed = 1;
nodes = (
(453,-70,l),
(586,-70,l),
(498,0,l),
(363,0,l)
);
},
{
closed = 1;
nodes = (
(297,468,l),
(306,518,l),
(286,533,l)
);
}
);
width = 600;
},
{
anchors = (
{
name = ogonek;
pos = (513,-1);
},
{
name = top;
pos = (279,700);
}
);
layerId = "251EB316-0412-4A3C-A569-0EEB43C6D9CE";
name = "Regular Shadow";
shapes = (
{
closed = 1;
nodes = (
(23,487,l),
(117,131,l),
(31,-216,l),
(275,-216,l),
(288,-169,l),
(301,-216,l),
(432,-216,l),
(585,-70,l),
(453,-70,l),
(363,0,l),
(353,38,l),
(330,-70,l),
(204,-70,l),
(97,0,l),
(184,341,l),
(122,580,l)
);
}
);
width = 600;
}
);
unicode = 120;
}
{
glyphname = y;
layers = (
{
anchors = (
{
name = ogonek;
pos = (483,-1);
},
{
name = top;
pos = (249,700);
}
);
layerId = "8706937B-409E-4048-AB1C-4F6C90F3053E";
name = "Regular Front";
shapes = (
{
closed = 1;
nodes = (
(305,700,l),
(305,446,ls),
(305,427,o),
(304,405,o),
(282,388,c),
(275,381,o),
(264,375,o),
(254,375,cs),
(250,375,ls),
(206,375,o),
(185,406,o),
(185,440,cs),
(185,700,l),
(82,700,l),
(82,437,ls),
(82,356,o),
(128,299,o),
(197,274,c),
(197,0,l),
(302,0,l),
(302,274,l),
(355,291,o),
(411,345,o),
(411,429,c),
(410,700,l)
);
}
);
width = 470;
},
{
anchors = (
{
name = ogonek;
pos = (483,-1);
},
{
name = top;
pos = (249,700);
}
);
layerId = "C85A4985-4A4B-40F2-9F5D-E307D783C1A5";
name = "Regular InsideLight";
shapes = (
{
closed = 1;
nodes = (
(302,0,l),
(400,-70,l),
(400,186,l),
(302,253,l)
);
},
{
closed = 1;
nodes = (
(185,440,ls),
(185,406,o),
(206,375,o),
(250,375,cs),
(254,375,l),
(254,500,l),
(282,460,l),
(282,586,l),
(185,700,l)
);
},
{
closed = 1;
nodes = (
(411,429,l),
(496,352,l),
(496,585,l),
(410,700,l)
);
}
);
width = 470;
},
{
anchors = (
{
name = ogonek;
pos = (483,-1);
},
{
name = top;
pos = (249,700);
}
);
layerId = "2AF69027-8699-4DA7-9B20-F07C10F82EEB";
name = "Regular InsideShadow";
shapes = (
{
closed = 1;
nodes = (
(411,346,o),
(356,291,o),
(302,274,c),
(400,206,l),
(415,210,o),
(433,220,o),
(460,244,cs),
(474,257,o),
(498,290,o),
(496,352,c),
(411,429,l)
);
},
{
closed = 1;
nodes = (
(197,0,l),
(305,-70,l),
(400,-70,l),
(302,0,l)
);
},
{
closed = 1;
nodes = (
(302,253,l),
(400,186,l),
(400,206,l),
(302,274,l)
);
},
{
closed = 1;
nodes = (
(254,375,l),
(265,375,o),
(276,382,o),
(282,388,c),
(282,460,l),
(254,500,l)
);
}
);
width = 470;
},
{
anchors = (
{
name = ogonek;
pos = (483,-1);
},
{
name = top;
pos = (249,700);
}
);
layerId = "251EB316-0412-4A3C-A569-0EEB43C6D9CE";
name = "Regular Shadow";
shapes = (
{
closed = 1;
nodes = (
(34,463,l),
(34,218,ls),
(34,127,o),
(94,54,o),
(197,54,c),
(197,274,l),
(128,299,o),
(82,356,o),
(82,437,cs),
(82,510,l)
);
},
{
closed = 1;
nodes = (
(153,24,l),
(153,-216,l),
(287,-216,l),
(400,-70,l),
(305,-70,l),
(197,0,l),
(197,65,l)
);
},
{
closed = 1;
nodes = (
(433,220,o),
(415,210,o),
(400,206,c),
(400,186,l),
(460,244,l)
);
},
{
closed = 1;
nodes = (
(282,460,l),
(282,388,l),
(304,405,o),
(305,427,o),
(305,446,cs),
(305,500,l)
);
}
);
width = 470;
}
);
unicode = 121;
}
{
glyphname = z;
layers = (
{
anchors = (
{
name = ogonek;
pos = (463,-1);
},
{
name = top;
pos = (229,700);
}
);
layerId = "8706937B-409E-4048-AB1C-4F6C90F3053E";
name = "Regular Front";
shapes = (
{
closed = 1;
nodes = (
(59,700,l),
(59,598,l),
(277,598,l),
(60,106,l),
(60,0,l),
(397,0,l),
(397,107,l),
(182,107,l),
(396,593,l),
(396,700,l)
);
}
);
width = 496;
},
{
anchors = (
{
name = ogonek;
pos = (463,-1);
},
{
name = top;
pos = (229,700);
}
);
layerId = "C85A4985-4A4B-40F2-9F5D-E307D783C1A5";
name = "Regular InsideLight";
shapes = (
{
closed = 1;
nodes = (
(396,593,l),
(495,493,l),
(495,587,l),
(396,700,l)
);
},
{
closed = 1;
nodes = (
(397,0,l),
(481,-70,l),
(481,29,l),
(397,107,l)
);
}
);
width = 496;
},
{
anchors = (
{
name = ogonek;
pos = (463,-1);
},
{
name = top;
pos = (229,700);
}
);
layerId = "2AF69027-8699-4DA7-9B20-F07C10F82EEB";
name = "Regular InsideShadow";
shapes = (
{
closed = 1;
nodes = (
(182,107,l),
(317,107,l),
(495,493,l),
(396,593,l)
);
},
{
closed = 1;
nodes = (
(60,0,l),
(167,-70,l),
(481,-70,l),
(397,0,l)
);
},
{
closed = 1;
nodes = (
(59,598,l),
(158,493,l),
(231,493,l),
(277,598,l)
);
}
);
width = 496;
},
{
anchors = (
{
name = ogonek;
pos = (463,-1);
},
{
name = top;
pos = (229,700);
}
);
layerId = "251EB316-0412-4A3C-A569-0EEB43C6D9CE";
name = "Regular Shadow";
shapes = (
{
closed = 1;
nodes = (
(34,-110,l),
(34,-216,l),
(313,-216,l),
(481,-70,l),
(167,-70,l),
(87,-17,l)
);
},
{
closed = 1;
nodes = (
(32,479,l),
(32,372,l),
(177,372,l),
(231,493,l),
(158,493,l),
(109,545,l)
);
}
);
width = 496;
}
);
unicode = 122;
}
{
glyphname = exclamdown;
layers = (
{
layerId = "251EB316-0412-4A3C-A569-0EEB43C6D9CE";
name = "Regular Shadow";
shapes = (
{
closed = 1;
nodes = (
(35,329,l),
(35,-216,l),
(165,-216,l),
(281,-70,l),
(184,-70,l),
(86,0,l),
(86,376,l)
);
},
{
closed = 1;
nodes = (
(35,459,l),
(35,376,l),
(86,376,l),
(86,500,l),
(190,500,l),
(239,436,l),
(281,493,l),
(201,493,l),
(122,561,l)
);
}
);
width = 267;
},
{
layerId = "2AF69027-8699-4DA7-9B20-F07C10F82EEB";
name = "Regular InsideShadow";
shapes = (
{
closed = 1;
nodes = (
(79,598,l),
(201,493,l),
(281,493,l),
(190,598,l)
);
},
{
closed = 1;
nodes = (
(86,0,l),
(184,-70,l),
(281,-70,l),
(190,0,l)
);
}
);
width = 267;
},
{
layerId = "C85A4985-4A4B-40F2-9F5D-E307D783C1A5";
name = "Regular InsideLight";
shapes = (
{
closed = 1;
nodes = (
(190,0,l),
(281,-70,l),
(281,382,l),
(190,500,l)
);
},
{
closed = 1;
nodes = (
(190,598,l),
(281,493,l),
(281,592,l),
(190,700,l)
);
}
);
width = 267;
},
{
layerId = "8706937B-409E-4048-AB1C-4F6C90F3053E";
name = "Regular Front";
shapes = (
{
closed = 1;
nodes = (
(86,500,l),
(86,0,l),
(190,0,l),
(190,500,l)
);
},
{
closed = 1;
nodes = (
(79,700,l),
(79,598,l),
(190,598,l),
(190,700,l)
);
}
);
width = 267;
}
);
unicode = 161;
}
{
glyphname = brokenbar;
layers = (
{
layerId = "8706937B-409E-4048-AB1C-4F6C90F3053E";
name = "Regular Front";
shapes = (
{
closed = 1;
nodes = (
(88,700,l),
(88,407,l),
(192,407,l),
(191,700,l)
);
},
{
closed = 1;
nodes = (
(88,300,l),
(88,0,l),
(192,0,l),
(191,300,l)
);
}
);
width = 277;
},
{
layerId = "C85A4985-4A4B-40F2-9F5D-E307D783C1A5";
name = "Regular InsideLight";
shapes = (
{
closed = 1;
nodes = (
(192,407,l),
(290,321,l),
(290,587,l),
(191,700,l)
);
},
{
closed = 1;
nodes = (
(192,0,l),
(290,-70,l),
(290,224,l),
(191,300,l)
);
}
);
width = 277;
},
{
layerId = "2AF69027-8699-4DA7-9B20-F07C10F82EEB";
name = "Regular InsideShadow";
shapes = (
{
closed = 1;
nodes = (
(88,407,l),
(195,321,l),
(290,321,l),
(192,407,l)
);
},
{
closed = 1;
nodes = (
(88,0,l),
(195,-70,l),
(290,-70,l),
(192,0,l)
);
}
);
width = 277;
},
{
layerId = "251EB316-0412-4A3C-A569-0EEB43C6D9CE";
name = "Regular Shadow";
shapes = (
{
closed = 1;
nodes = (
(35,461,l),
(35,191,l),
(88,191,l),
(88,300,l),
(191,300,l),
(226,273,l),
(290,321,l),
(195,321,l),
(88,407,l),
(88,509,l)
);
},
{
closed = 1;
nodes = (
(35,61,l),
(35,-216,l),
(137,-216,l),
(290,-70,l),
(195,-70,l),
(88,0,l),
(88,109,l)
);
}
);
width = 277;
}
);
unicode = 166;
}
{
glyphname = dieresis;
layers = (
{
anchors = (
{
name = _top;
pos = (308,538);
}
);
layerId = "251EB316-0412-4A3C-A569-0EEB43C6D9CE";
name = "Regular Shadow";
shapes = (
{
closed = 1;
nodes = (
(346,559,l),
(346,476,l),
(476,476,l),
(586,621,l),
(479,621,l),
(429,654,l)
);
},
{
closed = 1;
nodes = (
(84,559,l),
(84,476,l),
(214,476,l),
(324,621,l),
(217,621,l),
(167,654,l)
);
}
);
width = 600;
},
{
anchors = (
{
name = _top;
pos = (308,538);
}
);
layerId = "2AF69027-8699-4DA7-9B20-F07C10F82EEB";
name = "Regular InsideShadow";
shapes = (
{
closed = 1;
nodes = (
(372,692,l),
(479,621,l),
(586,621,l),
(502,692,l)
);
},
{
closed = 1;
nodes = (
(110,692,l),
(217,621,l),
(324,621,l),
(240,692,l)
);
}
);
width = 600;
},
{
anchors = (
{
name = _top;
pos = (308,538);
}
);
layerId = "C85A4985-4A4B-40F2-9F5D-E307D783C1A5";
name = "Regular InsideLight";
shapes = (
{
closed = 1;
nodes = (
(502,692,l),
(586,621,l),
(586,722,l),
(502,800,l)
);
},
{
closed = 1;
nodes = (
(240,692,l),
(324,621,l),
(324,722,l),
(240,800,l)
);
}
);
width = 600;
},
{
anchors = (
{
name = _top;
pos = (308,538);
}
);
layerId = "8706937B-409E-4048-AB1C-4F6C90F3053E";
name = "Regular Front";
shapes = (
{
closed = 1;
nodes = (
(372,800,l),
(372,692,l),
(502,692,l),
(502,800,l)
);
},
{
closed = 1;
nodes = (
(110,800,l),
(110,692,l),
(240,692,l),
(240,800,l)
);
}
);
width = 600;
}
);
unicode = 168;
}
{
glyphname = ordfeminine;
layers = (
{
anchors = (
{
name = ogonek;
pos = (473,-1);
},
{
name = top;
pos = (239,700);
}
);
layerId = "8706937B-409E-4048-AB1C-4F6C90F3053E";
name = "Regular Front";
shapes = (
{
closed = 1;
nodes = (
(178,712,o),
(88,670,o),
(78,569,c),
(187,554,l),
(190,568,o),
(198,589,o),
(207,597,cs),
(217,606,o),
(232,610,o),
(245,610,cs),
(282,610,o),
(306,581,o),
(306,545,cs),
(306,506,l),
(237,506,l),
(197,506,o),
(173,500,o),
(160,495,cs),
(116,478,o),
(78,437,o),
(78,391,cs),
(78,311,o),
(110,279,o),
(153,245,cs),
(171,231,o),
(207,223,o),
(261,223,cs),
(302,223,o),
(353,227,o),
(415,237,c),
(415,544,ls),
(415,573,o),
(402,605,o),
(383,633,cs),
(353,676,o),
(305,712,o),
(241,712,cs)
);
},
{
closed = 1;
nodes = (
(306,324,l),
(281,320,o),
(257,319,o),
(233,322,cs),
(210,325,o),
(182,342,o),
(182,368,c),
(182,377,l),
(182,402,o),
(210,416,o),
(232,416,cs),
(306,416,l)
);
}
);
width = 500;
},
{
anchors = (
{
name = ogonek;
pos = (473,-1);
},
{
name = top;
pos = (239,700);
}
);
layerId = "C85A4985-4A4B-40F2-9F5D-E307D783C1A5";
name = "Regular InsideLight";
shapes = (
{
closed = 1;
nodes = (
(402,605,o),
(415,573,o),
(415,544,c),
(415,237,l),
(499,165,l),
(499,436,ls),
(499,471,o),
(488,501,o),
(467,529,cs),
(438,566,o),
(412,596,o),
(383,633,c)
);
},
{
closed = 1;
nodes = (
(182,368,l),
(182,342,o),
(210,325,o),
(233,322,c),
(182,377,l)
);
},
{
closed = 1;
nodes = (
(198,589,o),
(190,568,o),
(187,554,c),
(237,506,l),
(254,506,l),
(207,597,l)
);
}
);
width = 500;
},
{
anchors = (
{
name = ogonek;
pos = (473,-1);
},
{
name = top;
pos = (239,700);
}
);
layerId = "2AF69027-8699-4DA7-9B20-F07C10F82EEB";
name = "Regular InsideShadow";
shapes = (
{
closed = 1;
nodes = (
(185,220,o),
(228,188,o),
(266,164,cs),
(313,134,o),
(402,133,o),
(499,165,c),
(415,237,l),
(353,227,o),
(302,223,o),
(261,223,cs),
(207,223,o),
(171,231,o),
(153,245,c)
);
},
{
closed = 1;
nodes = (
(232,416,ls),
(210,416,o),
(182,402,o),
(182,377,c),
(233,322,l),
(257,319,o),
(281,320,o),
(306,324,c),
(306,416,l)
);
},
{
closed = 1;
nodes = (
(160,495,l),
(173,500,o),
(197,506,o),
(237,506,c),
(187,554,l),
(78,569,l)
);
},
{
closed = 1;
nodes = (
(232,610,o),
(217,606,o),
(207,597,c),
(254,506,l),
(306,506,l),
(306,546,ls),
(306,581,o),
(282,610,o),
(245,610,cs)
);
}
);
width = 500;
},
{
anchors = (
{
name = ogonek;
pos = (473,-1);
},
{
name = top;
pos = (239,700);
}
);
layerId = "251EB316-0412-4A3C-A569-0EEB43C6D9CE";
name = "Regular Shadow";
shapes = (
{
closed = 1;
nodes = (
(46,359,o),
(35,324,o),
(35,279,c),
(70,240,l),
(51,226,o),
(35,201,o),
(35,154,cs),
(35,41,o),
(123,-6,o),
(243,-6,cs),
(283,-6,o),
(327,-1,o),
(373,9,c),
(499,165,l),
(402,133,o),
(313,134,o),
(266,164,cs),
(228,188,o),
(185,220,o),
(153,245,c),
(110,279,o),
(78,311,o),
(78,391,c)
);
}
);
width = 500;
}
);
unicode = 170;
}
{
glyphname = macron;
layers = (
{
anchors = (
{
name = _top;
pos = (308,538);
}
);
layerId = "251EB316-0412-4A3C-A569-0EEB43C6D9CE";
name = "Regular Shadow";
shapes = (
{
closed = 1;
nodes = (
(114,559,l),
(114,476,l),
(434,476,l),
(544,621,l),
(247,621,l),
(197,654,l)
);
}
);
width = 600;
},
{
anchors = (
{
name = _top;
pos = (308,538);
}
);
layerId = "2AF69027-8699-4DA7-9B20-F07C10F82EEB";
name = "Regular InsideShadow";
shapes = (
{
closed = 1;
nodes = (
(140,692,l),
(247,621,l),
(544,621,l),
(460,692,l)
);
}
);
width = 600;
},
{
anchors = (
{
name = _top;
pos = (308,538);
}
);
layerId = "C85A4985-4A4B-40F2-9F5D-E307D783C1A5";
name = "Regular InsideLight";
shapes = (
{
closed = 1;
nodes = (
(460,692,l),
(544,621,l),
(544,722,l),
(460,800,l)
);
}
);
width = 600;
},
{
anchors = (
{
name = _top;
pos = (308,538);
}
);
layerId = "8706937B-409E-4048-AB1C-4F6C90F3053E";
name = "Regular Front";
shapes = (
{
closed = 1;
nodes = (
(140,800,l),
(140,692,l),
(460,692,l),
(460,800,l)
);
}
);
width = 600;
}
);
unicode = 175;
}
{
glyphname = acute;
layers = (
{
anchors = (
{
name = _top;
pos = (304,538);
}
);
layerId = "251EB316-0412-4A3C-A569-0EEB43C6D9CE";
name = "Regular Shadow";
shapes = (
{
closed = 1;
nodes = (
(104,583,l),
(164,436,l),
(294,436,l),
(404,581,l),
(297,581,l),
(190,652,l),
(178,682,l)
);
}
);
width = 600;
},
{
anchors = (
{
name = _top;
pos = (304,538);
}
);
layerId = "2AF69027-8699-4DA7-9B20-F07C10F82EEB";
name = "Regular InsideShadow";
shapes = (
{
closed = 1;
nodes = (
(190,652,l),
(297,581,l),
(404,581,l),
(320,652,l)
);
}
);
width = 600;
},
{
anchors = (
{
name = _top;
pos = (304,538);
}
);
layerId = "C85A4985-4A4B-40F2-9F5D-E307D783C1A5";
name = "Regular InsideLight";
shapes = (
{
closed = 1;
nodes = (
(320,652,l),
(404,581,l),
(343,722,l),
(260,800,l)
);
}
);
width = 600;
},
{
anchors = (
{
name = _top;
pos = (304,538);
}
);
layerId = "8706937B-409E-4048-AB1C-4F6C90F3053E";
name = "Regular Front";
shapes = (
{
closed = 1;
nodes = (
(130,799,l),
(190,652,l),
(320,652,l),
(260,800,l)
);
}
);
width = 600;
}
);
unicode = 180;
}
{
glyphname = paragraph;
layers = (
{
layerId = "8706937B-409E-4048-AB1C-4F6C90F3053E";
name = "Regular Front";
shapes = (
{
closed = 1;
nodes = (
(235,700,ls),
(143,700,o),
(69,628,o),
(69,535,cs),
(69,434,ls),
(69,406,o),
(75,383,o),
(85,362,cs),
(97,337,o),
(115,316,o),
(136,300,cs),
(166,277,o),
(200,266,o),
(233,266,cs),
(296,266,l),
(296,107,l),
(228,107,l),
(228,0,l),
(350,0,l),
(350,593,l),
(409,593,l),
(409,0,l),
(536,0,l),
(536,107,l),
(469,107,l),
(469,593,l),
(533,593,l),
(533,700,l)
);
},
{
closed = 1;
nodes = (
(296,371,l),
(230,371,ls),
(204,371,o),
(171,402,o),
(171,432,cs),
(171,534,ls),
(171,569,o),
(194,593,o),
(232,593,cs),
(296,593,l)
);
}
);
width = 617;
},
{
layerId = "C85A4985-4A4B-40F2-9F5D-E307D783C1A5";
name = "Regular InsideLight";
shapes = (
{
closed = 1;
nodes = (
(468,107,l),
(536,107,l),
(565,80,l),
(565,428,l),
(468,593,l)
);
},
{
closed = 1;
nodes = (
(536,0,l),
(620,-70,l),
(620,29,l),
(536,107,l)
);
},
{
closed = 1;
nodes = (
(350,0,l),
(398,-36,l),
(398,510,l),
(350,593,l)
);
},
{
closed = 1;
nodes = (
(171,432,ls),
(171,402,o),
(204,371,o),
(230,371,cs),
(273,371,l),
(273,440,l),
(171,534,l)
);
},
{
closed = 1;
nodes = (
(532,593,l),
(631,495,l),
(631,589,l),
(532,702,l)
);
}
);
width = 617;
},
{
layerId = "2AF69027-8699-4DA7-9B20-F07C10F82EEB";
name = "Regular InsideShadow";
shapes = (
{
closed = 1;
nodes = (
(232,593,ls),
(194,593,o),
(171,569,o),
(171,534,c),
(273,440,l),
(273,459,o),
(283,474,o),
(296,485,c),
(296,593,l)
);
},
{
closed = 1;
nodes = (
(228,0,l),
(335,-70,l),
(448,-70,l),
(350,0,l)
);
},
{
closed = 1;
nodes = (
(409,-44,l),
(448,-70,l),
(448,-28,l),
(409,0,l)
);
},
{
closed = 1;
nodes = (
(409,0,l),
(508,-70,l),
(620,-70,l),
(536,0,l)
);
},
{
closed = 1;
nodes = (
(398,514,l),
(398,-43,l),
(409,-44,l),
(409,514,l)
);
},
{
closed = 1;
nodes = (
(350,593,l),
(409,491,l),
(409,593,l)
);
},
{
closed = 1;
nodes = (
(565,428,l),
(565,495,l),
(468,593,l)
);
},
{
closed = 1;
nodes = (
(468,593,l),
(565,495,l),
(632,495,l),
(533,593,l)
);
},
{
closed = 1;
nodes = (
(233,266,l),
(200,266,o),
(166,277,o),
(136,300,c),
(186,257,o),
(224,232,o),
(248,218,cs),
(262,211,o),
(277,204,o),
(296,200,c),
(296,266,l)
);
}
);
width = 617;
},
{
layerId = "251EB316-0412-4A3C-A569-0EEB43C6D9CE";
name = "Regular Shadow";
shapes = (
{
closed = 1;
nodes = (
(255,-49,l),
(202,-100,l),
(202,-216,l),
(324,-216,l),
(383,-153,l),
(383,-216,l),
(510,-216,l),
(620,-70,l),
(508,-70,l),
(448,-28,l),
(448,-70,l),
(335,-70,l),
(255,-18,l)
);
},
{
closed = 1;
nodes = (
(283,474,o),
(273,459,o),
(273,440,cs),
(273,371,l),
(296,371,l),
(296,485,l)
);
},
{
closed = 1;
nodes = (
(565,495,l),
(565,428,l),
(631,495,l)
);
},
{
closed = 1;
nodes = (
(115,316,o),
(97,337,o),
(85,362,cs),
(75,383,o),
(69,406,o),
(69,434,c),
(45,407,o),
(35,375,o),
(35,332,cs),
(35,219,ls),
(35,191,o),
(41,168,o),
(51,147,cs),
(79,87,o),
(143,51,o),
(199,51,cs),
(228,51,l),
(228,107,l),
(296,107,l),
(296,200,l),
(277,204,o),
(262,211,o),
(248,218,c),
(224,232,o),
(186,257,o),
(136,300,c)
);
}
);
width = 617;
}
);
unicode = 182;
}
{
glyphname = periodcentered;
layers = (
{
layerId = "8706937B-409E-4048-AB1C-4F6C90F3053E";
name = "Regular Front";
shapes = (
{
closed = 1;
nodes = (
(87,406,l),
(87,299,l),
(217,299,l),
(217,407,l)
);
}
);
width = 272;
},
{
layerId = "C85A4985-4A4B-40F2-9F5D-E307D783C1A5";
name = "Regular InsideLight";
shapes = (
{
closed = 1;
nodes = (
(217,299,l),
(307,208,l),
(307,309,l),
(217,406,l)
);
}
);
width = 272;
},
{
layerId = "2AF69027-8699-4DA7-9B20-F07C10F82EEB";
name = "Regular InsideShadow";
shapes = (
{
closed = 1;
nodes = (
(87,299,l),
(196,208,l),
(307,208,l),
(217,299,l)
);
}
);
width = 272;
},
{
layerId = "251EB316-0412-4A3C-A569-0EEB43C6D9CE";
name = "Regular Shadow";
shapes = (
{
closed = 1;
nodes = (
(35,158,l),
(35,63,l),
(155,63,l),
(307,208,l),
(196,208,l),
(144,252,l)
);
}
);
width = 272;
}
);
unicode = 183;
}
{
glyphname = cedilla;
layers = (
{
anchors = (
{
name = _bottom;
pos = (249,0);
}
);
layerId = "8706937B-409E-4048-AB1C-4F6C90F3053E";
name = "Regular Front";
shapes = (
{
closed = 1;
nodes = (
(193,0,l),
(193,-176,l),
(245,-176,ls),
(282,-176,o),
(306,-204,o),
(306,-238,cs),
(306,-256,ls),
(306,-263,o),
(305,-272,o),
(304,-278,c),
(298,-306,o),
(280,-327,o),
(255,-327,cs),
(251,-327,ls),
(207,-327,o),
(186,-296,o),
(186,-262,cs),
(186,-250,l),
(83,-250,l),
(83,-268,ls),
(83,-314,o),
(108,-369,o),
(153,-403,cs),
(180,-423,o),
(212,-436,o),
(251,-436,cs),
(318,-436,o),
(415,-389,o),
(415,-273,cs),
(415,-221,ls),
(415,-191,o),
(403,-164,o),
(384,-140,cs),
(362,-113,o),
(335,-94,o),
(299,-81,c),
(299,0,l)
);
}
);
width = 500;
},
{
anchors = (
{
name = _bottom;
pos = (249,0);
}
);
layerId = "C85A4985-4A4B-40F2-9F5D-E307D783C1A5";
name = "Regular InsideLight";
shapes = (
{
closed = 1;
nodes = (
(403,-164,o),
(415,-191,o),
(415,-221,c),
(415,-273,l),
(499,-350,l),
(499,-342,ls),
(499,-307,o),
(492,-279,o),
(467,-239,cs),
(444,-202,o),
(424,-182,o),
(384,-140,c)
);
},
{
closed = 1;
nodes = (
(186,-262,ls),
(186,-296,o),
(207,-327,o),
(251,-327,cs),
(255,-327,l),
(186,-250,l)
);
},
{
closed = 1;
nodes = (
(299,-81,l),
(335,-94,o),
(362,-113,o),
(384,-140,c),
(384,-73,l),
(299,0,l)
);
}
);
width = 500;
},
{
anchors = (
{
name = _bottom;
pos = (249,0);
}
);
layerId = "2AF69027-8699-4DA7-9B20-F07C10F82EEB";
name = "Regular InsideShadow";
shapes = (
{
closed = 1;
nodes = (
(415,-389,o),
(318,-436,o),
(251,-436,cs),
(212,-436,o),
(180,-423,o),
(153,-403,c),
(156,-406,o),
(242,-470,o),
(266,-484,cs),
(287,-495,o),
(307,-505,o),
(347,-505,cs),
(368,-505,o),
(417,-498,o),
(461,-458,cs),
(475,-446,o),
(499,-412,o),
(499,-350,c),
(415,-273,l)
);
},
{
closed = 1;
nodes = (
(193,-176,l),
(304,-278,l),
(305,-271,o),
(306,-263,o),
(306,-256,cs),
(306,-238,ls),
(306,-204,o),
(282,-176,o),
(245,-176,cs)
);
}
);
width = 500;
},
{
anchors = (
{
name = _bottom;
pos = (249,0);
}
);
layerId = "251EB316-0412-4A3C-A569-0EEB43C6D9CE";
name = "Regular Shadow";
shapes = (
{
closed = 1;
nodes = (
(35,-462,l),
(35,-484,ls),
(35,-575,o),
(95,-648,o),
(198,-648,cs),
(242,-648,o),
(280,-632,o),
(313,-601,cs),
(461,-458,l),
(417,-498,o),
(368,-505,o),
(347,-505,cs),
(307,-505,o),
(287,-495,o),
(266,-484,cs),
(242,-470,o),
(156,-406,o),
(153,-403,cs),
(143,-395,o),
(133,-386,o),
(125,-376,c)
);
},
{
closed = 1;
nodes = (
(140,-212,l),
(140,-250,l),
(186,-250,l),
(255,-327,l),
(281,-327,o),
(298,-306,o),
(304,-278,c),
(193,-176,l)
);
}
);
width = 500;
}
);
unicode = 184;
}
{
glyphname = ordmasculine;
layers = (
{
anchors = (
{
name = ogonek;
pos = (483,-1);
},
{
name = top;
pos = (249,700);
}
);
layerId = "8706937B-409E-4048-AB1C-4F6C90F3053E";
name = "Regular Front";
shapes = (
{
closed = 1;
nodes = (
(148,706,o),
(83,625,o),
(83,537,cs),
(83,380,ls),
(83,334,o),
(108,279,o),
(153,244,cs),
(180,223,o),
(212,212,o),
(251,212,cs),
(318,212,o),
(415,258,o),
(415,375,c),
(415,557,l),
(415,588,o),
(402,616,o),
(382,640,cs),
(348,680,o),
(295,706,o),
(248,706,cs)
);
},
{
closed = 1;
nodes = (
(282,602,o),
(306,574,o),
(306,540,cs),
(306,392,ls),
(306,374,o),
(303,350,o),
(283,333,cs),
(275,326,o),
(265,321,o),
(255,321,cs),
(251,321,ls),
(207,321,o),
(186,352,o),
(186,386,cs),
(186,543,ls),
(186,573,o),
(204,602,o),
(245,602,cs)
);
}
);
width = 500;
},
{
anchors = (
{
name = ogonek;
pos = (483,-1);
},
{
name = top;
pos = (249,700);
}
);
layerId = "C85A4985-4A4B-40F2-9F5D-E307D783C1A5";
name = "Regular InsideLight";
shapes = (
{
closed = 1;
nodes = (
(402,616,o),
(415,588,o),
(415,557,c),
(415,374,l),
(499,297,l),
(499,436,ls),
(499,471,o),
(485,498,o),
(467,529,cs),
(442,571,o),
(416,606,o),
(382,640,c)
);
},
{
closed = 1;
nodes = (
(186,386,ls),
(186,352,o),
(207,321,o),
(251,321,cs),
(255,321,l),
(255,386,l),
(186,543,l)
);
}
);
width = 500;
},
{
anchors = (
{
name = ogonek;
pos = (483,-1);
},
{
name = top;
pos = (249,700);
}
);
layerId = "2AF69027-8699-4DA7-9B20-F07C10F82EEB";
name = "Regular InsideShadow";
shapes = (
{
closed = 1;
nodes = (
(415,258,o),
(318,212,o),
(251,212,cs),
(212,212,o),
(180,223,o),
(153,244,c),
(180,223,o),
(242,177,o),
(266,163,cs),
(287,152,o),
(307,142,o),
(347,142,cs),
(368,142,o),
(417,149,o),
(461,189,cs),
(475,201,o),
(499,235,o),
(499,297,c),
(415,374,l)
);
},
{
closed = 1;
nodes = (
(204,602,o),
(186,573,o),
(186,543,c),
(255,386,l),
(255,321,l),
(265,321,o),
(275,326,o),
(283,333,c),
(283,436,ls),
(283,455,o),
(293,470,o),
(306,481,c),
(306,540,ls),
(306,574,o),
(282,602,o),
(245,602,cs)
);
}
);
width = 500;
},
{
anchors = (
{
name = ogonek;
pos = (483,-1);
},
{
name = top;
pos = (249,700);
}
);
layerId = "251EB316-0412-4A3C-A569-0EEB43C6D9CE";
name = "Regular Shadow";
shapes = (
{
closed = 1;
nodes = (
(51,361,o),
(35,323,o),
(35,278,cs),
(35,163,ls),
(35,72,o),
(95,-1,o),
(198,-1,cs),
(242,-1,o),
(280,15,o),
(313,46,cs),
(461,189,l),
(417,149,o),
(368,142,o),
(347,142,cs),
(307,142,o),
(287,152,o),
(266,163,cs),
(242,177,o),
(180,223,o),
(153,244,cs),
(108,278,o),
(83,334,o),
(83,380,cs),
(83,393,l)
);
},
{
closed = 1;
nodes = (
(293,470,o),
(283,455,o),
(283,436,cs),
(283,333,l),
(303,350,o),
(306,374,o),
(306,392,cs),
(306,481,l)
);
}
);
width = 500;
}
);
unicode = 186;
}
{
glyphname = multiply;
layers = (
{
layerId = "8706937B-409E-4048-AB1C-4F6C90F3053E";
name = "Regular Front";
shapes = (
{
closed = 1;
nodes = (
(55,556,l),
(550,61,l),
(624,135,l),
(129,630,l)
);
},
{
closed = 1;
nodes = (
(55,135,l),
(129,61,l),
(624,556,l),
(550,630,l)
);
}
);
width = 700;
},
{
layerId = "C85A4985-4A4B-40F2-9F5D-E307D783C1A5";
name = "Regular InsideLight";
shapes = (
{
closed = 1;
nodes = (
(550,61,l),
(640,-30,l),
(714,39,l),
(624,135,l)
);
},
{
closed = 1;
nodes = (
(413,345,l),
(504,254,l),
(714,460,l),
(624,556,l)
);
},
{
closed = 1;
nodes = (
(340,272,l),
(290,53,l),
(217,-19,l),
(129,61,l)
);
}
);
width = 700;
},
{
layerId = "2AF69027-8699-4DA7-9B20-F07C10F82EEB";
name = "Regular InsideShadow";
shapes = (
{
closed = 1;
nodes = (
(340,272,l),
(425,186,l),
(290,53,l)
);
}
);
width = 700;
},
{
layerId = "251EB316-0412-4A3C-A569-0EEB43C6D9CE";
name = "Regular Shadow";
shapes = (
{
closed = 1;
nodes = (
(425,186,l),
(290,53,l),
(495,-171,l),
(640,-30,l)
);
},
{
closed = 1;
nodes = (
(55,135,l),
(10,0,l),
(10,-126,l),
(104,-126,l),
(217,-19,l),
(129,61,l)
);
},
{
closed = 1;
nodes = (
(148,463,l),
(13,330,l),
(132,211,l),
(266,346,l)
);
}
);
width = 700;
}
);
unicode = 215;
}
{
glyphname = germandbls;
layers = (
{
anchors = (
{
name = ogonek;
pos = (483,-1);
},
{
name = top;
pos = (249,700);
}
);
layerId = "8706937B-409E-4048-AB1C-4F6C90F3053E";
name = "Regular Front";
shapes = (
{
closed = 1;
nodes = (
(148,706,o),
(83,625,o),
(83,537,cs),
(83,-120,l),
(186,-120,l),
(186,543,ls),
(186,573,o),
(204,602,o),
(245,602,cs),
(282,602,o),
(306,574,o),
(306,540,cs),
(306,501,ls),
(306,479,o),
(294,453,o),
(278,435,cs),
(212,358,l),
(286,256,ls),
(303,233,o),
(310,217,o),
(310,195,cs),
(310,163,l),
(310,149,o),
(299,137,o),
(281,137,c),
(213,137,l),
(213,29,l),
(300,29,l),
(357,29,o),
(416,79,o),
(416,139,c),
(416,179,ls),
(416,226,o),
(406,256,o),
(378,298,cs),
(341,354,l),
(378,396,ls),
(397,418,o),
(414,459,o),
(414,500,cs),
(414,557,l),
(414,583,o),
(405,607,o),
(391,628,cs),
(359,674,o),
(300,706,o),
(248,706,cs)
);
}
);
width = 484;
},
{
anchors = (
{
name = ogonek;
pos = (483,-1);
},
{
name = top;
pos = (249,700);
}
);
layerId = "C85A4985-4A4B-40F2-9F5D-E307D783C1A5";
name = "Regular InsideLight";
shapes = (
{
closed = 1;
nodes = (
(186,-120,l),
(269,-189,l),
(240,-124,l),
(240,4,l),
(213,29,l),
(213,137,l),
(240,137,l),
(240,319,l),
(212,358,l),
(249,399,l),
(186,543,l)
);
},
{
closed = 1;
nodes = (
(378,298,ls),
(406,256,o),
(416,226,o),
(416,179,cs),
(416,139,l),
(499,70,l),
(499,112,ls),
(499,144,o),
(486,180,o),
(469,206,cs),
(423,277,l),
(341,354,l)
);
},
{
closed = 1;
nodes = (
(405,607,o),
(413,584,o),
(414,557,c),
(414,500,ls),
(414,459,o),
(397,418,o),
(378,396,c),
(462,319,l),
(485,346,o),
(499,397,o),
(499,436,cs),
(499,473,o),
(488,501,o),
(467,529,cs),
(438,567,o),
(420,591,o),
(391,628,c)
);
}
);
width = 484;
},
{
anchors = (
{
name = ogonek;
pos = (483,-1);
},
{
name = top;
pos = (249,700);
}
);
layerId = "2AF69027-8699-4DA7-9B20-F07C10F82EEB";
name = "Regular InsideShadow";
shapes = (
{
closed = 1;
nodes = (
(416,79,o),
(357,29,o),
(300,29,c),
(383,-40,l),
(410,-40,o),
(439,-28,o),
(461,-9,cs),
(484,11,o),
(499,39,o),
(499,70,c),
(416,139,l)
);
},
{
closed = 1;
nodes = (
(83,-120,l),
(170,-189,l),
(269,-189,l),
(186,-120,l)
);
},
{
closed = 1;
nodes = (
(240,-124,l),
(269,-189,l),
(269,-23,l),
(240,4,l)
);
},
{
closed = 1;
nodes = (
(213,29,l),
(287,-40,l),
(383,-40,l),
(300,29,l)
);
},
{
closed = 1;
nodes = (
(240,137,l),
(269,137,l),
(269,280,l),
(240,320,l)
);
},
{
closed = 1;
nodes = (
(204,602,o),
(186,573,o),
(186,543,c),
(249,399,l),
(283,440,l),
(283,443,ls),
(283,465,o),
(293,478,o),
(306,489,c),
(306,540,ls),
(306,574,o),
(282,602,o),
(245,602,cs)
);
},
{
closed = 1;
nodes = (
(341,354,l),
(423,277,l),
(462,319,l),
(378,396,l)
);
}
);
width = 484;
},
{
anchors = (
{
name = ogonek;
pos = (483,-1);
},
{
name = top;
pos = (249,700);
}
);
layerId = "251EB316-0412-4A3C-A569-0EEB43C6D9CE";
name = "Regular Shadow";
shapes = (
{
closed = 1;
nodes = (
(51,412,o),
(35,364,o),
(35,319,cs),
(35,-320,l),
(139,-320,l),
(269,-189,l),
(170,-189,l),
(83,-120,l),
(83,444,l)
);
},
{
closed = 1;
nodes = (
(439,-28,o),
(410,-40,o),
(383,-40,c),
(287,-40,l),
(269,-23,l),
(269,-189,l),
(461,-9,l)
);
},
{
closed = 1;
nodes = (
(269,137,l),
(281,137,l),
(296,137,o),
(310,146,o),
(310,163,c),
(310,223,l),
(269,280,l)
);
},
{
closed = 1;
nodes = (
(293,478,o),
(283,464,o),
(283,444,cs),
(283,440,l),
(306,467,l),
(306,489,l)
);
}
);
width = 484;
}
);
unicode = 223;
}
